<svg width="560" height="323" fill="none" xmlns="http://www.w3.org/2000/svg"><path fill="#EEE" d="M89.722 257.214h232.071v4.314H89.722zm7.304 8.627H224.5l42.5 41.158h-5.5l-38-36.844H97.026v-4.314zm-72.007-67.293V10.475h4.314v188.073h-4.314z"/><path d="M31.921 199.411L85.3 252.789l7.013 7.012-13.825-.201-10.935-.158-35.272-35.271-.359-24.76z" fill="#EEE"/><path fill="#EEE" d="M33.645 10.476h4.314v214.817h-4.314z"/><path d="M25.019 198.148l3.05-3.05 72.007 72.007-3.05 3.05-72.007-72.007zM19.413 45.416l5.607-5.607v85.409l-5.607-5.608V45.416zm-1.297 114.741l5.607-5.607v52.626h-5.607v-47.019z" fill="#EEE"/><path d="M14.666 207.178v-46.587l8.196-8.195v-25.882L12.51 116.161V94.162" stroke="#EEE"/><path d="M20.705 151.531l-6.039 6.039v-6.902l6.04-6.039v6.902zm2.588-112.586l-6.039 6.04v-6.902l6.04-6.04v6.902zm0-9.489l-6.039 6.04v-6.903l6.04-6.039v6.902zm0-9.49l-6.039 6.04v-6.903l6.04-6.039v6.902z" fill="#EEE"/><circle cx="8.196" cy="35.926" r="3.02" fill="#EEE"/><circle cx="3.02" cy="110.12" r="3.02" fill="#EEE"/><path d="M8.196 35.926v31.921l-5.177 5.176v37.097" stroke="#EEE"/><path fill="#EEE" d="M12.078 91.571h.863v.863h-.863zm0-2.589h.863v.863h-.863zm0-2.585h.863v.863h-.863zm0-2.589h.863v.863h-.863z"/><path d="M20.706 127.806v8.628l-15.96-15.961v-4.313l3.45-3.451v-28.47l2.157-2.157v35.372l10.353 10.352zm245.01-113.015H33.645v-4.314h232.071zm-7.303-8.627h-70.312V1.85h70.312v4.314zm72.006 67.292v188.072h-4.313V73.456h4.313z" fill="#EEE"/><path d="M323.519 72.593l-53.378-53.378-7.013-7.012 13.825.2 10.936.159 35.271 35.27.359 24.761z" fill="#EEE"/><path fill="#EEE" d="M321.793 261.528h-4.314V46.711h4.314z"/><path d="M330.419 73.856l-3.05 3.05L255.362 4.9l3.05-3.05 72.007 72.006zm5.607 152.731l-5.607 5.608v-85.409l5.607 5.608v74.193zm1.297-114.741l-5.608 5.608V64.828h5.608v47.018z" fill="#EEE"/><path d="M340.773 64.828v46.587l-8.196 8.196v25.881l10.353 10.353v21.999" stroke="#EEE"/><path d="M334.734 120.473l6.039-6.039v6.902l-6.039 6.039v-6.902zm-2.588 112.585l6.039-6.039v6.902l-6.039 6.039v-6.902zm0 9.49l6.039-6.039v6.902l-6.039 6.039v-6.902zm0 9.49l6.039-6.039v6.902l-6.039 6.039v-6.902z" fill="#EEE"/><circle cx="347.242" cy="236.078" r="3.02" transform="rotate(-180 347.242 236.078)" fill="#EEE"/><circle cx="352.419" cy="161.884" r="3.02" transform="rotate(-180 352.419 161.884)" fill="#EEE"/><path d="M347.242 236.078v-31.921l5.177-5.176v-37.097" stroke="#EEE"/><path fill="#EEE" d="M343.36 180.433h-.863v-.863h.863zm0 2.589h-.863v-.863h.863zm0 2.587h-.863v-.863h.863zm0 2.586h-.863v-.863h.863z"/><path d="M334.733 144.199v-8.627l15.961 15.96v4.314l-3.451 3.45v28.47l-2.157 2.157v-35.372l-10.353-10.352zM321.167 309a2.667 2.667 0 10-5.334 0 2.667 2.667 0 005.334 0zm-60.667 0l-.349.358.146.142h.203v-.5zm-38-37l.349-.358-.146-.142h-.203v.5zm96 36.5h-58v1h58v-1zm-57.651.142l-38-37-.698.716 38 37 .698-.716zM222.5 271.5h-100v1h100v-1zm-110.5 0v1h-1v-1zm2.862 0v1h-1v-1zm2.863 0v1h-1v-1zm2.862 0v1h-1v-1zM269 307l-6-6h5l6 6h-5zm7 0l-6-6h5l6 6h-5zm7 0l-6-6h5l6 6h-5zm7 0l-6-6h5l6 6h-5zm60.667 12.5a2.667 2.667 0 10-5.334 0 2.667 2.667 0 005.334 0zm-101.463 0l-.348.359.146.141h.202v-.5zM210.5 282l.348-.359-.146-.141h-.202v.5zm-66.833 0a2.667 2.667 0 10-5.334 0 2.667 2.667 0 005.334 0zM348 319h-98.796v1H348v-1zm-98.448.141l-38.704-37.5-.696.718 38.704 37.5.696-.718zM210.5 281.5H141v1h69.5v-1zm39.5 36L212.5 281h5.5l37.5 36.5H250zM189.5 290l-6-6h5l6 6h-5zm7 0l-6-6h5l6 6h-5zm7 0l-6-6h5l6 6h-5zm7 0l-6-6h5l6 6h-5zM421.796 79l.348-.36-.146-.14h-.202v.5zm38.704 37.5l-.348.359.146.141h.202v-.5zm93.333 0a2.667 2.667 0 105.334 0 2.667 2.667 0 00-5.334 0zM374.5 79.5h47.296v-1H374.5v1zm46.948-.14l38.704 37.499.696-.718-38.704-37.5-.696.718zM460.5 117h96v-1h-96v1zM421 81l37.5 36.5H453L415.5 81h5.5zm60.5 27.5l6 6h-5l-6-6h5zM382 62l6 6h-5l-6-6h5zm27 29l6 6h-5l-6-6h5zm65.5 17.5l6 6h-5l-6-6h5zM375 62l6 6h-5l-6-6h5zm27 29l6 6h-5l-6-6h5zm65.5 17.5l6 6h-5l-6-6h5zM368 62l6 6h-5l-6-6h5zm27 29l6 6h-5l-6-6h5zm65.5 17.5l6 6h-5l-6-6h5zM361 62l6 6h-5l-6-6h5zm27 29l6 6h-5l-6-6h5zm22.5-2l.354-.354-.147-.146h-.207v.5zm25.333 28a2.667 2.667 0 105.334 0 2.667 2.667 0 00-5.334 0zm-89-28a2.667 2.667 0 105.334 0 2.667 2.667 0 00-5.334 0zm63.313.354l28 28 .708-.708-28-28-.708.708zm.354-.854h-61v1h61v-1zm-108.667-75a2.667 2.667 0 105.334 0 2.667 2.667 0 00-5.334 0zm58.667 56l-.354.354.147.146h.207v-.5zm66 0l.354-.354-.147-.146h-.207v.5zm9.333 12a2.667 2.667 0 105.334 0 2.667 2.667 0 00-5.334 0zM304.146 13.854l56 56 .708-.708-56-56-.708.708zM360.5 70h66v-1h-66v1zm65.646-.146l12 12 .708-.708-12-12-.708.708zM364 78.5v1h-1v-1zm2.862 0v1h-1v-1zm2.863 0v1h-1v-1zm2.862 0v1h-1v-1z" fill="#EEE"/><mask id="a" style="mask-type:alpha" maskUnits="userSpaceOnUse" x="37" y="14" width="281" height="244"><path d="M317.911 257.522H90.154l-52.626-52.626V14.236h228.189l52.194 52.194v191.092z" fill="#8E8E8E"/></mask><g mask="url(#a)"><path d="M317.911 257.522H90.154l-52.626-52.626V14.236h228.189l52.194 52.194v191.092z" fill="#D7D2CF"/></g></svg>