<svg width="1565" height="1868" fill="none" xmlns="http://www.w3.org/2000/svg"><path d="M1125.68 1324.45v202.5l174.3 101.05 174.7-101.05v-202.5L1299.98 1223l-174.3 101.45z" fill="#5EB1D9" fill-opacity=".1"/><path d="M442.943 1842.26v-51l43.889-25.45 43.989 25.45v51l-43.989 25.55-43.889-25.55z" fill="#497FA1" fill-opacity=".6"/><path d="M345.002 1685.16l-42.39 24.58v49.27l42.39 24.68 42.488-24.68v-49.27l-42.488-24.58zm0-331.48l-42.39 24.58v49.28l42.39 24.68 42.488-24.68v-49.27l-42.488-24.59zm46.98 413.98l-42.389 24.59v49.27l42.389 24.68 42.488-24.68v-49.27l-42.488-24.59z" stroke="#4980A3" stroke-width="3"/><path d="M348.684 1676.48v-51l43.889-25.45 43.988 25.45v51l-43.988 25.55-43.889-25.55z" fill="#5EB1D9"/><path d="M490.502 1760.17v-51l43.889-25.45 43.989 25.45v51l-43.989 25.55-43.889-25.55z" fill="#497FA1" fill-opacity=".3"/><path d="M348.684 1510.62v-51l43.889-25.45 43.988 25.45v51l-43.988 25.55-43.889-25.55z" fill="#30567A" fill-opacity=".6"/><path d="M395.807 1760.17v-51l43.889-25.45 43.989 25.45v51l-43.989 25.55-43.889-25.55z" fill="#5EB1D9"/><path d="M395.807 1593.57v-51l43.889-25.45 43.989 25.45v51l-43.989 25.55-43.889-25.55z" fill="#497FA1" fill-opacity=".6"/><path d="M205.683 1760.2v-51l43.889-25.45 43.988 25.45v51l-43.988 25.55-43.889-25.55z" fill="#497FA1"/><path d="M253.398 1842.38v-51l43.888-25.45 43.989 25.45v51l-43.989 25.55-43.888-25.55z" fill="#497FA1" fill-opacity=".6"/><path d="M253.398 1676.52v-51l43.888-25.45 43.989 25.45v51l-43.989 25.55-43.888-25.55z" fill="#5EB1D9"/><path d="M253.398 1345.45v-51l43.888-25.45 43.989 25.45v51L297.286 1371l-43.888-25.55z" fill="#5EB1D9" fill-opacity=".4"/><path d="M291.683 1548.45v202.5L465.985 1852l174.698-101.05v-202.5L465.985 1447l-174.302 101.45z" fill="#5EB1D9" fill-opacity=".05"/><path d="M1062.68 1149.57v75l64.43 37.43 64.57-37.43v-75l-64.57-37.57-64.43 37.57zm-439.009-51.92v131l112.872 65.38 113.128-65.38v-131l-113.128-65.62-112.872 65.62z" fill="#5EB1D9" fill-opacity=".1"/><path d="M1057.73 792.975v-69.476l-59.785-34.67-59.924 34.67v69.476l59.924 34.806 59.785-34.806z" fill="#28324E"/><path d="M930.606 577.263l58.289 33.801v67.749l-58.289 33.934-58.423-33.935v-67.747l58.423-33.802zM1123 465.033l58.29 33.8v67.75L1123 600.516l-58.42-33.934v-67.748l58.42-33.801z" stroke="#28324E" stroke-width="3"/><path d="M1117.59 679.676V610.2l-59.79-34.67-59.923 34.67v69.476l59.923 34.806 59.79-34.806zm16.81 245.47V855.67L1074.61 821l-59.93 34.67v69.476l59.93 34.806 59.79-34.806zm-16.81-471V384.67L1057.8 350l-59.923 34.67v69.476l59.923 34.806 59.79-34.806zm-64.13 113.299v-69.476L993.67 463.3l-59.924 34.669v69.476l59.924 34.807 59.79-34.807zm192.39 112.231V610.2l-59.79-34.67-59.92 34.67v69.476l59.92 34.806 59.79-34.806z" fill="#28324E"/><path d="M1074.92 797.854l79.01 45.87v91.922l-79.01 46.052-79.18-46.052v-91.922" stroke="#28324E" stroke-width="3" stroke-dasharray="7 7"/><circle cx="1073.23" cy="797.319" r="8.016" fill="#28324E"/><circle cx="995.205" cy="842.211" r="8.016" fill="#28324E"/><path d="M1305.4 46.807v69.476l-59.79 34.669-59.93-34.669V46.807L1245.61 12l59.79 34.806z" fill="#497FA1"/><path d="M1241.18 159.023v69.475l-59.79 34.67-59.92-34.67v-69.475l59.92-34.807 59.79 34.807z" fill="#497FA1" fill-opacity=".6"/><path d="M1374.61 373.665l58.29-33.8v-67.749l-58.29-33.934-58.43 33.935v67.747l58.43 33.801zm0 451.554l58.29-33.8V723.67l-58.29-33.934-58.43 33.935v67.747l58.43 33.801zm-64-563.952l58.29-33.8v-67.75l-58.29-33.933-58.43 33.934v67.748l58.43 33.801z" stroke="#4980A3" stroke-width="3"/><path d="M1434.4 46.807v69.476l-59.79 34.669-59.93-34.669V46.807L1374.61 12l59.79 34.806z" fill="#5EB1D9"/><path d="M1369.59 384.856v69.475l-59.79 34.67-59.92-34.67v-69.475l59.92-34.807 59.79 34.807z" fill="#5EB1D9" fill-opacity=".5"/><path d="M1176.4 270.855v69.476L1116.61 375l-59.93-34.669v-69.476l59.93-34.806 59.79 34.806z" fill="#497FA1" fill-opacity=".3"/><path d="M1369.59 610.807v69.476l-59.79 34.67-59.92-34.67v-69.476l59.92-34.806 59.79 34.806z" fill="#30567A" fill-opacity=".6"/><path d="M1305.4 270.855v69.476L1245.61 375l-59.93-34.669v-69.476l59.93-34.806 59.79 34.806z" fill="#5EB1D9" fill-opacity=".3"/><path d="M1305.4 497.807v69.476l-59.79 34.67-59.93-34.67v-69.476l59.93-34.806 59.79 34.806z" fill="#497FA1" fill-opacity=".6"/><path d="M1564.4 270.807v69.476l-59.79 34.67-59.93-34.67v-69.476l59.93-34.806 59.79 34.806z" fill="#497FA1"/><path d="M1499.4 158.855v69.476L1439.61 263l-59.93-34.669v-69.476l59.93-34.806 59.79 34.806z" fill="#497FA1" fill-opacity=".6"/><path d="M1499.4 384.807v69.476l-59.79 34.67-59.93-34.67v-69.476l59.93-34.806 59.79 34.806z" fill="#5EB1D9"/><path d="M1499.4 835.807v69.476l-59.79 34.67-59.93-34.67v-69.476l59.93-34.806 59.79 34.806zm-65 114v69.473l-59.79 34.67-59.93-34.67v-69.473l59.93-34.806 59.79 34.806z" fill="#5EB1D9" fill-opacity=".4"/><path d="M765.777 1381.8l82.338 47.83v95.86l-82.338 48.01-82.527-48.01v-95.86l82.527-47.83z" stroke="#345575" stroke-width="3"/><circle cx="765.683" cy="1382.09" r="8.09" fill="#345575"/><circle cx="765.683" cy="1572.2" r="8.09" fill="#345575"/><circle cx="683.773" cy="1429.62" r="8.09" fill="#345575"/><circle cx="683.773" cy="1524.67" r="8.09" fill="#345575"/><circle cx="847.593" cy="1429.62" r="8.09" fill="#345575"/><circle cx="847.593" cy="1524.67" r="8.09" fill="#345575"/><path d="M641.894 859.561l106.642 61.942v124.147l-106.642 62.19-106.885-62.19V921.504l106.885-61.943z" stroke="#345575" stroke-width="3"/><circle cx="641.772" cy="860.435" r="10.435" fill="#345575"/><circle cx="641.772" cy="1105.66" r="10.435" fill="#345575"/><circle cx="536.118" cy="921.741" r="10.435" fill="#345575"/><circle cx="536.118" cy="1044.35" r="10.435" fill="#345575"/><circle cx="747.427" cy="921.741" r="10.435" fill="#345575"/><circle cx="747.427" cy="1044.35" r="10.435" fill="#345575"/><path d="M763.887 1092.02l106.641 61.94v124.15l-106.641 62.18-106.885-62.18v-124.15l106.885-61.94z" stroke="#345575" stroke-width="3"/><circle cx="763.765" cy="1092.89" r="10.435" fill="#345575"/><circle cx="763.765" cy="1338.12" r="10.435" fill="#345575"/><circle cx="658.111" cy="1154.2" r="10.435" fill="#345575"/><circle cx="658.111" cy="1276.81" r="10.435" fill="#345575"/><circle cx="869.42" cy="1154.2" r="10.435" fill="#345575"/><circle cx="869.42" cy="1276.81" r="10.435" fill="#345575"/><path d="M1206.89 1125.56l106.65 61.94v124.15l-106.65 62.18-106.88-62.18V1187.5l106.88-61.94z" stroke="#345575" stroke-width="3"/><circle cx="1206.77" cy="1126.44" r="10.435" fill="#345575"/><circle cx="1206.77" cy="1371.66" r="10.435" fill="#345575"/><circle cx="1101.12" cy="1187.74" r="10.435" fill="#345575"/><circle cx="1101.12" cy="1310.35" r="10.435" fill="#345575"/><circle cx="1312.43" cy="1187.74" r="10.435" fill="#345575"/><circle cx="1312.43" cy="1310.35" r="10.435" fill="#345575"/><path d="M1115.68 758.394v146.5L1242.04 978l126.64-73.106v-146.5L1242.04 685l-126.36 73.394z" fill="#5EB1D9" fill-opacity=".25"/><path d="M770.671 950.352v78.498l67.424 39.18 67.576-39.18v-78.498l-67.576-39.327-67.424 39.327z" fill="#5EB1D9" fill-opacity=".1"/><path d="M1080.92 589.044l127.13 73.845v148.002l-127.13 74.136-127.428-74.137v-148l127.428-73.846z" stroke="#47799A" stroke-width="3"/><circle cx="1080.77" cy="590.413" r="12.412" fill="#47799A"/><circle cx="1080.77" cy="882.106" r="12.412" fill="#47799A"/><circle cx="955.095" cy="663.336" r="12.412" fill="#47799A"/><circle cx="955.095" cy="809.183" r="12.412" fill="#47799A"/><circle cx="1206.45" cy="663.336" r="12.412" fill="#47799A"/><circle cx="1206.45" cy="809.183" r="12.412" fill="#47799A"/><circle cx="611.273" cy="434.301" r="17.951" transform="rotate(19.515 611.273 434.301)" fill="#07318B"/><circle cx="320.455" cy="270.111" r="17.116" transform="rotate(19.515 320.455 270.111)" fill="#07318B"/><circle cx="540.583" cy="766.23" r="17.951" transform="rotate(19.515 540.583 766.23)" fill="#07318B"/><circle cx="336.986" cy="555.887" r="17.951" transform="rotate(19.515 336.986 555.887)" fill="#07318B"/><circle cx="727.947" cy="408.773" r="11.689" transform="rotate(19.515 727.947 408.773)" fill="#07318B"/><circle cx="624.908" cy="579.535" r="11.689" transform="rotate(19.515 624.908 579.535)" fill="#07318B"/><circle cx="462.897" cy="726.739" r="11.689" transform="rotate(19.515 462.897 726.739)" fill="#07318B"/><circle cx="465.47" cy="884.439" r="11.689" transform="rotate(19.515 465.47 884.439)" fill="#07318B"/><circle cx="275.812" cy="817.222" r="11.689" transform="rotate(19.515 275.812 817.222)" fill="#07318B"/><circle cx="277.563" cy="612.332" r="11.689" transform="rotate(19.515 277.563 612.332)" fill="#07318B"/><circle cx="646.917" cy="784.87" r="11.689" transform="rotate(19.515 646.917 784.87)" fill="#07318B"/><circle cx="598.534" cy="241.552" r="11.689" transform="rotate(19.515 598.534 241.552)" fill="#07318B"/><circle cx="494.574" cy="124.985" r="11.689" transform="rotate(19.515 494.574 124.985)" fill="#07318B"/><circle cx="396.814" cy="225.866" r="11.689" transform="rotate(19.515 396.814 225.866)" fill="#07318B"/><circle cx="534.166" cy="378.184" r="11.689" transform="rotate(19.515 534.166 378.184)" fill="#07318B"/><circle cx="839.816" cy="498.026" r="13.359" transform="rotate(19.515 839.816 498.026)" fill="#07318B"/><circle cx="781.715" cy="764.437" r="13.359" transform="rotate(19.515 781.715 764.437)" fill="#07318B"/><circle cx="767.876" cy="616.03" r="11.689" transform="rotate(19.515 767.876 616.03)" fill="#07318B"/><circle cx="791.49" cy="638.13" r="16.281" transform="rotate(19.515 791.49 638.13)" fill="#07318B"/><circle cx="673.042" cy="869.866" r="16.281" transform="rotate(19.515 673.042 869.866)" fill="#07318B"/><circle cx="581.717" cy="937.595" r="12.941" transform="rotate(19.515 581.717 937.595)" fill="#07318B"/><circle cx="727.177" cy="253.484" r="13.359" transform="rotate(19.515 727.177 253.484)" fill="#07318B"/><circle cx="778.874" cy="368.803" r="15.446" transform="rotate(19.515 778.874 368.803)" fill="#07318B"/><circle cx="584.373" cy="180.284" r="15.446" transform="rotate(19.515 584.373 180.284)" fill="#07318B"/><path d="M493.927 124.312l-95.489 99.472-76.725 182.745m-43.63 409.284l1.543-.736m0 0l184.451-87.92-186.769-115.355 2.318 203.275zm562.018-315.961l-58.609 265.345" stroke="#07318B" stroke-width="2"/><path d="M792.81 638.154L540.583 766.229" stroke="#07318B" stroke-width="3"/><path d="M778.989 369.728L583.701 180.931l-89.774-56.619 105.001 117.379-200.146-15.128 136.196 150.581m0 0l192.043 31.743-100.006 170.951-92.037-202.694z" stroke="#07318B" stroke-width="2"/><path d="M585.324 178.85l143.288 75.585 51.049 114.646 60.499 131.724" stroke="#07318B" stroke-width="3"/><path d="M321.078 272.104l265.452-94.156 24.251 261.494" stroke="#07318B" stroke-width="3"/><path d="M542.55 766.926l69.117-332.486m0 0L337.684 553.918 321.292 267.75l290.375 166.69z" stroke="#07318B" stroke-width="3"/><path d="M728.193 255.616l.122 154.617 112.796 89.138m0 0L769.475 615.27l22.408 23 49.228-138.899z" stroke="#07318B" stroke-width="2"/><path d="M783.367 368.621l-170.126 66.377 179.012 204.73-8.886-271.107z" stroke="#07318B" stroke-width="3"/><path d="M785.511 766.224l-115.607 95-90.229 79.634-113.418-56.141-2.572-157.7-13.995-189.208 174.94 42.512 145.632 35.226-40.741-206.217-129.552-166.827 130.381 10.776" stroke="#07318B" stroke-width="2"/><path d="M542.157 766.787L212.97 795.835l124.943-240.064 204.244 211.016z" stroke="#07318B" stroke-width="3"/><path d="M585.299 180.17l-272.148-61.906 182.464 7.532m177.567 743.676l-253.254 98.479m0 0l46.862-83.488 181.332-100.495-65.987 152.447-162.207 31.536zm-79.122-411.597l-188.481-45.54 125.491 102.053-124.911 56.269 60.483 125.519" stroke="#07318B" stroke-width="2"/><path d="M178.258 725.069l43.414-208.724 128.067 133.527-171.481 75.197z" stroke="#07318B" stroke-width="2"/><path d="M436.715 490.691l-215.462 26.835-71.34-74.89 72.329-61.618 10.677-125.101 162.655-20.304m-31.398 600.968L526.72 689.123l20.663 206.63-183.207-59.172zm305.766-110.429l13.56 149.193-135.7 19.228 122.14-168.421z" stroke="#07318B" stroke-width="2"/><path d="M365.937 995.321l75.252-118.603 131.623 105.998m0 0L685.38 873.795l6.971-124.643-119.539 233.564z" stroke="#07318B" stroke-width="2"/><path d="M985.327 23.99v46.937l-40.391 23.422-40.484-23.422V23.99L944.936.476l40.391 23.514z" fill="#497FA1" fill-opacity=".6"/><path d="M1075.47 168.436l38.89-22.553v-45.21l-38.89-22.642-38.99 22.643v45.208l38.99 22.554zm0 305.06l38.89-22.553v-45.21l-38.89-22.641-38.99 22.642v45.208l38.99 22.554zm-43.24-380.994l38.89-22.553V24.74l-38.89-22.642-38.985 22.643v45.208l38.985 22.554zm-175.065-.362l38.893-22.553v-45.21L857.165 1.735l-38.982 22.643v45.208l38.982 22.554zm263.005 305.999l38.89-22.553v-45.21l-38.89-22.641-38.99 22.642v45.208l38.99 22.554zm87-305.999l38.89-22.553v-45.21l-38.89-22.642-38.99 22.643v45.208l38.99 22.554z" stroke="#4980A3" stroke-width="3"/><path d="M1072.08 176.558v46.937l-40.4 23.422-40.479-23.422v-46.937l40.479-23.514 40.4 23.514z" fill="#5EB1D9"/><path d="M941.558 99.541v46.937L901.166 169.9l-40.483-23.422V99.541l40.483-23.514 40.392 23.514z" fill="#497FA1" fill-opacity=".3"/><path d="M1072.08 329.206v46.937l-40.4 23.422-40.479-23.422v-46.937l40.479-23.514 40.4 23.514z" fill="#30567A" fill-opacity=".6"/><path d="M1115.56 252.514v46.937l-40.39 23.422-40.49-23.422v-46.937L1075.17 229l40.39 23.514z" fill="#497FA1"/><path d="M1028.71 99.541v46.937L988.316 169.9l-40.483-23.422V99.541l40.483-23.514 40.394 23.514z" fill="#5EB1D9"/><path d="M1028.71 252.866v46.936l-40.394 23.422-40.483-23.422v-46.936l40.483-23.515 40.394 23.515z" fill="#497FA1" fill-opacity=".6"/><path d="M1203.68 99.51v46.936l-40.39 23.422-40.48-23.422V99.509l40.48-23.514 40.39 23.514z" fill="#497FA1"/><path d="M1159.77 23.877v46.936l-40.39 23.422-40.48-23.422V23.877L1119.38.362l40.39 23.515z" fill="#497FA1" fill-opacity=".6"/><path d="M1159.77 176.525v46.937l-40.39 23.422-40.48-23.422v-46.937l40.48-23.514 40.39 23.514z" fill="#5EB1D9"/><path d="M1159.77 481.211v46.937l-40.39 23.422-40.48-23.422v-46.937l40.48-23.514 40.39 23.514z" fill="#5EB1D9" fill-opacity=".4"/><path d="M1401.67 403.852l69.22 40.203v80.584L1401.67 565l-69.37-40.362v-80.582l69.37-40.204z" stroke="#5397BC" stroke-width="3"/><circle cx="1401.59" cy="403.824" r="6.824" fill="#5397BC"/><circle cx="1401.59" cy="564.176" r="6.824" fill="#5397BC"/><circle cx="1332.51" cy="443.912" r="6.824" fill="#5397BC"/><circle cx="1332.51" cy="524.088" r="6.824" fill="#5397BC"/><circle cx="1470.68" cy="443.912" r="6.824" fill="#5397BC"/><circle cx="1470.68" cy="524.088" r="6.824" fill="#5397BC"/><path d="M949.674 445.852l69.216 40.203v80.584L949.674 607l-69.373-40.362v-80.582l69.373-40.204z" stroke="#5397BC" stroke-width="3"/><circle cx="949.595" cy="445.824" r="6.824" fill="#5397BC"/><circle cx="949.595" cy="606.177" r="6.824" fill="#5397BC"/><circle cx="880.506" cy="485.912" r="6.824" fill="#5397BC"/><circle cx="880.506" cy="566.089" r="6.824" fill="#5397BC"/><circle cx="1018.68" cy="485.912" r="6.824" fill="#5397BC"/><circle cx="1018.68" cy="566.089" r="6.824" fill="#5397BC"/></svg>