<svg width="356" height="307" fill="none" xmlns="http://www.w3.org/2000/svg"><path fill="#EEE" d="M89.723 257.211h232.071v4.314H89.723zm7.302 8.627H224.5l42.5 41.158h-5.5l-38-36.844H97.025v-4.314zm-72.006-67.294V10.471h4.313v188.073H25.02z"/><path d="M31.92 199.407l53.38 53.378 7.012 7.013-13.824-.201-10.936-.158-35.271-35.271-.36-24.761z" fill="#EEE"/><path fill="#EEE" d="M33.645 10.472h4.314v214.817h-4.314z"/><path d="M25.019 198.145l3.05-3.05 72.006 72.006c-1.19 1.192-1.859 1.859-3.05 3.051L25.02 198.145zM19.413 45.414l5.608-5.608v85.409l-5.608-5.608V45.414zm-1.298 114.74l5.608-5.608v52.626h-5.608v-47.018z" fill="#EEE"/><path d="M14.667 207.175v-46.587l8.195-8.196V126.51L12.51 116.158v-22" stroke="#EEE"/><path d="M20.705 151.527l-6.039 6.039v-6.902l6.039-6.039v6.902zm2.588-112.585l-6.04 6.04v-6.903l6.04-6.039v6.902zm0-9.488l-6.04 6.039V28.59l6.04-6.039v6.902zm0-9.492l-6.04 6.04V19.1l6.04-6.04v6.902z" fill="#EEE"/><circle cx="8.196" cy="35.923" r="3.02" fill="#EEE"/><circle cx="3.02" cy="110.116" r="3.02" fill="#EEE"/><path d="M8.196 35.924v31.92L3.02 73.022v37.097" stroke="#EEE"/><path fill="#EEE" d="M12.078 91.568h.863v.863h-.863zm0-2.589h.863v.863h-.863zm0-2.585h.863v.863h-.863zm0-2.589h.863v.863h-.863z"/><path d="M20.705 127.803v8.628L4.745 120.47v-4.313l3.451-3.451v-28.47l2.157-2.157v35.372l10.352 10.352zM265.716 14.79H33.645v-4.313h232.071zm-7.303-8.628h-70.312V1.85h70.312v4.313zm72.007 67.293v188.073h-4.314V73.455h4.314z" fill="#EEE"/><path d="M323.52 72.592l-53.378-53.378-7.013-7.012 13.824.2 10.936.159 35.272 35.27.359 24.761z" fill="#EEE"/><path fill="#EEE" d="M321.793 261.528h-4.314V46.711h4.314z"/><path d="M330.42 73.856l-3.05 3.05-72.007-72.007 3.05-3.05 72.007 72.007zm5.606 152.73l-5.607 5.608v-85.41l5.607 5.608v74.194zm1.297-114.74l-5.607 5.607V64.827h5.607v47.019z" fill="#EEE"/><path d="M340.773 64.828v46.587l-8.196 8.195v25.882l10.353 10.353v21.999" stroke="#EEE"/><path d="M334.734 120.473l6.039-6.04v6.902l-6.039 6.039v-6.901zm-2.587 112.584l6.039-6.039v6.902l-6.039 6.039v-6.902zm0 9.49l6.039-6.039v6.901l-6.039 6.039v-6.901zm0 9.491l6.039-6.039v6.902l-6.039 6.039v-6.902z" fill="#EEE"/><circle cx="347.242" cy="236.077" r="3.02" transform="rotate(-180 347.242 236.077)" fill="#EEE"/><circle cx="352.419" cy="161.883" r="3.02" transform="rotate(-180 352.419 161.883)" fill="#EEE"/><path d="M347.243 236.076v-31.92l5.176-5.177v-37.096" stroke="#EEE"/><path fill="#EEE" d="M343.36 180.432h-.863v-.863h.863zm0 2.589h-.863v-.863h.863zm0 2.588h-.863v-.863h.863zm0 2.586h-.863v-.863h.863z"/><path d="M334.734 144.198v-8.627l15.96 15.96v4.314l-3.451 3.451v28.469l-2.156 2.157v-35.371l-10.353-10.353z" fill="#EEE"/><mask id="a" style="mask-type:alpha" maskUnits="userSpaceOnUse" x="37" y="14" width="281" height="244"><path d="M317.913 257.519H90.154l-52.626-52.626V14.231h228.19l52.195 52.195V257.52z" fill="#8E8E8E"/></mask><g mask="url(#a)"><path d="M317.913 257.519H90.154l-52.626-52.626V14.231h228.19l52.195 52.195V257.52z" fill="#EAB2A5"/></g></svg>