<svg width="180" height="161" fill="none" xmlns="http://www.w3.org/2000/svg"><path d="M179.194 42.5c0 4.45-1.326 8.8-3.81 12.5a22.592 22.592 0 01-10.147 8.287 22.708 22.708 0 01-13.062 1.28 22.638 22.638 0 01-11.576-6.157 22.464 22.464 0 01-6.188-11.52 22.396 22.396 0 011.287-13 22.523 22.523 0 018.327-10.098 22.707 22.707 0 0121.213-2.08 22.62 22.62 0 017.335 4.877 22.497 22.497 0 014.901 7.3 22.411 22.411 0 011.72 8.611z" fill="url(#paint0_radial_2054_35345)"/><path style="mix-blend-mode:lighten" opacity=".5" d="M155.394 42.5c0 2.107-.628 4.168-1.804 5.92a10.704 10.704 0 01-4.806 3.925 10.758 10.758 0 01-6.188.607 10.727 10.727 0 01-5.483-2.917 10.645 10.645 0 01-2.931-5.457 10.608 10.608 0 01.61-6.157 10.665 10.665 0 013.944-4.783 10.744 10.744 0 0110.048-.985 10.722 10.722 0 013.474 2.31c.994.99 1.783 2.165 2.321 3.458.538 1.293.815 2.679.815 4.078z" fill="url(#paint1_radial_2054_35345)"/><path style="mix-blend-mode:lighten" opacity=".5" d="M175.89 34.804a8.99 8.99 0 01-1.528 5.007 9.044 9.044 0 01-4.065 3.318 9.096 9.096 0 01-5.232.512 9.066 9.066 0 01-4.636-2.468 9 9 0 01-2.478-4.614 8.97 8.97 0 01.516-5.207 9.02 9.02 0 013.335-4.044 9.09 9.09 0 0111.436 1.122 9.01 9.01 0 012.652 6.374z" fill="url(#paint2_radial_2054_35345)"/><g clip-path="url(#clip0_2054_35345)"><path d="M78.712 143.054l-16.747-16.667 23.446-6.666 13.398 23.333" fill="url(#paint3_radial_2054_35345)"/><path d="M34.857 126.387c-7.226 0-13.084-5.83-13.084-13.021V49.72c0-7.191 5.858-13.02 13.084-13.02h20.097c-7.226 0-7.226 89.687 0 89.687H34.857z" fill="url(#paint4_radial_2054_35345)"/><path d="M142.668 36.668H54.955c-7.226 0-13.084 5.83-13.084 13.02v63.647c0 7.191 5.858 13.02 13.084 13.02h27.11l16.746 16.667 16.748-16.667h27.109c7.226 0 13.084-5.829 13.084-13.02V49.689c0-7.191-5.858-13.021-13.084-13.021z" fill="url(#paint5_radial_2054_35345)"/><path d="M100.874 88.81v6.858c0 2.209-1.8 4-4.02 4-2.22 0-4.019-1.791-4.019-4v-9.334c0-2.945 2.4-5.333 5.36-5.333 6.058 0 10.942-5.002 10.71-11.082-.212-5.539-4.754-10.047-10.32-10.244a10.717 10.717 0 00-10.697 7.72 4.034 4.034 0 01-4.347 2.912c-2.602-.3-4.09-2.694-3.359-5.198 2.289-7.827 9.59-13.53 18.214-13.44 10.149.106 18.45 8.37 18.554 18.47.098 9.491-6.923 17.369-16.076 18.672zm-4.02 13.524c-2.22 0-4.019 1.791-4.019 4 0 2.21 1.8 4 4.02 4 2.22 0 4.019-1.79 4.019-4 0-2.209-1.8-4-4.02-4z" fill="#fff"/></g><mask id="a" fill="#fff"><path d="M53.591 26.667c0 14.727-11.997 26.666-26.796 26.666C11.998 53.333 0 41.394 0 26.667 0 11.939 11.997 0 26.796 0 41.593 0 53.59 11.94 53.59 26.667zm-37.514 0c0 5.89 4.799 10.666 10.718 10.666 5.92 0 10.719-4.775 10.719-10.666S32.715 16 26.795 16c-5.919 0-10.718 4.776-10.718 10.667z"/></mask><g filter="url(#filter0_i_2054_35345)"><path d="M53.591 26.667c0 14.727-11.997 26.666-26.796 26.666C11.998 53.333 0 41.394 0 26.667 0 11.939 11.997 0 26.796 0 41.593 0 53.59 11.94 53.59 26.667zm-37.514 0c0 5.89 4.799 10.666 10.718 10.666 5.92 0 10.719-4.775 10.719-10.666S32.715 16 26.795 16c-5.919 0-10.718 4.776-10.718 10.667z" fill="#F1F1F1" fill-opacity=".1"/><path d="M53.591 26.667c0 14.727-11.997 26.666-26.796 26.666C11.998 53.333 0 41.394 0 26.667 0 11.939 11.997 0 26.796 0 41.593 0 53.59 11.94 53.59 26.667zm-37.514 0c0 5.89 4.799 10.666 10.718 10.666 5.92 0 10.719-4.775 10.719-10.666S32.715 16 26.795 16c-5.919 0-10.718 4.776-10.718 10.667z" fill="url(#paint6_radial_2054_35345)"/></g><path d="M53.591 26.667c0 14.727-11.997 26.666-26.796 26.666C11.998 53.333 0 41.394 0 26.667 0 11.939 11.997 0 26.796 0 41.593 0 53.59 11.94 53.59 26.667zm-37.514 0c0 5.89 4.799 10.666 10.718 10.666 5.92 0 10.719-4.775 10.719-10.666S32.715 16 26.795 16c-5.919 0-10.718 4.776-10.718 10.667z" stroke="url(#paint7_linear_2054_35345)" stroke-opacity=".1" stroke-width="2" mask="url(#a)"/><defs><radialGradient id="paint0_radial_2054_35345" cx="0" cy="0" r="1" gradientUnits="userSpaceOnUse" gradientTransform="matrix(33.0289 0 0 32.8701 156.585 34.341)"><stop stop-color="#fff"/><stop offset=".27" stop-color="#FCFCFC"/><stop offset=".48" stop-color="#F2F2F2"/><stop offset=".68" stop-color="#E0E0E0"/><stop offset=".87" stop-color="#C9C9C9"/><stop offset="1" stop-color="#B4B4B4"/></radialGradient><radialGradient id="paint1_radial_2054_35345" cx="0" cy="0" r="1" gradientUnits="userSpaceOnUse" gradientTransform="matrix(15.6454 0 0 15.5702 144.686 38.635)"><stop stop-color="#fff"/><stop offset=".27" stop-color="#FCFCFC"/><stop offset=".48" stop-color="#F2F2F2"/><stop offset=".68" stop-color="#E0E0E0"/><stop offset=".87" stop-color="#C9C9C9"/><stop offset="1" stop-color="#B4B4B4"/></radialGradient><radialGradient id="paint2_radial_2054_35345" cx="0" cy="0" r="1" gradientUnits="userSpaceOnUse" gradientTransform="matrix(13.2308 0 0 13.1672 166.833 31.537)"><stop stop-color="#fff"/><stop offset=".27" stop-color="#FCFCFC"/><stop offset=".48" stop-color="#F2F2F2"/><stop offset=".68" stop-color="#E0E0E0"/><stop offset=".87" stop-color="#C9C9C9"/><stop offset="1" stop-color="#B4B4B4"/></radialGradient><radialGradient id="paint3_radial_2054_35345" cx="0" cy="0" r="1" gradientUnits="userSpaceOnUse" gradientTransform="matrix(35.3026 0 0 15.124 70.1 123.001)"><stop stop-color="#FFEFB3"/><stop offset=".623" stop-color="#FFD0A3"/><stop offset=".973" stop-color="#FFCB9B"/></radialGradient><radialGradient id="paint4_radial_2054_35345" cx="0" cy="0" r="1" gradientUnits="userSpaceOnUse" gradientTransform="matrix(31.7924 0 0 58.133 29.1 49.309)"><stop stop-color="#FFF2C2"/><stop offset=".623" stop-color="#FFD8B3"/><stop offset=".973" stop-color="#FFCB9B"/></radialGradient><radialGradient id="paint5_radial_2054_35345" cx="0" cy="0" r="1" gradientUnits="userSpaceOnUse" gradientTransform="rotate(95.094 18.86 110.203) scale(86.0771 68.7111)"><stop stop-color="#FFA447"/><stop offset=".512" stop-color="#FF9729"/><stop offset=".976" stop-color="#FF8A57"/></radialGradient><radialGradient id="paint6_radial_2054_35345" cx="0" cy="0" r="1" gradientUnits="userSpaceOnUse" gradientTransform="rotate(-147.151 26.806 14.72) scale(22.7824 31.6262)"><stop stop-color="#E7E3D7"/><stop offset="1" stop-color="#CCE6DB"/></radialGradient><linearGradient id="paint7_linear_2054_35345" x1="48.41" y1="48.09" x2="59.082" y2="48.09" gradientUnits="userSpaceOnUse"><stop stop-color="#8BA7BE"/><stop offset="1" stop-color="#BBC5CD"/></linearGradient><clipPath id="clip0_2054_35345"><path fill="#fff" transform="translate(21.773 26.668)" d="M0 0h133.977v133.333H0z"/></clipPath><filter id="filter0_i_2054_35345" x="0" y="0" width="53.591" height="53.834" filterUnits="userSpaceOnUse" color-interpolation-filters="sRGB"><feFlood flood-opacity="0" result="BackgroundImageFix"/><feBlend in="SourceGraphic" in2="BackgroundImageFix" result="shape"/><feColorMatrix in="SourceAlpha" values="0 0 0 0 0 0 0 0 0 0 0 0 0 0 0 0 0 0 127 0" result="hardAlpha"/><feOffset dy=".5"/><feGaussianBlur stdDeviation="1"/><feComposite in2="hardAlpha" operator="arithmetic" k2="-1" k3="1"/><feColorMatrix values="0 0 0 0 1 0 0 0 0 1 0 0 0 0 1 0 0 0 0.4 0"/><feBlend in2="shape" result="effect1_innerShadow_2054_35345"/></filter></defs></svg>