<svg width="1891" height="2178" fill="none" xmlns="http://www.w3.org/2000/svg"><path d="M1710.32 596.677l-106.65-61.942V410.588l106.65-62.186 106.88 62.187v124.145l-106.88 61.943z" stroke="#345575" stroke-width="3"/><circle cx="1710.44" cy="595.801" r="10.435" transform="rotate(180 1710.44 595.801)" fill="#345575"/><circle cx="1710.44" cy="350.579" r="10.435" transform="rotate(180 1710.44 350.579)" fill="#345575"/><circle cx="1816.09" cy="534.495" r="10.435" transform="rotate(180 1816.09 534.495)" fill="#345575"/><circle cx="1816.09" cy="411.884" r="10.435" transform="rotate(180 1816.09 411.884)" fill="#345575"/><circle cx="1604.78" cy="534.495" r="10.435" transform="rotate(180 1604.78 534.495)" fill="#345575"/><circle cx="1604.78" cy="411.884" r="10.435" transform="rotate(180 1604.78 411.884)" fill="#345575"/><path d="M1132.51 1618.73v69.47l59.79 34.67 59.93-34.67v-69.47l-59.93-34.81-59.79 34.81z" fill="#28324E"/><path d="M1067.25 1946.67l-58.29-33.8v-67.75l58.29-33.94 58.42 33.94v67.75l-58.42 33.8z" stroke="#28324E" stroke-width="3"/><path d="M1136.79 1844.25v69.48l59.79 34.67 59.92-34.67v-69.48l-59.92-34.8-59.79 34.8z" fill="#28324E"/><path d="M1071.59 1721.8l-66.81-37.41-71.61 41.69-1.603 81.76 73.213 43.29" stroke="#28324E" stroke-width="3" stroke-dasharray="7 7"/><circle cx="1004.78" cy="1851.67" r="8.016" transform="rotate(180 1004.78 1851.67)" fill="#28324E"/><circle cx="1067.85" cy="1720.2" r="8.016" transform="rotate(180 1067.85 1720.2)" fill="#28324E"/><path d="M951.549 999.434v69.836l60.101 34.85 60.23-34.85v-69.836l-60.23-34.986-60.101 34.986z" fill="#28324E"/><path d="M1079.33 1216.27l-58.6-33.98v-68.11l58.6-34.11 58.73 34.11v68.11l-58.73 33.98zm-193.385 112.8l-58.597-33.97v-68.11l58.597-34.11 58.732 34.11v68.1l-58.732 33.98z" stroke="#28324E" stroke-width="3"/><path d="M934.269 994.53l-79.413-46.107v-92.396l79.413-46.289 79.591 46.289v92.396" stroke="#28324E" stroke-width="3" stroke-dasharray="7 7"/><path d="M891.384 1340.01v69.83l60.097 34.85 60.229-34.85v-69.83l-60.229-34.99-60.097 34.99zm64.463-113.88v69.83l60.093 34.85 60.24-34.85v-69.83l-60.24-34.99-60.093 34.99zM762.46 1113.32v69.83l60.096 34.85 60.233-34.85v-69.83l-60.233-34.99-60.096 34.99z" fill="#28324E"/><path d="M890.31 1103.04l-67.148-37.6-71.983 41.9-1.612 82.19 73.595 43.51" stroke="#28324E" stroke-width="3" stroke-dasharray="7 7"/><circle cx="823.162" cy="1233.58" r="8.058" transform="rotate(180 823.162 1233.58)" fill="#28324E"/><circle cx="935.971" cy="995.067" r="8.058" transform="rotate(180 935.971 995.067)" fill="#28324E"/><circle cx="886.549" cy="1101.43" r="8.058" transform="rotate(180 886.549 1101.43)" fill="#28324E"/><circle cx="1014.4" cy="949.944" r="8.058" transform="rotate(180 1014.4 949.944)" fill="#28324E"/><path d="M629.603 631.748v69.476l59.788 34.67 59.924-34.67v-69.476l-59.924-34.806-59.788 34.806z" fill="#364F6C"/><path d="M756.73 847.459l-58.289-33.8V745.91l58.289-33.934 58.423 33.935v67.747l-58.423 33.801z" stroke="#28324E" stroke-width="3"/><path d="M564.335 959.689l-58.289-33.8V858.14l58.289-33.934 58.423 33.935v67.747l-58.423 33.801z" stroke="#477699" stroke-width="3"/><path d="M569.747 745.047v69.476l59.788 34.67 59.924-34.67v-69.476l-59.924-34.806-59.788 34.806z" fill="#31445F"/><path d="M569.747 517.545v69.476l59.788 34.67 59.924-34.67v-69.476l-59.924-34.806-59.788 34.806zm0 453.031v69.474l59.788 34.67 59.924-34.67v-69.474l-59.924-34.806-59.788 34.806z" fill="#324662"/><path d="M633.878 857.277v69.476l59.788 34.67 59.925-34.67v-69.476l-59.925-34.806-59.788 34.806z" fill="#375270"/><path d="M441.483 745.047v69.476l59.788 34.67 59.925-34.67v-69.476l-59.925-34.806-59.788 34.806z" fill="#31445F"/><path d="M568.678 734.824l-66.804-37.41L430.26 739.1l-1.603 81.767 73.217 43.289" stroke="#28324E" stroke-width="3" stroke-dasharray="7 7"/><circle cx="501.874" cy="864.691" r="8.016" transform="rotate(180 501.874 864.691)" fill="#324662"/><circle cx="564.937" cy="733.221" r="8.016" transform="rotate(180 564.937 733.221)" fill="#324662"/><path d="M1139.51 321.124v-69.476l59.79-34.67 59.93 34.67v69.476l-59.93 34.806-59.79-34.806z" fill="#2C3852"/><path d="M1122.32 326.002l-79 45.871v91.922l79 46.051 79.19-46.051v-91.922" stroke="#28324E" stroke-width="3" stroke-dasharray="7 7"/><circle cx="8.016" cy="8.016" r="8.016" transform="matrix(-1 0 0 1 1132.03 317.451)" fill="#28324E"/><circle cx="8.016" cy="8.016" r="8.016" transform="matrix(-1 0 0 1 1210.06 362.343)" fill="#28324E"/><path d="M800.683 442.974v-69.476l59.788-34.669 59.924 34.669v69.476l-59.924 34.806-59.788-34.806zM927.81 227.263l-58.289 33.8v67.75l58.289 33.933 58.423-33.934v-67.748l-58.423-33.801z" stroke="#28324E" stroke-width="3"/><path d="M783.491 447.853l-79.006 45.871v91.922l79.006 46.051 79.186-46.051v-91.922" stroke="#28324E" stroke-width="3" stroke-dasharray="7 7"/><path d="M740.827 329.675v-69.476l59.788-34.67 59.924 34.67v69.476l-59.924 34.806-59.788-34.806zm0-225.529V34.67L800.615 0l59.924 34.67v69.476l-59.924 34.806-59.788-34.806zM612.563 329.675v-69.476l59.789-34.67 59.924 34.67v69.476l-59.924 34.806-59.789-34.806z" fill="#28324E"/><path d="M739.758 339.898l-66.804 37.41-71.614-41.686-1.603-81.768 73.217-43.289" stroke="#28324E" stroke-width="3" stroke-dasharray="7 7"/><circle cx="8.016" cy="8.016" r="8.016" transform="matrix(-1 0 0 1 680.97 202.015)" fill="#28324E"/><circle cx="8.016" cy="8.016" r="8.016" transform="matrix(-1 0 0 1 793.201 439.302)" fill="#28324E"/><circle cx="8.016" cy="8.016" r="8.016" transform="matrix(-1 0 0 1 744.033 333.485)" fill="#28324E"/><circle cx="8.016" cy="8.016" r="8.016" transform="matrix(-1 0 0 1 871.228 484.194)" fill="#28324E"/><path d="M500.271 1380.88v-69.47l59.788-34.67 59.924 34.67v69.47l-59.924 34.81-59.788-34.81z" fill="#28324E"/><path d="M627.398 1165.17l-58.289 33.8v67.75l58.289 33.93 58.423-33.93v-67.75l-58.423-33.8zm-192.395-112.23l-58.289 33.8v67.75l58.289 33.93 58.423-33.93v-67.75l-58.423-33.8z" stroke="#28324E" stroke-width="3"/><path d="M483.079 1385.76l-79.006 45.87v91.92l79.006 46.05 79.186-46.05v-91.92" stroke="#28324E" stroke-width="3" stroke-dasharray="7 7"/><path d="M440.415 1267.58v-69.47l59.788-34.67 59.924 34.67v69.47l-59.924 34.81-59.788-34.81zm0-225.53v-69.473l59.788-34.67 59.924 34.67v69.473l-59.924 34.81-59.788-34.81zm64.131 113.3v-69.47l59.788-34.67 59.925 34.67v69.47l-59.925 34.81-59.788-34.81zm-192.395 112.23v-69.47l59.788-34.67 59.925 34.67v69.47l-59.925 34.81-59.788-34.81z" fill="#28324E"/><path d="M439.346 1277.8l-66.804 37.41-71.614-41.68-1.603-81.77 73.217-43.29" stroke="#28324E" stroke-width="3" stroke-dasharray="7 7"/><circle cx="8.016" cy="8.016" r="8.016" transform="matrix(-1 0 0 1 380.558 1139.92)" fill="#28324E"/><circle cx="8.016" cy="8.016" r="8.016" transform="matrix(-1 0 0 1 492.789 1377.21)" fill="#28324E"/><circle cx="8.016" cy="8.016" r="8.016" transform="matrix(-1 0 0 1 443.621 1271.39)" fill="#28324E"/><circle cx="8.016" cy="8.016" r="8.016" transform="matrix(-1 0 0 1 570.815 1422.1)" fill="#28324E"/><path d="M820.512 1748.44v-69.48l59.788-34.67 59.925 34.67v69.48l-59.925 34.8-59.788-34.8z" fill="#2D3A55"/><path d="M947.64 1532.73l-58.289 33.8v67.75l58.289 33.93 58.42-33.93v-67.75l-58.42-33.8z" stroke="#28324E" stroke-width="3"/><path d="M755.245 1420.5l-58.289 33.8v67.75l58.289 33.93 58.423-33.93v-67.75l-58.423-33.8z" stroke="#2C3752" stroke-width="3"/><path d="M760.656 1635.14v-69.48l59.789-34.67 59.924 34.67v69.48l-59.924 34.81-59.789-34.81zm0-225.53v-69.48l59.789-34.67 59.924 34.67v69.48l-59.924 34.81-59.789-34.81zm64.132 113.3v-69.48l59.788-34.67 59.924 34.67v69.48l-59.924 34.81-59.788-34.81zm-192.395 112.23v-69.48l59.788-34.67 59.924 34.67v69.48l-59.924 34.81-59.788-34.81z" fill="#2D3A55"/><path d="M759.587 1645.36l-66.803 37.41-71.614-41.68-1.603-81.77 73.217-43.29" stroke="#28324E" stroke-width="3" stroke-dasharray="7 7"/><circle cx="8.016" cy="8.016" r="8.016" transform="matrix(-1 0 0 1 700.8 1507.48)" fill="#2D3A55"/><circle cx="8.016" cy="8.016" r="8.016" transform="matrix(-1 0 0 1 763.863 1638.95)" fill="#2D3A55"/><circle cx="8.016" cy="8.016" r="8.016" transform="matrix(-1 0 0 1 891.057 1789.66)" fill="#2D3A55"/><path d="M631.371 1409.79v-69.5l59.932-34.69 60.068 34.69v69.5l-60.068 34.81-59.932-34.81z" fill="#2D3A55"/><circle cx="20.974" cy="20.974" r="20.974" transform="scale(-1 1) rotate(57.478 -1318.257 209.939)" fill="#07318B"/><circle cx="19.999" cy="19.999" r="19.999" transform="scale(-1 1) rotate(57.478 -1066.075 -106.466)" fill="#07318B"/><circle cx="20.974" cy="20.974" r="20.974" transform="scale(-1 1) rotate(57.478 -1702.577 60.507)" fill="#07318B"/><circle cx="20.974" cy="20.974" r="20.974" transform="scale(-1 1) rotate(57.478 -1410.65 -142.704)" fill="#07318B"/><circle cx="13.658" cy="13.658" r="13.658" transform="scale(-1 1) rotate(57.478 -1320.696 357.854)" fill="#07318B"/><circle cx="13.658" cy="13.658" r="13.658" transform="scale(-1 1) rotate(57.478 -1505.423 201.015)" fill="#07318B"/><circle cx="13.658" cy="13.658" r="13.658" transform="scale(-1 1) rotate(57.478 -1650.418 -21.956)" fill="#07318B"/><circle cx="13.658" cy="13.658" r="13.658" transform="scale(-1 1) rotate(57.478 -1840.05 -49.587)" fill="#07318B"/><circle cx="13.658" cy="13.658" r="13.658" transform="scale(-1 1) rotate(57.478 -1722.499 -263.96)" fill="#07318B"/><circle cx="13.658" cy="13.658" r="13.658" transform="scale(-1 1) rotate(57.478 -1477.105 -221.953)" fill="#07318B"/><circle cx="13.658" cy="13.658" r="13.658" transform="scale(-1 1) rotate(57.478 -1755.979 187.42)" fill="#07318B"/><circle cx="13.658" cy="13.658" r="13.658" transform="scale(-1 1) rotate(57.478 -1094.94 235.216)" fill="#07318B"/><circle cx="13.658" cy="13.658" r="13.658" transform="scale(-1 1) rotate(57.478 -934.886 133.237)" fill="#07318B"/><circle cx="13.658" cy="13.658" r="13.658" transform="scale(-1 1) rotate(57.478 -1036.836 -3.658)" fill="#07318B"/><circle cx="13.658" cy="13.658" r="13.658" transform="scale(-1 1) rotate(57.478 -1246.27 131.406)" fill="#07318B"/><circle cx="15.609" cy="15.609" r="15.609" transform="scale(-1 1) rotate(57.478 -1446.77 473.831)" fill="#07318B"/><circle cx="15.609" cy="15.609" r="15.609" transform="scale(-1 1) rotate(57.478 -1754.97 352.263)" fill="#07318B"/><circle cx="13.658" cy="13.658" r="13.658" transform="scale(-1 1) rotate(57.478 -1577.037 365.372)" fill="#07318B"/><circle cx="19.023" cy="19.023" r="19.023" transform="scale(-1 1) rotate(57.478 -1600.573 387.182)" fill="#07318B"/><circle cx="19.023" cy="19.023" r="19.023" transform="scale(-1 1) rotate(57.478 -1855.423 199.985)" fill="#07318B"/><circle cx="15.121" cy="15.121" r="15.121" transform="scale(-1 1) rotate(57.478 -1924.376 78.873)" fill="#07318B"/><circle cx="15.609" cy="15.609" r="15.609" transform="scale(-1 1) rotate(57.478 -1131.55 386.372)" fill="#07318B"/><circle cx="18.048" cy="18.048" r="18.048" transform="scale(-1 1) rotate(57.478 -1276.478 424.907)" fill="#07318B"/><circle cx="18.048" cy="18.048" r="18.048" transform="scale(-1 1) rotate(57.478 -1012.5 228.357)" fill="#07318B"/><path d="M324.217 867.665l159.462 22.999L685.71 1003.86m334.38 345.67l-1.95.44m0 0l-233.113 51.58 89.137-240.51 143.976 188.93zm-744.837 112.9l244.714 202.31" stroke="#07318B" stroke-width="2"/><path d="M418.226 1555.85l324.407-63.32" stroke="#07318B" stroke-width="3"/><path d="M238.017 1298.64l44.197-314.29 42.003-116.684-12.358 183.604L485.36 893.471l-17.231 236.609m0 0l-154.092 167.28 214.999 85.6-60.907-252.88z" stroke="#07318B" stroke-width="2"/><path d="M279.222 983.6l-77.668 172.62 35.378 142.3 38.949 164.83" stroke="#07318B" stroke-width="3"/><path d="M589.674 879.572L277.463 983.636l165.615 258.314" stroke="#07318B" stroke-width="3"/><path d="M741.322 1494.59l-302.652-256.6m0 0l338.27-86.87-190.59-275.403-147.68 362.273z" stroke="#07318B" stroke-width="3"/><path d="M202.789 1157.01l111.022 142.52-39.837 163.19m0 0l149.296 55.27-4.111 37.3-145.185-92.57z" stroke="#07318B" stroke-width="2"/><path d="M233.191 1300.77l204.43-61.14-17.751 317.27-186.679-256.13z" stroke="#07318B" stroke-width="3"/><path d="M517 1668.58l174.779 4.42 140.358 8.5 64.127-133.24-110.98-147.12-123.106-184.36-130.597 164.91-108.837 137.12-110.692-219.25-.569-246.8-112.361 103.64" stroke="#07318B" stroke-width="2"/><path d="M741.585 1494.18l324.125-209.85-287.649-131.34-36.476 341.19z" stroke="#07318B" stroke-width="3"/><path d="M280.193 984.798L486.4 732.157l-162.672 138.09m370.964 812.703l304.081-91.31m0 0l-103.178-43.23-239.276 37.76 170.362 93.01 172.092-87.54zm-222.958-436.03l140.896-177.432-42.25 184.212 155.509-37.95 34.51 159.1" stroke="#07318B" stroke-width="2"/><path d="M1046.82 1194.19l-190.016-161.07-22 215.05 212.016-53.98z" stroke="#07318B" stroke-width="2"/><path d="M640.267 1164.05l217.771-130.14 11.89-120.27-110.919-4.774-99.755-107.569-164.432 98.208m460.884 531.045l-255.723-19.01 129.485 205.2 126.238-186.19zM594.662 1548.6l94.744 147.18 138.827-79.83-233.571-67.35z" stroke="#07318B" stroke-width="2"/><path d="M1068.18 1578.04l-154.569-55.16-45.062 192.25m0 0l-181.986-19.43-96.012-109.81 277.998 129.24z" stroke="#07318B" stroke-width="2"/><path d="M1594.31 868.531l-106.64-61.941V682.443l106.64-62.186 106.88 62.186v124.146l-106.88 61.942z" stroke="#345575" stroke-width="3"/><circle cx="1594.43" cy="867.657" r="10.435" transform="rotate(180 1594.43 867.657)" fill="#345575"/><circle cx="1594.43" cy="622.435" r="10.435" transform="rotate(180 1594.43 622.435)" fill="#345575"/><circle cx="1700.09" cy="806.352" r="10.435" transform="rotate(180 1700.09 806.352)" fill="#345575"/><circle cx="1700.09" cy="683.74" r="10.435" transform="rotate(180 1700.09 683.74)" fill="#345575"/><circle cx="1488.78" cy="806.352" r="10.435" transform="rotate(180 1488.78 806.352)" fill="#345575"/><circle cx="1488.78" cy="683.74" r="10.435" transform="rotate(180 1488.78 683.74)" fill="#345575"/><path d="M998.522 708.644l166.288 96.427v193.251l-166.288 96.808-166.67-96.809V805.072l166.67-96.428z" stroke="#487D9E" stroke-opacity=".3" stroke-width="3"/><circle cx="831.395" cy="997.81" r="15.638" fill="#487D9E" fill-opacity=".3"/><circle cx="998.202" cy="1092.05" r="15.638" fill="#487D9E" fill-opacity=".3"/><circle cx="998.202" cy="712.045" r="15.638" fill="#487D9E" fill-opacity=".3"/><circle cx="1162.92" cy="997.81" r="15.638" fill="#487D9E" fill-opacity=".3"/><circle cx="831.395" cy="807.083" r="15.638" fill="#487D9E" fill-opacity=".3"/><circle cx="1162.92" cy="807.083" r="15.638" fill="#487D9E" fill-opacity=".3"/><path d="M1383.9 829.727v69.476l-59.79 34.67-59.92-34.67v-69.476l59.92-34.806 59.79 34.806z" fill="#28324E"/><path d="M1256.77 1045.44l58.29-33.8v-67.751l-58.29-33.934-58.42 33.935v67.75l58.42 33.8zm192.4 112.23l58.29-33.8v-67.75l-58.29-33.93-58.43 33.93v67.75l58.43 33.8z" stroke="#28324E" stroke-width="3"/><path d="M1443.76 943.026v69.474l-59.79 34.67-59.93-34.67v-69.474l59.93-34.806 59.79 34.806zm16.8-245.47v69.475l-59.79 34.67-59.92-34.67v-69.475l59.92-34.807 59.79 34.807zm-16.8 471.004v69.47l-59.79 34.67-59.93-34.67v-69.47l59.93-34.81 59.79 34.81zm-64.13-113.3v69.47l-59.79 34.67-59.93-34.67v-69.47l59.93-34.81 59.79 34.81zm192.39-112.234v69.474l-59.79 34.67-59.92-34.67v-69.474l59.92-34.806 59.79 34.806z" fill="#28324E"/><path d="M1401.09 824.848l79.01-45.871v-91.922l-79.01-46.051-79.18 46.051v91.922" stroke="#28324E" stroke-width="3" stroke-dasharray="7 7"/><circle cx="8.016" cy="8.016" r="8.016" transform="matrix(1 0 0 -1 1391.38 833.399)" fill="#28324E"/><circle cx="8.016" cy="8.016" r="8.016" transform="matrix(1 0 0 -1 1313.36 788.507)" fill="#28324E"/><path d="M1312.9 1177.18v69.47l-59.79 34.67-59.92-34.67v-69.47l59.92-34.81 59.79 34.81z" fill="#28324E"/><path d="M1182.77 1392.42l58.29-33.8v-67.75l-58.29-33.94-58.42 33.94v67.75l58.42 33.8zm195.4 112.7l58.29-33.8v-67.75l-58.29-33.94-58.42 33.94v67.75l58.42 33.8z" stroke="#28324E" stroke-width="3"/><path d="M1372.76 1290.47v69.48l-59.79 34.67-59.93-34.67v-69.48l59.93-34.8 59.79 34.8zm0 225.53v69.48l-59.79 34.67-59.93-34.67V1516l59.93-34.8 59.79 34.8zm-64.13-113.3v69.48l-59.79 34.67-59.93-34.67v-69.48l59.93-34.8 59.79 34.8zm192.39-112.23v69.48l-59.79 34.67-59.92-34.67v-69.48l59.92-34.8 59.79 34.8z" fill="#28324E"/><path d="M1181.39 1250.15v-81.2l71.91-41.18 71.61 39.5v82.88" stroke="#28324E" stroke-width="3" stroke-dasharray="7 7"/><circle cx="8.016" cy="8.016" r="8.016" transform="scale(1 -1) rotate(60 1751.588 523.538)" fill="#28324E"/><circle cx="8.016" cy="8.016" r="8.016" transform="scale(1 -1) rotate(60 1678.893 397.626)" fill="#28324E"/><g opacity=".2"><path d="M1505.77 1252.44l58.29 33.8v67.75l-58.29 33.93-58.42-33.93v-67.75l58.42-33.8zm-64 563.95l58.29 33.8v67.75l-58.29 33.94-58.42-33.94v-67.75l58.42-33.8z" stroke="#4980A3" stroke-width="3"/><path d="M1500.76 1466.85v-69.47l-59.79-34.67-59.93 34.67v69.47l59.93 34.81 59.79-34.81z" fill="#30567A" fill-opacity=".6"/><path d="M1500.76 2142.85v-69.47l-59.79-34.67-59.93 34.67v69.47l59.93 34.81 59.79-34.81z" fill="#497FA1"/><path d="M1436.56 1579.85v-69.47l-59.79-34.67-59.92 34.67v69.47l59.92 34.81 59.79-34.81z" fill="#497FA1" fill-opacity=".6"/><path d="M1630.56 1692.85v-69.47l-59.79-34.67-59.92 34.67v69.47l59.92 34.81 59.79-34.81z" fill="#5EB1D9"/><path d="M1630.56 1241.85v-69.47l-59.79-34.67-59.92 34.67v69.47l59.92 34.81 59.79-34.81z" fill="#5EB1D9" fill-opacity=".4"/></g><g opacity=".7"><path d="M1631.56 1575.89v-69.47l-59.79-34.67-59.92 34.67v69.47l59.92 34.81 59.79-34.81z" fill="#497FA1"/><path d="M1700.77 1249.04l58.29 33.8v67.75l-58.29 33.93-58.42-33.94v-67.74l58.42-33.8zm0-451.558l58.29 33.801v67.749l-58.29 33.934-58.42-33.935v-67.747l58.42-33.802zm-64 563.948l58.29 33.81v67.74l-58.29 33.94-58.42-33.94v-67.74l58.42-33.81z" stroke="#4980A3" stroke-width="3"/><path d="M1760.56 1575.89v-69.47l-59.79-34.67-59.92 34.67v69.47l59.92 34.81 59.79-34.81z" fill="#5EB1D9"/><path d="M1695.76 1237.85v-69.48l-59.79-34.67-59.93 34.67v69.48l59.93 34.8 59.79-34.8z" fill="#5EB1D9" fill-opacity=".5"/><path d="M1502.56 1351.85v-69.48l-59.79-34.67-59.92 34.67v69.48l59.92 34.8 59.79-34.8z" fill="#497FA1" fill-opacity=".3"/><path d="M1695.76 1011.89v-69.472l-59.79-34.669-59.93 34.669v69.472l59.93 34.81 59.79-34.81z" fill="#30567A" fill-opacity=".6"/><path d="M1631.56 1351.85v-69.48l-59.79-34.67-59.92 34.67v69.48l59.92 34.8 59.79-34.8z" fill="#5EB1D9" fill-opacity=".3"/><path d="M1631.56 1124.89v-69.47l-59.79-34.67-59.92 34.67v69.47l59.92 34.81 59.79-34.81z" fill="#497FA1" fill-opacity=".6"/><path d="M1890.56 1351.89v-69.47l-59.79-34.67-59.92 34.67v69.47l59.92 34.81 59.79-34.81z" fill="#497FA1"/><path d="M1825.56 1463.85v-69.48l-59.79-34.67-59.92 34.67v69.48l59.92 34.8 59.79-34.8z" fill="#497FA1" fill-opacity=".6"/><path d="M1825.56 1237.89v-69.47l-59.79-34.67-59.92 34.67v69.47l59.92 34.81 59.79-34.81z" fill="#5EB1D9"/><path d="M1825.56 786.895v-69.476l-59.79-34.67-59.92 34.67v69.476l59.92 34.806 59.79-34.806z" fill="#5EB1D9" fill-opacity=".4"/></g><path d="M1563.92 641.913v51l-43.89 25.45-43.99-25.45v-51l43.99-25.55 43.89 25.55z" fill="#497FA1"/><path d="M1516.78 724.287v51.001l-43.88 25.45-43.99-25.45v-51.001l43.99-25.55 43.88 25.55z" fill="#497FA1" fill-opacity=".6"/><path d="M1614.73 881.39l42.39-24.581v-49.274l-42.39-24.677-42.49 24.678v49.272l42.49 24.582zm0 331.47l42.39-24.58v-49.27l-42.39-24.68-42.49 24.68v49.27l42.49 24.58zm-46.98-413.979l42.39-24.58v-49.274l-42.39-24.678-42.49 24.679V774.3l42.49 24.581z" stroke="#4980A3" stroke-width="3"/><path d="M1658.62 641.913v51l-43.89 25.45-43.99-25.45v-51l43.99-25.55 43.89 25.55zm-47.58 248.152v51l-43.89 25.45-43.98-25.45v-51l43.98-25.55 43.89 25.55z" fill="#5EB1D9"/><path d="M1469.23 806.38v51.001l-43.89 25.45-43.99-25.45V806.38l43.99-25.55 43.89 25.55z" fill="#497FA1" fill-opacity=".3"/><path d="M1611.04 1055.93v51l-43.89 25.45-43.98-25.45v-51l43.98-25.55 43.89 25.55z" fill="#30567A" fill-opacity=".6"/><path d="M1611.04 559.697v51l-43.89 25.45-43.98-25.45v-51l43.98-25.55 43.89 25.55z" fill="#497FA1"/><path d="M1563.92 806.38v51.001l-43.89 25.45-43.99-25.45V806.38l43.99-25.55 43.89 25.55z" fill="#5EB1D9"/><path d="M1563.92 972.979v51.001l-43.89 25.45-43.99-25.45v-51.001l43.99-25.55 43.89 25.55z" fill="#497FA1" fill-opacity=".6"/><path d="M1754.04 806.346v51l-43.88 25.45-43.99-25.45v-51l43.99-25.551 43.88 25.551z" fill="#497FA1"/><path d="M1706.33 724.164v51.001l-43.89 25.45-43.99-25.45v-51.001l43.99-25.55 43.89 25.55z" fill="#497FA1" fill-opacity=".6"/><path d="M1706.33 890.03v51l-43.89 25.45-43.99-25.45v-51l43.99-25.551 43.89 25.551z" fill="#5EB1D9"/><path d="M1706.33 1221.1v51l-43.89 25.45-43.99-25.45v-51l43.99-25.56 43.89 25.56z" fill="#5EB1D9" fill-opacity=".4"/><path d="M747.609 299.45v51l43.889 25.45 43.988-25.45v-51l-43.988-25.55-43.889 25.55z" fill="#497FA1" fill-opacity=".6"/><path d="M649.667 456.552l-42.39-24.581v-49.273l42.39-24.678 42.488 24.679v49.271l-42.488 24.582zm0 331.472l-42.39-24.58V714.17l42.39-24.678 42.488 24.679v49.272l-42.488 24.581zm46.981-413.98l-42.39-24.581v-49.274l42.39-24.677 42.487 24.678v49.272l-42.487 24.582z" stroke="#4980A3" stroke-width="3"/><path d="M653.349 465.227v51.001l43.889 25.45 43.989-25.45v-51.001l-43.989-25.55-43.889 25.55z" fill="#5EB1D9"/><path d="M795.168 381.543v51l43.888 25.45 43.989-25.45v-51l-43.989-25.55-43.888 25.55z" fill="#497FA1" fill-opacity=".3"/><path d="M653.349 631.092v51l43.889 25.45 43.989-25.45v-51l-43.989-25.55-43.889 25.55z" fill="#30567A" fill-opacity=".6"/><path d="M700.472 381.543v51l43.889 25.45 43.989-25.45v-51l-43.989-25.55-43.889 25.55z" fill="#5EB1D9"/><path d="M700.472 548.142v51l43.889 25.45 43.989-25.45v-51l-43.989-25.55-43.889 25.55z" fill="#497FA1" fill-opacity=".6"/><path d="M510.348 381.508v51l43.889 25.45 43.988-25.45v-51l-43.988-25.55-43.889 25.55z" fill="#497FA1"/><path d="M558.063 299.327v51l43.888 25.45 43.989-25.45v-51l-43.989-25.55-43.888 25.55z" fill="#497FA1" fill-opacity=".6"/><path d="M558.063 465.192v51.001l43.888 25.45 43.989-25.45v-51.001l-43.989-25.55-43.888 25.55z" fill="#5EB1D9"/><path d="M558.063 796.258v51l43.888 25.45 43.989-25.45v-51l-43.989-25.551-43.888 25.551z" fill="#5EB1D9" fill-opacity=".4"/><path d="M1438.56 1658.3v-146.5l-126.35-73.11-126.65 73.11v146.5l126.65 73.39 126.35-73.39z" fill="#5EB1D9" fill-opacity=".25"/><path d="M1435.8 896.12l-71.66-41.619v-83.423l71.66-41.783 71.81 41.784V854.5l-71.81 41.62z" stroke="#437090" stroke-width="3"/><circle cx="1435.88" cy="896.09" r="7.059" transform="rotate(180 1435.88 896.09)" fill="#437090"/><circle cx="1435.88" cy="730.207" r="7.059" transform="rotate(180 1435.88 730.207)" fill="#437090"/><circle cx="1507.35" cy="854.619" r="7.059" transform="rotate(180 1507.35 854.619)" fill="#437090"/><circle cx="1507.35" cy="771.677" r="7.059" transform="rotate(180 1507.35 771.677)" fill="#437090"/><circle cx="1364.41" cy="854.619" r="7.059" transform="rotate(180 1364.41 854.619)" fill="#437090"/><circle cx="1364.41" cy="771.677" r="7.059" transform="rotate(180 1364.41 771.677)" fill="#437090"/><path d="M1435.8 1221.12l-71.66-41.62v-83.42l71.66-41.78 71.81 41.78v83.42l-71.81 41.62z" stroke="#437090" stroke-width="3"/><circle cx="1435.88" cy="1221.09" r="7.059" transform="rotate(180 1435.88 1221.09)" fill="#437090"/><circle cx="1435.88" cy="1055.21" r="7.059" transform="rotate(180 1435.88 1055.21)" fill="#437090"/><circle cx="1507.35" cy="1179.62" r="7.059" transform="rotate(180 1507.35 1179.62)" fill="#437090"/><circle cx="1507.35" cy="1096.68" r="7.059" transform="rotate(180 1507.35 1096.68)" fill="#437090"/><circle cx="1364.41" cy="1179.62" r="7.059" transform="rotate(180 1364.41 1179.62)" fill="#437090"/><circle cx="1364.41" cy="1096.68" r="7.059" transform="rotate(180 1364.41 1096.68)" fill="#437090"/><path d="M938.795 378.121l-71.653-41.619v-83.423l71.653-41.783 71.815 41.784v83.421l-71.815 41.62z" stroke="#437090" stroke-width="3"/><circle cx="938.877" cy="378.091" r="7.059" transform="rotate(180 938.877 378.091)" fill="#437090"/><circle cx="938.877" cy="212.208" r="7.059" transform="rotate(180 938.877 212.208)" fill="#437090"/><circle cx="1010.35" cy="336.62" r="7.059" transform="rotate(180 1010.35 336.62)" fill="#437090"/><circle cx="1010.35" cy="253.678" r="7.059" transform="rotate(180 1010.35 253.678)" fill="#437090"/><circle cx="867.407" cy="336.62" r="7.059" transform="rotate(180 867.407 336.62)" fill="#437090"/><circle cx="867.407" cy="253.678" r="7.059" transform="rotate(180 867.407 253.678)" fill="#437090"/><path d="M938.795 692.12l-71.653-41.619v-83.423l71.653-41.783 71.815 41.784V650.5l-71.815 41.62z" stroke="#437090" stroke-width="3"/><circle cx="938.877" cy="692.09" r="7.059" transform="rotate(180 938.877 692.09)" fill="#437090"/><circle cx="938.877" cy="526.207" r="7.059" transform="rotate(180 938.877 526.207)" fill="#437090"/><circle cx="1010.35" cy="650.619" r="7.059" transform="rotate(180 1010.35 650.619)" fill="#437090"/><circle cx="1010.35" cy="567.677" r="7.059" transform="rotate(180 1010.35 567.677)" fill="#437090"/><circle cx="867.407" cy="650.619" r="7.059" transform="rotate(180 867.407 650.619)" fill="#437090"/><circle cx="867.407" cy="567.677" r="7.059" transform="rotate(180 867.407 567.677)" fill="#437090"/><path d="M1364.8 1059.12l-71.66-41.62v-83.422l71.66-41.783 71.81 41.784v83.421l-71.81 41.62z" stroke="#437090" stroke-width="3"/><circle cx="1364.88" cy="1059.09" r="7.059" transform="rotate(180 1364.88 1059.09)" fill="#437090"/><circle cx="1364.88" cy="893.207" r="7.059" transform="rotate(180 1364.88 893.207)" fill="#437090"/><circle cx="1436.35" cy="1017.62" r="7.059" transform="rotate(180 1436.35 1017.62)" fill="#437090"/><circle cx="1436.35" cy="934.677" r="7.059" transform="rotate(180 1436.35 934.677)" fill="#437090"/><circle cx="1293.41" cy="1017.62" r="7.059" transform="rotate(180 1293.41 1017.62)" fill="#437090"/><circle cx="1293.41" cy="934.677" r="7.059" transform="rotate(180 1293.41 934.677)" fill="#437090"/><path d="M484.292 1311.62l-127.135-73.84v-148l127.135-74.14 127.426 74.14v148l-127.426 73.84z" stroke="#5397BC" stroke-width="3"/><circle cx="484.437" cy="1310.25" r="12.412" transform="rotate(180 484.437 1310.25)" fill="#5397BC"/><circle cx="484.437" cy="1018.56" r="12.412" transform="rotate(180 484.437 1018.56)" fill="#5397BC"/><circle cx="610.114" cy="1237.33" r="12.412" transform="rotate(180 610.114 1237.33)" fill="#5397BC"/><circle cx="610.114" cy="1091.48" r="12.412" transform="rotate(180 610.114 1091.48)" fill="#5397BC"/><circle cx="358.761" cy="1237.33" r="12.412" transform="rotate(180 358.761 1237.33)" fill="#5397BC"/><circle cx="358.761" cy="1091.48" r="12.412" transform="rotate(180 358.761 1091.48)" fill="#5397BC"/><path d="M831.292 498.624l-127.135-73.845V276.778l127.135-74.136 127.426 74.137v147.999l-127.426 73.846z" stroke="#5397BC" stroke-width="3"/><circle cx="831.437" cy="497.255" r="12.412" transform="rotate(180 831.437 497.255)" fill="#5397BC"/><circle cx="831.437" cy="205.562" r="12.412" transform="rotate(180 831.437 205.562)" fill="#5397BC"/><circle cx="957.114" cy="424.333" r="12.412" transform="rotate(180 957.114 424.333)" fill="#5397BC"/><circle cx="957.114" cy="278.485" r="12.412" transform="rotate(180 957.114 278.485)" fill="#5397BC"/><circle cx="705.761" cy="424.333" r="12.412" transform="rotate(180 705.761 424.333)" fill="#5397BC"/><circle cx="705.761" cy="278.485" r="12.412" transform="rotate(180 705.761 278.485)" fill="#5397BC"/><g opacity=".5"><path d="M1577.29 1627.9l-127.13-73.84v-148l127.13-74.14 127.43 74.14v148l-127.43 73.84z" stroke="#5397BC" stroke-width="3"/><circle cx="1577.44" cy="1626.54" r="12.412" transform="rotate(180 1577.44 1626.54)" fill="#5397BC"/><circle cx="1577.44" cy="1334.84" r="12.412" transform="rotate(180 1577.44 1334.84)" fill="#5397BC"/><circle cx="1703.11" cy="1553.61" r="12.412" transform="rotate(180 1703.11 1553.61)" fill="#5397BC"/><circle cx="1703.11" cy="1407.77" r="12.412" transform="rotate(180 1703.11 1407.77)" fill="#5397BC"/><circle cx="1451.76" cy="1553.61" r="12.412" transform="rotate(180 1451.76 1553.61)" fill="#5397BC"/><circle cx="1451.76" cy="1407.77" r="12.412" transform="rotate(180 1451.76 1407.77)" fill="#5397BC"/></g></svg>