<svg width="2838" height="3576" viewBox="0 0 2838 3576" fill="none" xmlns="http://www.w3.org/2000/svg">
<path d="M731.001 995.394V1141.89L857.358 1215L984.001 1141.89V995.394L857.358 922L731.001 995.394Z" fill="#5EB1D9" fill-opacity="0.25"/>
<path d="M849.248 1966.89L955.889 2028.83V2152.98L849.248 2215.17L742.363 2152.98V2028.84L849.248 1966.89Z" stroke="#345575" stroke-width="3"/>
<circle cx="849.126" cy="1967.77" r="10.435" fill="#345575"/>
<circle cx="849.126" cy="2212.99" r="10.435" fill="#345575"/>
<circle cx="743.471" cy="2029.07" r="10.435" fill="#345575"/>
<circle cx="743.471" cy="2151.69" r="10.435" fill="#345575"/>
<circle cx="954.781" cy="2029.07" r="10.435" fill="#345575"/>
<circle cx="954.781" cy="2151.69" r="10.435" fill="#345575"/>
<path d="M942.016 2430.26V2360.42L881.92 2325.57L821.687 2360.42V2430.26L881.92 2465.24L942.016 2430.26Z" fill="#28324E"/>
<path d="M814.234 2213.42L872.831 2247.4V2315.51L814.234 2349.62L755.502 2315.51V2247.4L814.234 2213.42Z" stroke="#28324E" stroke-width="3"/>
<path d="M1007.62 2100.62L1066.22 2134.6V2202.7L1007.62 2236.82L948.888 2202.7V2134.6L1007.62 2100.62Z" stroke="#28324E" stroke-width="3"/>
<path d="M959.296 2435.16L1038.71 2481.27V2573.67L959.296 2619.95L879.703 2573.67V2481.27" stroke="#28324E" stroke-width="3" stroke-dasharray="7 7"/>
<path d="M1002.18 2089.68V2019.85L942.085 1985L881.852 2019.85V2089.68L942.085 2124.67L1002.18 2089.68Z" fill="#28324E"/>
<path d="M937.719 2203.57V2133.73L877.622 2098.88L817.389 2133.73V2203.57L877.622 2238.55L937.719 2203.57Z" fill="#28324E"/>
<path d="M1131.11 2316.37V2246.54L1071.01 2211.69L1010.78 2246.54V2316.37L1071.01 2351.36L1131.11 2316.37Z" fill="#28324E"/>
<path d="M1003.26 2326.65L1070.4 2364.25L1142.39 2322.35L1144 2240.16L1070.4 2196.65" stroke="#28324E" stroke-width="3" stroke-dasharray="7 7"/>
<circle cx="1070.4" cy="2196.11" r="8.05778" fill="#28324E"/>
<circle cx="957.595" cy="2434.62" r="8.05778" fill="#28324E"/>
<circle cx="1007.02" cy="2328.26" r="8.05778" fill="#28324E"/>
<circle cx="879.166" cy="2479.75" r="8.05778" fill="#28324E"/>
<path d="M1551.02 2119.26V2049.42L1490.92 2014.57L1430.69 2049.42V2119.26L1490.92 2154.24L1551.02 2119.26Z" fill="#28324E"/>
<path d="M1423.23 1902.42L1481.83 1936.4V2004.51L1423.23 2038.62L1364.5 2004.51V1936.4L1423.23 1902.42Z" stroke="#28324E" stroke-width="3"/>
<path d="M1616.62 1789.62L1675.22 1823.6V1891.7L1616.62 1925.82L1557.89 1891.7V1823.6L1616.62 1789.62Z" stroke="#28324E" stroke-width="3"/>
<path d="M1568.3 2124.16L1647.71 2170.27V2262.67L1568.3 2308.95L1488.7 2262.67V2170.27" stroke="#28324E" stroke-width="3" stroke-dasharray="7 7"/>
<path d="M1611.18 1778.68V1708.85L1551.08 1674L1490.85 1708.85V1778.68L1551.08 1813.67L1611.18 1778.68Z" fill="#28324E"/>
<path d="M1546.72 1892.57V1822.73L1486.62 1787.88L1426.39 1822.73V1892.57L1486.62 1927.55L1546.72 1892.57Z" fill="#28324E"/>
<path d="M1740.11 2005.37V1935.54L1680.01 1900.69L1619.78 1935.54V2005.37L1680.01 2040.36L1740.11 2005.37Z" fill="#28324E"/>
<path d="M1612.26 2015.65L1679.4 2053.25L1751.39 2011.35L1753 1929.16L1679.4 1885.65" stroke="#28324E" stroke-width="3" stroke-dasharray="7 7"/>
<circle cx="1679.4" cy="1885.11" r="8.05778" fill="#28324E"/>
<circle cx="1566.59" cy="2123.62" r="8.05778" fill="#28324E"/>
<circle cx="1616.02" cy="2017.26" r="8.05778" fill="#28324E"/>
<circle cx="1488.17" cy="2168.75" r="8.05778" fill="#28324E"/>
<path d="M1929.96 1931.82V1862.35L1870.17 1827.68L1810.25 1862.35V1931.82L1870.17 1966.63L1929.96 1931.82Z" fill="#364F6C"/>
<path d="M1802.83 1716.11L1861.12 1749.91V1817.66L1802.83 1851.59L1744.41 1817.66V1749.91L1802.83 1716.11Z" stroke="#28324E" stroke-width="3"/>
<path d="M1995.23 1603.88L2053.52 1637.68V1705.43L1995.23 1739.36L1936.81 1705.43V1637.68L1995.23 1603.88Z" stroke="#477699" stroke-width="3"/>
<path d="M1989.82 1818.52V1749.04L1930.03 1714.38L1870.1 1749.04V1818.52L1930.03 1853.33L1989.82 1818.52Z" fill="#31445F"/>
<path d="M1989.82 2046.02V1976.55L1930.03 1941.88L1870.1 1976.55V2046.02L1930.03 2080.83L1989.82 2046.02Z" fill="#324662"/>
<path d="M1989.82 1592.99V1523.52L1930.03 1488.85L1870.1 1523.52V1592.99L1930.03 1627.8L1989.82 1592.99Z" fill="#324662"/>
<path d="M1925.69 1706.29V1636.82L1865.9 1602.15L1805.97 1636.82V1706.29L1865.9 1741.1L1925.69 1706.29Z" fill="#375270"/>
<path d="M2118.08 1818.52V1749.05L2058.29 1714.38L1998.37 1749.05V1818.52L2058.29 1853.33L2118.08 1818.52Z" fill="#31445F"/>
<path d="M1990.89 1828.74L2057.69 1866.15L2129.3 1824.47L2130.91 1742.7L2057.69 1699.41" stroke="#28324E" stroke-width="3" stroke-dasharray="7 7"/>
<circle cx="2057.69" cy="1698.88" r="8.01645" fill="#324662"/>
<circle cx="1994.63" cy="1830.35" r="8.01645" fill="#324662"/>
<path d="M889.925 2573.26L948.214 2607.06V2674.81L889.925 2708.75L831.502 2674.81V2607.06L889.925 2573.26Z" stroke="#28324E" stroke-width="3"/>
<path d="M1082.32 2461.03L1140.61 2494.83V2562.58L1082.32 2596.52L1023.9 2562.58V2494.83L1082.32 2461.03Z" stroke="#477699" stroke-width="3"/>
<path d="M1076.91 2903.18V2833.7L1017.12 2799.03L957.196 2833.7V2903.18L1017.12 2937.98L1076.91 2903.18Z" fill="#324662"/>
<path d="M1076.91 2450.15V2380.67L1017.12 2346L957.196 2380.67V2450.15L1017.12 2484.95L1076.91 2450.15Z" fill="#324662"/>
<path d="M1012.78 2563.44V2493.97L952.988 2459.3L893.064 2493.97V2563.44L952.988 2598.25L1012.78 2563.44Z" fill="#375270"/>
<path d="M1205.17 2675.67V2606.2L1145.38 2571.53L1085.46 2606.2V2675.67L1145.38 2710.48L1205.17 2675.67Z" fill="#31445F"/>
<path d="M1077.98 2685.9L1144.78 2723.31L1216.39 2681.62L1218 2599.86L1144.78 2556.57" stroke="#28324E" stroke-width="3" stroke-dasharray="7 7"/>
<circle cx="1144.78" cy="2556.03" r="8.01645" fill="#324662"/>
<circle cx="1081.72" cy="2687.5" r="8.01645" fill="#324662"/>
<path d="M1420.05 2484.57V2554.05L1360.26 2588.72L1300.34 2554.05V2484.57L1360.26 2449.77L1420.05 2484.57Z" fill="#2C3852"/>
<path d="M1292.92 2700.28L1351.21 2666.48V2598.73L1292.92 2564.8L1234.5 2598.73V2666.48L1292.92 2700.28Z" stroke="#28324E" stroke-width="3"/>
<path d="M1437.24 2479.69L1516.25 2433.82V2341.9L1437.24 2295.85L1358.06 2341.9V2433.82" stroke="#28324E" stroke-width="3" stroke-dasharray="7 7"/>
<path d="M1479.91 2823.4V2892.88L1420.12 2927.55L1360.19 2892.88V2823.4L1420.12 2788.59L1479.91 2823.4Z" fill="#28324E"/>
<path d="M1608.17 2597.87V2667.35L1548.38 2702.02L1488.46 2667.35V2597.87L1548.38 2563.06L1608.17 2597.87Z" fill="#28324E"/>
<path d="M1480.98 2587.65L1547.78 2550.24L1619.39 2591.92L1621 2673.69L1547.78 2716.98" stroke="#28324E" stroke-width="3" stroke-dasharray="7 7"/>
<circle cx="8.01645" cy="8.01645" r="8.01645" transform="matrix(1 0 0 -1 1539.76 2725.53)" fill="#28324E"/>
<circle cx="8.01645" cy="8.01645" r="8.01645" transform="matrix(1 0 0 -1 1427.53 2488.25)" fill="#28324E"/>
<circle cx="8.01645" cy="8.01645" r="8.01645" transform="matrix(1 0 0 -1 1476.7 2594.06)" fill="#28324E"/>
<circle cx="8.01645" cy="8.01645" r="8.01645" transform="matrix(1 0 0 -1 1349.51 2443.35)" fill="#28324E"/>
<path d="M1758.88 2362.72V2432.2L1699.09 2466.87L1639.17 2432.2V2362.72L1699.09 2327.92L1758.88 2362.72Z" stroke="#28324E" stroke-width="3"/>
<path d="M1631.75 2578.43L1690.04 2544.63V2476.88L1631.75 2442.95L1573.33 2476.88V2544.63L1631.75 2578.43Z" stroke="#28324E" stroke-width="3"/>
<path d="M1824.15 2690.66L1882.44 2656.86V2589.11L1824.15 2555.18L1765.72 2589.11V2656.86L1824.15 2690.66Z" stroke="#28324E" stroke-width="3"/>
<path d="M1776.07 2357.84L1855.08 2311.97V2220.05L1776.07 2174L1696.89 2220.05V2311.97" stroke="#28324E" stroke-width="3" stroke-dasharray="7 7"/>
<path d="M1818.74 2476.02V2545.5L1758.95 2580.17L1699.02 2545.5V2476.02L1758.95 2441.21L1818.74 2476.02Z" fill="#28324E"/>
<path d="M1754.61 2588.25V2657.73L1694.82 2692.4L1634.89 2657.73V2588.25L1694.82 2553.44L1754.61 2588.25Z" fill="#28324E"/>
<path d="M1947 2476.02V2545.5L1887.21 2580.17L1827.29 2545.5V2476.02L1887.21 2441.21L1947 2476.02Z" fill="#28324E"/>
<path d="M1819.81 2465.8L1886.61 2428.39L1958.22 2470.07L1959.83 2551.84L1886.61 2595.13" stroke="#28324E" stroke-width="3" stroke-dasharray="7 7"/>
<circle cx="8.01645" cy="8.01645" r="8.01645" transform="matrix(1 0 0 -1 1878.59 2603.68)" fill="#28324E"/>
<circle cx="8.01645" cy="8.01645" r="8.01645" transform="matrix(1 0 0 -1 1766.36 2366.39)" fill="#28324E"/>
<circle cx="8.01645" cy="8.01645" r="8.01645" transform="matrix(1 0 0 -1 1815.53 2472.21)" fill="#28324E"/>
<circle cx="8.01645" cy="8.01645" r="8.01645" transform="matrix(1 0 0 -1 1688.34 2321.5)" fill="#28324E"/>
<path d="M2059.29 1182.69V1252.16L1999.5 1286.83L1939.58 1252.16V1182.69L1999.5 1147.88L2059.29 1182.69Z" fill="#28324E"/>
<path d="M1932.17 1398.4L1990.45 1364.6V1296.85L1932.17 1262.92L1873.74 1296.85V1364.6L1932.17 1398.4Z" stroke="#28324E" stroke-width="3"/>
<path d="M2124.56 1510.63L2182.85 1476.83V1409.08L2124.56 1375.15L2066.14 1409.08V1476.83L2124.56 1510.63Z" stroke="#28324E" stroke-width="3"/>
<path d="M2076.48 1177.81L2155.49 1131.94V1040.02L2076.48 993.965L1997.3 1040.02V1131.94" stroke="#28324E" stroke-width="3" stroke-dasharray="7 7"/>
<path d="M2119.15 1295.99V1365.46L2059.36 1400.13L1999.44 1365.46V1295.99L2059.36 1261.18L2119.15 1295.99Z" fill="#28324E"/>
<path d="M2119.15 1521.52V1590.99L2059.36 1625.66L1999.44 1590.99V1521.52L2059.36 1486.71L2119.15 1521.52Z" fill="#28324E"/>
<path d="M2055.02 1408.22V1477.69L1995.23 1512.36L1935.3 1477.69V1408.22L1995.23 1373.41L2055.02 1408.22Z" fill="#28324E"/>
<path d="M2247.41 1295.99V1365.46L2187.62 1400.13L2127.7 1365.46V1295.99L2187.62 1261.18L2247.41 1295.99Z" fill="#28324E"/>
<path d="M2120.22 1285.76L2187.02 1248.35L2258.64 1290.04L2260.24 1371.81L2187.02 1415.1" stroke="#28324E" stroke-width="3" stroke-dasharray="7 7"/>
<circle cx="8.01645" cy="8.01645" r="8.01645" transform="matrix(1 0 0 -1 2179.01 1423.65)" fill="#28324E"/>
<circle cx="8.01645" cy="8.01645" r="8.01645" transform="matrix(1 0 0 -1 2066.77 1186.36)" fill="#28324E"/>
<circle cx="8.01645" cy="8.01645" r="8.01645" transform="matrix(1 0 0 -1 2115.94 1292.18)" fill="#28324E"/>
<circle cx="8.01645" cy="8.01645" r="8.01645" transform="matrix(1 0 0 -1 1988.75 1141.47)" fill="#28324E"/>
<path d="M1611.92 1030.84L1670.21 997.041V929.291L1611.92 895.358L1553.5 929.292V997.04L1611.92 1030.84Z" stroke="#28324E" stroke-width="3"/>
<path d="M1804.32 1143.07L1862.61 1109.27V1041.52L1804.32 1007.59L1745.9 1041.52V1109.27L1804.32 1143.07Z" stroke="#2C3752" stroke-width="3"/>
<path d="M1798.91 1153.96V1223.43L1739.12 1258.1L1679.19 1223.43V1153.96L1739.12 1119.15L1798.91 1153.96Z" fill="#2D3A55"/>
<path d="M1734.78 1040.66V1110.14L1674.99 1144.81L1615.06 1110.14V1040.66L1674.99 1005.85L1734.78 1040.66Z" fill="#2D3A55"/>
<path d="M1927.17 928.429V997.905L1867.38 1032.57L1807.46 997.905V928.429L1867.38 893.623L1927.17 928.429Z" fill="#2D3A55"/>
<path d="M1799.98 918.206L1866.78 880.796L1938.39 922.482L1940 1004.25L1866.78 1047.54" stroke="#28324E" stroke-width="3" stroke-dasharray="7 7"/>
<circle cx="8.01645" cy="8.01645" r="8.01645" transform="matrix(1 0 0 -1 1858.76 1056.09)" fill="#2D3A55"/>
<circle cx="8.01645" cy="8.01645" r="8.01645" transform="matrix(1 0 0 -1 1795.7 924.619)" fill="#2D3A55"/>
<circle cx="8.01645" cy="8.01645" r="8.01645" transform="matrix(1 0 0 -1 1668.51 773.91)" fill="#2D3A55"/>
<path d="M1928.19 1153.78V1223.28L1868.26 1257.96L1808.19 1223.28V1153.78L1868.26 1118.96L1928.19 1153.78Z" fill="#2D3A55"/>
<path d="M1026.21 2215.56L1132.85 2277.5V2401.65L1026.21 2463.83L919.328 2401.65V2277.5L1026.21 2215.56Z" stroke="#345575" stroke-width="3"/>
<circle cx="1026.09" cy="2216.43" r="10.435" fill="#345575"/>
<circle cx="1026.09" cy="2461.65" r="10.435" fill="#345575"/>
<circle cx="920.437" cy="2277.74" r="10.435" fill="#345575"/>
<circle cx="920.437" cy="2400.35" r="10.435" fill="#345575"/>
<circle cx="1131.75" cy="2277.74" r="10.435" fill="#345575"/>
<circle cx="1131.75" cy="2400.35" r="10.435" fill="#345575"/>
<path d="M1561.04 1854.92L1394.75 1758.5V1565.25L1561.04 1468.44L1727.71 1565.25V1758.5L1561.04 1854.92Z" stroke="#487D9E" stroke-opacity="0.3" stroke-width="3"/>
<circle cx="1728.17" cy="1565.76" r="15.6382" transform="rotate(180 1728.17 1565.76)" fill="#487D9E" fill-opacity="0.3"/>
<circle cx="1561.36" cy="1471.52" r="15.6382" transform="rotate(180 1561.36 1471.52)" fill="#487D9E" fill-opacity="0.3"/>
<circle cx="1561.36" cy="1851.52" r="15.6382" transform="rotate(180 1561.36 1851.52)" fill="#487D9E" fill-opacity="0.3"/>
<circle cx="1396.64" cy="1565.76" r="15.6382" transform="rotate(180 1396.64 1565.76)" fill="#487D9E" fill-opacity="0.3"/>
<circle cx="1728.17" cy="1756.48" r="15.6382" transform="rotate(180 1728.17 1756.48)" fill="#487D9E" fill-opacity="0.3"/>
<circle cx="1396.64" cy="1756.48" r="15.6382" transform="rotate(180 1396.64 1756.48)" fill="#487D9E" fill-opacity="0.3"/>
<path d="M1175.66 1733.84V1664.36L1235.45 1629.69L1295.37 1664.36V1733.84L1235.45 1768.65L1175.66 1733.84Z" fill="#28324E"/>
<path d="M1302.79 1518.13L1244.5 1551.93V1619.68L1302.79 1653.61L1361.21 1619.68V1551.93L1302.79 1518.13Z" stroke="#28324E" stroke-width="3"/>
<path d="M1110.39 1405.9L1052.1 1439.7V1507.45L1110.39 1541.38L1168.82 1507.45V1439.7L1110.39 1405.9Z" stroke="#28324E" stroke-width="3"/>
<path d="M1115.81 1620.54V1551.07L1175.59 1516.4L1235.52 1551.07V1620.54L1175.59 1655.35L1115.81 1620.54Z" fill="#28324E"/>
<path d="M1099 1866.01V1796.54L1158.79 1761.87L1218.71 1796.54V1866.01L1158.79 1900.82L1099 1866.01Z" fill="#28324E"/>
<path d="M1115.81 1395.01V1325.54L1175.59 1290.87L1235.52 1325.54V1395.01L1175.59 1429.82L1115.81 1395.01Z" fill="#28324E"/>
<path d="M1179.94 1508.31V1438.83L1239.73 1404.17L1299.65 1438.83V1508.31L1239.73 1543.12L1179.94 1508.31Z" fill="#28324E"/>
<path d="M987.542 1620.54V1551.07L1047.33 1516.4L1107.25 1551.07V1620.54L1047.33 1655.35L987.542 1620.54Z" fill="#28324E"/>
<path d="M1158.47 1738.72L1079.46 1784.59V1876.51L1158.47 1922.56L1237.66 1876.51V1784.59" stroke="#28324E" stroke-width="3" stroke-dasharray="7 7"/>
<circle cx="8.01645" cy="8.01645" r="8.01645" transform="matrix(-1 0 0 1 1168.18 1730.17)" fill="#28324E"/>
<circle cx="8.01645" cy="8.01645" r="8.01645" transform="matrix(-1 0 0 1 1246.21 1775.06)" fill="#28324E"/>
<path d="M1246.66 1170.84V1101.36L1306.45 1066.69L1366.37 1101.36V1170.84L1306.45 1205.65L1246.66 1170.84Z" fill="#28324E"/>
<path d="M1376.79 955.6L1318.5 989.4V1057.15L1376.79 1091.08L1435.21 1057.15V989.401L1376.79 955.6Z" stroke="#28324E" stroke-width="3"/>
<path d="M1181.39 842.898L1123.1 876.699V944.448L1181.39 978.382L1239.82 944.447V876.7L1181.39 842.898Z" stroke="#28324E" stroke-width="3"/>
<path d="M1186.81 1057.54V988.065L1246.59 953.396L1306.52 988.065V1057.54L1246.59 1092.35L1186.81 1057.54Z" fill="#28324E"/>
<path d="M1058.54 1057.54V988.065L1118.33 953.396L1178.25 988.065V1057.54L1118.33 1092.35L1058.54 1057.54Z" fill="#28324E"/>
<path d="M1378.17 1097.87L1378.17 1179.07L1306.26 1220.25L1234.65 1180.75L1234.65 1097.87" stroke="#28324E" stroke-width="3" stroke-dasharray="7 7"/>
<circle cx="8.01645" cy="8.01645" r="8.01645" transform="matrix(-0.5 0.866025 0.866025 0.5 1230.37 1092.87)" fill="#28324E"/>
<circle cx="8.01645" cy="8.01645" r="8.01645" transform="matrix(-0.5 0.866025 0.866025 0.5 1375.76 1092.87)" fill="#28324E"/>
<g opacity="0.2">
<path d="M1123 424.673V494.149L1182.79 528.818L1242.71 494.149V424.673L1182.79 389.866L1123 424.673Z" fill="#497FA1"/>
<path d="M1187.21 536.889V606.364L1247 641.034L1306.92 606.364V536.889L1247 502.082L1187.21 536.889Z" fill="#497FA1" fill-opacity="0.6"/>
<path d="M1053.79 751.531L995.5 717.731V649.981L1053.79 616.048L1112.21 649.982V717.73L1053.79 751.531Z" stroke="#4980A3" stroke-width="3"/>
<path d="M1053.79 1203.08L995.5 1169.28V1101.54L1053.79 1067.6L1112.21 1101.54V1169.28L1053.79 1203.08Z" stroke="#4980A3" stroke-width="3"/>
<path d="M1117.79 639.133L1059.5 605.332V537.583L1117.79 503.649L1176.21 537.584V605.331L1117.79 639.133Z" stroke="#4980A3" stroke-width="3"/>
<path d="M994 424.673V494.149L1053.79 528.818L1113.71 494.149V424.673L1053.79 389.866L994 424.673Z" fill="#5EB1D9"/>
<path d="M1252 648.721V718.196L1311.79 752.866L1371.71 718.196V648.721L1311.79 613.914L1252 648.721Z" fill="#497FA1" fill-opacity="0.3"/>
<path d="M1058.81 988.673V1058.15L1118.59 1092.82L1178.52 1058.15V988.673L1118.59 953.866L1058.81 988.673Z" fill="#30567A" fill-opacity="0.6"/>
<path d="M1058.81 312.673V382.149L1118.59 416.818L1178.52 382.149V312.673L1118.59 277.866L1058.81 312.673Z" fill="#497FA1"/>
<path d="M1123 648.721V718.196L1182.79 752.866L1242.71 718.196V648.721L1182.79 613.914L1123 648.721Z" fill="#5EB1D9" fill-opacity="0.3"/>
<path d="M864 648.673V718.149L923.788 752.818L983.712 718.149V648.673L923.788 613.866L864 648.673Z" fill="#497FA1"/>
<path d="M929 536.721V606.196L988.788 640.866L1048.71 606.196V536.721L988.788 501.914L929 536.721Z" fill="#497FA1" fill-opacity="0.6"/>
<path d="M929 1213.67V1283.15L988.788 1317.82L1048.71 1283.15V1213.67L988.788 1178.87L929 1213.67Z" fill="#5EB1D9" fill-opacity="0.4"/>
</g>
<g opacity="0.7">
<path d="M1240 2117.81V2187.28L1299.79 2221.95L1359.71 2187.28V2117.81L1299.79 2083L1240 2117.81Z" fill="#497FA1"/>
<path d="M1170.79 2444.66L1112.5 2410.86V2343.12L1170.79 2309.18L1229.21 2343.12V2410.86L1170.79 2444.66Z" stroke="#4980A3" stroke-width="3"/>
<path d="M1170.79 2896.22L1112.5 2862.42V2794.67L1170.79 2760.73L1229.21 2794.67V2862.42L1170.79 2896.22Z" stroke="#4980A3" stroke-width="3"/>
<path d="M1234.79 2332.27L1176.5 2298.47V2230.72L1234.79 2196.78L1293.21 2230.72V2298.47L1234.79 2332.27Z" stroke="#4980A3" stroke-width="3"/>
<path d="M1111 2117.81V2187.28L1170.79 2221.95L1230.71 2187.28V2117.81L1170.79 2083L1111 2117.81Z" fill="#5EB1D9"/>
<path d="M1175.81 2455.85V2525.33L1235.59 2560L1295.52 2525.33V2455.85L1235.59 2421.05L1175.81 2455.85Z" fill="#5EB1D9" fill-opacity="0.5"/>
<path d="M1369 2341.85V2411.33L1428.79 2446L1488.71 2411.33V2341.85L1428.79 2307.05L1369 2341.85Z" fill="#497FA1" fill-opacity="0.3"/>
<path d="M1175.81 2005.81V2075.28L1235.59 2109.95L1295.52 2075.28V2005.81L1235.59 1971L1175.81 2005.81Z" fill="#497FA1"/>
<path d="M1240 2341.85V2411.33L1299.79 2446L1359.71 2411.33V2341.85L1299.79 2307.05L1240 2341.85Z" fill="#5EB1D9" fill-opacity="0.3"/>
<path d="M1240 2568.81V2638.28L1299.79 2672.95L1359.71 2638.28V2568.81L1299.79 2534L1240 2568.81Z" fill="#497FA1" fill-opacity="0.6"/>
<path d="M981 2341.81V2411.28L1040.79 2445.95L1100.71 2411.28V2341.81L1040.79 2307L981 2341.81Z" fill="#497FA1"/>
<path d="M1046 2229.85V2299.33L1105.79 2334L1165.71 2299.33V2229.85L1105.79 2195.05L1046 2229.85Z" fill="#497FA1" fill-opacity="0.6"/>
<path d="M1046 2455.81V2525.28L1105.79 2559.95L1165.71 2525.28V2455.81L1105.79 2421L1046 2455.81Z" fill="#5EB1D9"/>
<path d="M1046 2906.81V2976.28L1105.79 3010.95L1165.71 2976.28V2906.81L1105.79 2872L1046 2906.81Z" fill="#5EB1D9" fill-opacity="0.4"/>
</g>
<path d="M1960.12 1511.63V1460.63L2004.01 1435.18L2048 1460.63V1511.63L2004.01 1537.18L1960.12 1511.63Z" fill="#497FA1"/>
<path d="M2007.26 1429.26V1378.26L2051.15 1352.81L2095.14 1378.26V1429.26L2051.15 1454.81L2007.26 1429.26Z" fill="#497FA1" fill-opacity="0.6"/>
<path d="M1909.32 1272.16L1866.93 1296.74V1346.01L1909.32 1370.69L1951.81 1346.01V1296.74L1909.32 1272.16Z" stroke="#4980A3" stroke-width="3"/>
<path d="M1909.32 940.683L1866.93 965.263V1014.54L1909.32 1039.21L1951.81 1014.54V965.264L1909.32 940.683Z" stroke="#4980A3" stroke-width="3"/>
<path d="M1956.3 1354.66L1913.91 1379.24V1428.52L1956.3 1453.2L1998.79 1428.52V1379.24L1956.3 1354.66Z" stroke="#4980A3" stroke-width="3"/>
<path d="M1865.43 1511.63V1460.63L1909.32 1435.18L1953.31 1460.63V1511.63L1909.32 1537.18L1865.43 1511.63Z" fill="#5EB1D9"/>
<path d="M1913 1263.48V1212.48L1956.89 1187.03L2000.88 1212.48V1263.48L1956.89 1289.03L1913 1263.48Z" fill="#5EB1D9"/>
<path d="M2054.82 1347.16V1296.16L2098.71 1270.71L2142.7 1296.16V1347.16L2098.71 1372.71L2054.82 1347.16Z" fill="#497FA1" fill-opacity="0.3"/>
<path d="M1913 1097.62V1046.62L1956.89 1021.17L2000.88 1046.62V1097.62L1956.89 1123.17L1913 1097.62Z" fill="#30567A" fill-opacity="0.6"/>
<path d="M1913 1593.85V1542.85L1956.89 1517.4L2000.88 1542.85V1593.85L1956.89 1619.4L1913 1593.85Z" fill="#497FA1"/>
<path d="M1960.12 1347.16V1296.16L2004.01 1270.71L2048 1296.16V1347.16L2004.01 1372.71L1960.12 1347.16Z" fill="#5EB1D9"/>
<path d="M1960.12 1180.56V1129.56L2004.01 1104.11L2048 1129.56V1180.56L2004.01 1206.11L1960.12 1180.56Z" fill="#497FA1" fill-opacity="0.6"/>
<path d="M1770 1347.2V1296.2L1813.89 1270.75L1857.88 1296.2V1347.2L1813.89 1372.75L1770 1347.2Z" fill="#497FA1"/>
<path d="M1817.71 1429.38V1378.38L1861.6 1352.93L1905.59 1378.38V1429.38L1861.6 1454.93L1817.71 1429.38Z" fill="#497FA1" fill-opacity="0.6"/>
<path d="M1817.71 1263.51V1212.51L1861.6 1187.06L1905.59 1212.51V1263.51L1861.6 1289.06L1817.71 1263.51Z" fill="#5EB1D9"/>
<path d="M1817.71 932.449V881.449L1861.6 855.999L1905.59 881.449V932.449L1861.6 958L1817.71 932.449Z" fill="#5EB1D9" fill-opacity="0.4"/>
<path d="M1887.42 1280.77L1983.1 1336.34V1447.72L1887.42 1503.51L1791.53 1447.72V1336.34L1887.42 1280.77Z" stroke="#5397BC" stroke-width="3"/>
<circle cx="1887.31" cy="1281.38" r="9.37659" fill="#5397BC"/>
<circle cx="1887.31" cy="1501.72" r="9.37659" fill="#5397BC"/>
<circle cx="1792.38" cy="1336.46" r="9.37659" fill="#5397BC"/>
<circle cx="1792.38" cy="1446.64" r="9.37659" fill="#5397BC"/>
<circle cx="1982.25" cy="1336.46" r="9.37659" fill="#5397BC"/>
<circle cx="1982.25" cy="1446.64" r="9.37659" fill="#5397BC"/>
<path d="M849.272 1095.04L976.407 1168.89V1316.89L849.272 1391.03L721.847 1316.89V1168.89L849.272 1095.04Z" stroke="#5397BC" stroke-width="3"/>
<circle cx="849.127" cy="1096.41" r="12.4125" fill="#5397BC"/>
<circle cx="849.127" cy="1388.11" r="12.4125" fill="#5397BC"/>
<circle cx="723.45" cy="1169.34" r="12.4125" fill="#5397BC"/>
<circle cx="723.45" cy="1315.18" r="12.4125" fill="#5397BC"/>
<circle cx="974.804" cy="1169.34" r="12.4125" fill="#5397BC"/>
<circle cx="974.804" cy="1315.18" r="12.4125" fill="#5397BC"/>
<path d="M1611.97 2571.18L1611.97 2618.12L1652.36 2641.54L1692.85 2618.12L1692.85 2571.18L1652.36 2547.67L1611.97 2571.18Z" fill="#497FA1"/>
<path d="M1565.22 3096.5L1526.32 3073.94L1526.32 3028.73L1565.22 3006.09L1604.2 3028.74L1604.2 3073.94L1565.22 3096.5Z" stroke="#4980A3" stroke-width="3"/>
<path d="M1608.45 2715.5L1569.56 2692.95L1569.56 2647.74L1608.45 2625.1L1647.44 2647.74L1647.44 2692.95L1608.45 2715.5Z" stroke="#4980A3" stroke-width="3"/>
<path d="M1524.82 2571.18L1524.82 2618.12L1565.21 2641.54L1605.7 2618.12L1605.7 2571.18L1565.21 2547.67L1524.82 2571.18Z" fill="#5EB1D9"/>
<path d="M1568.6 2799.56L1568.6 2846.5L1609 2869.92L1649.48 2846.5L1649.48 2799.56L1609 2776.04L1568.6 2799.56Z" fill="#5EB1D9"/>
<path d="M1787 2572.51L1787 2619.45L1827.39 2642.87L1867.88 2619.45L1867.88 2572.51L1827.39 2549L1787 2572.51Z" fill="#497FA1" fill-opacity="0.3"/>
<path d="M1568.6 2952.21L1568.6 2999.14L1609 3022.56L1649.48 2999.14L1649.48 2952.21L1609 2928.69L1568.6 2952.21Z" fill="#30567A" fill-opacity="0.6"/>
<path d="M1743 2647.51L1743 2694.45L1783.39 2717.87L1823.87 2694.45L1823.87 2647.51L1783.39 2624L1743 2647.51Z" fill="#497FA1"/>
<path d="M1611.97 2875.87L1611.97 2922.8L1652.36 2946.22L1692.85 2922.8L1692.85 2875.87L1652.36 2852.35L1611.97 2875.87Z" fill="#497FA1" fill-opacity="0.6"/>
<path d="M1480.91 2799.53L1480.91 2846.46L1521.3 2869.88L1561.79 2846.46L1561.79 2799.53L1521.3 2776.01L1480.91 2799.53Z" fill="#5EB1D9"/>
<path d="M1480.91 3104.21L1480.91 3151.15L1521.3 3174.57L1561.79 3151.15L1561.79 3104.21L1521.3 3080.7L1480.91 3104.21Z" fill="#5EB1D9" fill-opacity="0.4"/>
<path d="M1109.15 976.47L1109.15 918.325L1059.11 889.311L1008.96 918.325L1008.96 976.47L1059.11 1005.6L1109.15 976.47Z" fill="#497FA1"/>
<path d="M1167.07 703.206L1215.61 731.352L1215.61 787.769L1167.07 816.026L1118.42 787.768L1118.42 731.353L1167.07 703.206Z" stroke="#4980A3" stroke-width="3"/>
<path d="M1167.07 325.303L1215.61 353.448L1215.61 409.866L1167.07 438.122L1118.42 409.865L1118.42 353.449L1167.07 325.303Z" stroke="#4980A3" stroke-width="3"/>
<path d="M1217.11 976.47L1217.11 918.325L1167.07 889.311L1116.92 918.325L1116.92 976.47L1167.07 1005.6L1217.11 976.47Z" fill="#5EB1D9"/>
<path d="M1162.87 693.558L1162.87 635.414L1112.84 606.399L1062.68 635.414L1062.68 693.558L1112.84 722.688L1162.87 693.558Z" fill="#5EB1D9"/>
<path d="M1001.19 788.965L1001.19 730.821L951.152 701.806L901.001 730.821L901.001 788.965L951.152 818.094L1001.19 788.965Z" fill="#497FA1" fill-opacity="0.3"/>
<path d="M1162.87 504.46L1162.87 446.316L1112.84 417.301L1062.68 446.316L1062.68 504.46L1112.84 533.589L1162.87 504.46Z" fill="#30567A" fill-opacity="0.6"/>
<path d="M1272.48 1071.44L1272.48 1013.3L1222.44 984.282L1172.29 1013.3L1172.29 1071.44L1222.44 1100.57L1272.48 1071.44Z" fill="#30567A" fill-opacity="0.6"/>
<path d="M1326.99 977.294L1326.99 919.15L1276.95 890.135L1226.8 919.15L1226.8 977.294L1276.95 1006.42L1326.99 977.294Z" fill="#497FA1"/>
<path d="M1109.15 788.965L1109.15 730.821L1059.11 701.806L1008.96 730.821L1008.96 788.965L1059.11 818.094L1109.15 788.965Z" fill="#5EB1D9"/>
<path d="M1109.15 599.029L1109.15 540.885L1059.11 511.87L1008.96 540.885L1008.96 599.029L1059.11 628.158L1109.15 599.029Z" fill="#497FA1" fill-opacity="0.6"/>
<path d="M1325.9 789.005L1325.9 730.861L1275.87 701.846L1225.72 730.861L1225.72 789.005L1275.87 818.134L1325.9 789.005Z" fill="#497FA1"/>
<path d="M1271.51 693.599L1271.51 635.454L1221.47 606.439L1171.32 635.454L1171.32 693.599L1221.47 722.728L1271.51 693.599Z" fill="#5EB1D9"/>
<path d="M1271.51 316.159L1271.51 258.015L1221.47 229L1171.32 258.015L1171.32 316.159L1221.47 345.288L1271.51 316.159Z" fill="#5EB1D9" fill-opacity="0.4"/>
<path d="M1898.85 2418.39L1898.85 2371.45L1939.24 2348.03L1979.73 2371.45L1979.73 2418.39L1939.24 2441.9L1898.85 2418.39Z" fill="#497FA1"/>
<path d="M1942.23 2342.58L1942.23 2295.64L1982.62 2272.22L2023.11 2295.64L2023.11 2342.58L1982.62 2366.09L1942.23 2342.58Z" fill="#497FA1" fill-opacity="0.6"/>
<path d="M1852.09 2198.13L1813.2 2220.68L1813.2 2265.89L1852.09 2288.54L1891.08 2265.89L1891.08 2220.69L1852.09 2198.13Z" stroke="#4980A3" stroke-width="3"/>
<path d="M1852.09 1893.07L1813.2 1915.62L1813.2 1960.83L1852.09 1983.48L1891.08 1960.83L1891.08 1915.63L1852.09 1893.07Z" stroke="#4980A3" stroke-width="3"/>
<path d="M1895.33 2274.07L1856.44 2296.62L1856.44 2341.83L1895.33 2364.47L1934.31 2341.83L1934.31 2296.62L1895.33 2274.07Z" stroke="#4980A3" stroke-width="3"/>
<path d="M1811.7 2418.39L1811.7 2371.45L1852.09 2348.03L1892.58 2371.45L1892.58 2418.39L1852.09 2441.9L1811.7 2418.39Z" fill="#5EB1D9"/>
<path d="M1855.48 2190.01L1855.48 2143.07L1895.87 2119.65L1936.36 2143.07L1936.36 2190.01L1895.87 2213.52L1855.48 2190.01Z" fill="#5EB1D9"/>
<path d="M1986 2267.03L1986 2220.09L2026.39 2196.67L2066.88 2220.09L2066.88 2267.03L2026.39 2290.54L1986 2267.03Z" fill="#497FA1" fill-opacity="0.3"/>
<path d="M1855.48 2037.36L1855.48 1990.43L1895.87 1967L1936.36 1990.43L1936.36 2037.36L1895.87 2060.88L1855.48 2037.36Z" fill="#30567A" fill-opacity="0.6"/>
<path d="M1767 2495.05L1767 2448.12L1807.39 2424.7L1847.88 2448.12L1847.88 2495.05L1807.39 2518.57L1767 2495.05Z" fill="#30567A" fill-opacity="0.6"/>
<path d="M1723 2419.05L1723 2372.12L1763.39 2348.7L1803.88 2372.12L1803.88 2419.05L1763.39 2442.57L1723 2419.05Z" fill="#497FA1"/>
<path d="M1679 2343.05L1679 2296.12L1719.39 2272.7L1759.88 2296.12L1759.88 2343.05L1719.39 2366.57L1679 2343.05Z" fill="#497FA1"/>
<path d="M1898.85 2267.03L1898.85 2220.09L1939.24 2196.67L1979.73 2220.09L1979.73 2267.03L1939.24 2290.54L1898.85 2267.03Z" fill="#5EB1D9"/>
<path d="M1898.85 2113.7L1898.85 2066.77L1939.24 2043.34L1979.73 2066.77L1979.73 2113.7L1939.24 2137.22L1898.85 2113.7Z" fill="#497FA1" fill-opacity="0.6"/>
<path d="M1723.88 2267.06L1723.88 2220.12L1764.27 2196.7L1804.75 2220.12L1804.75 2267.06L1764.27 2290.57L1723.88 2267.06Z" fill="#497FA1"/>
<path d="M1767.79 2342.69L1767.79 2295.75L1808.18 2272.33L1848.66 2295.75L1848.66 2342.69L1808.18 2366.21L1767.79 2342.69Z" fill="#497FA1" fill-opacity="0.6"/>
<path d="M1767.79 2190.04L1767.79 2143.11L1808.18 2119.68L1848.66 2143.11L1848.66 2190.04L1808.18 2213.56L1767.79 2190.04Z" fill="#5EB1D9"/>
<path d="M1767.79 1885.36L1767.79 1838.42L1808.18 1815L1848.66 1838.42L1848.66 1885.36L1808.18 1908.87L1767.79 1885.36Z" fill="#5EB1D9" fill-opacity="0.4"/>
<path d="M891.027 1802.39L891.027 1755.45L850.635 1732.03L810.151 1755.45L810.151 1802.39L850.635 1825.9L891.027 1802.39Z" fill="#497FA1"/>
<path d="M847.646 1726.58L847.646 1679.64L807.254 1656.22L766.771 1679.64L766.771 1726.58L807.254 1750.09L847.646 1726.58Z" fill="#497FA1" fill-opacity="0.6"/>
<path d="M937.783 1582.13L976.676 1604.69L976.676 1649.9L937.783 1672.54L898.801 1649.9L898.801 1604.69L937.783 1582.13Z" stroke="#4980A3" stroke-width="3"/>
<path d="M937.783 1277.07L976.676 1299.63L976.676 1344.84L937.783 1367.48L898.801 1344.84L898.801 1299.63L937.783 1277.07Z" stroke="#4980A3" stroke-width="3"/>
<path d="M894.547 1658.07L933.439 1680.62L933.439 1725.83L894.547 1748.47L855.564 1725.83L855.564 1680.62L894.547 1658.07Z" stroke="#4980A3" stroke-width="3"/>
<path d="M978.176 1802.39L978.176 1755.45L937.784 1732.03L897.301 1755.45L897.301 1802.39L937.784 1825.9L978.176 1802.39Z" fill="#5EB1D9"/>
<path d="M934.395 1574.01L934.395 1527.08L894.003 1503.65L853.52 1527.08L853.52 1574.01L894.003 1597.53L934.395 1574.01Z" fill="#5EB1D9"/>
<path d="M803.877 1651.03L803.877 1604.09L763.485 1580.67L723.001 1604.09L723.001 1651.03L763.485 1674.54L803.877 1651.03Z" fill="#497FA1" fill-opacity="0.3"/>
<path d="M934.395 1421.36L934.395 1374.43L894.003 1351L853.52 1374.43L853.52 1421.36L894.003 1444.88L934.395 1421.36Z" fill="#30567A" fill-opacity="0.6"/>
<path d="M1022.88 1879.06L1022.88 1832.12L982.485 1808.7L942.001 1832.12L942.001 1879.06L982.485 1902.57L1022.88 1879.06Z" fill="#30567A" fill-opacity="0.6"/>
<path d="M1035.88 1466.36L1035.88 1419.42L995.485 1396L955.001 1419.42L955.001 1466.36L995.485 1489.87L1035.88 1466.36Z" fill="#497FA1"/>
<path d="M943.877 1977.36L943.877 1930.42L903.485 1907L863.001 1930.42L863.001 1977.36L903.485 2000.87L943.877 1977.36Z" fill="#497FA1"/>
<path d="M891.027 1651.03L891.027 1604.09L850.635 1580.67L810.151 1604.09L810.151 1651.03L850.635 1674.54L891.027 1651.03Z" fill="#5EB1D9"/>
<path d="M891.027 1497.7L891.027 1450.77L850.635 1427.35L810.151 1450.77L810.151 1497.7L850.635 1521.22L891.027 1497.7Z" fill="#497FA1" fill-opacity="0.6"/>
<path d="M1066 1651.06L1066 1604.12L1025.61 1580.7L985.126 1604.12L985.126 1651.06L1025.61 1674.58L1066 1651.06Z" fill="#497FA1"/>
<path d="M1022.09 1726.69L1022.09 1679.76L981.697 1656.33L941.214 1679.76L941.214 1726.69L981.697 1750.21L1022.09 1726.69Z" fill="#497FA1" fill-opacity="0.6"/>
<path d="M1022.09 1574.04L1022.09 1527.11L981.697 1503.69L941.214 1527.11L941.214 1574.04L981.697 1597.56L1022.09 1574.04Z" fill="#5EB1D9"/>
<path d="M1022.09 1269.36L1022.09 1222.42L981.697 1199L941.214 1222.42L941.214 1269.36L981.697 1292.87L1022.09 1269.36Z" fill="#5EB1D9" fill-opacity="0.4"/>
<path d="M1142.61 1053.03L1214.27 1094.65V1178.07L1142.61 1219.85L1070.8 1178.07V1094.65L1142.61 1053.03Z" stroke="#437090" stroke-width="3"/>
<circle cx="1142.53" cy="1053.06" r="7.05885" fill="#437090"/>
<circle cx="1142.53" cy="1218.94" r="7.05885" fill="#437090"/>
<circle cx="1071.06" cy="1094.53" r="7.05885" fill="#437090"/>
<circle cx="1071.06" cy="1177.47" r="7.05885" fill="#437090"/>
<circle cx="1214" cy="1094.53" r="7.05885" fill="#437090"/>
<circle cx="1214" cy="1177.47" r="7.05885" fill="#437090"/>
<path d="M1834.61 1449.02L1906.27 1490.64V1574.06L1834.61 1615.85L1762.79 1574.06V1490.64L1834.61 1449.02Z" stroke="#437090" stroke-width="3"/>
<circle cx="1834.53" cy="1449.05" r="7.05885" fill="#437090"/>
<circle cx="1834.53" cy="1614.93" r="7.05885" fill="#437090"/>
<circle cx="1763.06" cy="1490.52" r="7.05885" fill="#437090"/>
<circle cx="1763.06" cy="1573.46" r="7.05885" fill="#437090"/>
<circle cx="1906" cy="1490.52" r="7.05885" fill="#437090"/>
<circle cx="1906" cy="1573.46" r="7.05885" fill="#437090"/>
<path d="M1002.61 849.028L1074.27 890.647V974.07L1002.61 1015.85L930.796 974.069V890.648L1002.61 849.028Z" stroke="#437090" stroke-width="3"/>
<circle cx="1002.53" cy="849.059" r="7.05885" fill="#437090"/>
<circle cx="1002.53" cy="1014.94" r="7.05885" fill="#437090"/>
<circle cx="931.06" cy="890.53" r="7.05885" fill="#437090"/>
<circle cx="931.06" cy="973.471" r="7.05885" fill="#437090"/>
<circle cx="1074" cy="890.53" r="7.05885" fill="#437090"/>
<circle cx="1074" cy="973.471" r="7.05885" fill="#437090"/>
<path d="M1860.61 1948.03L1932.27 1989.65V2073.07L1860.61 2114.85L1788.79 2073.07V1989.65L1860.61 1948.03Z" stroke="#5BAED4" stroke-width="3"/>
<circle cx="1860.53" cy="1948.06" r="7.05885" fill="#5BAED4"/>
<circle cx="1860.53" cy="2113.94" r="7.05885" fill="#5BAED4"/>
<circle cx="1789.06" cy="1989.53" r="7.05885" fill="#5BAED4"/>
<circle cx="1789.06" cy="2072.47" r="7.05885" fill="#5BAED4"/>
<circle cx="1932" cy="1989.53" r="7.05885" fill="#5BAED4"/>
<circle cx="1932" cy="2072.47" r="7.05885" fill="#5BAED4"/>
<path d="M954.614 1792.03L1026.27 1833.65V1917.07L954.614 1958.85L882.796 1917.07V1833.65L954.614 1792.03Z" stroke="#5BAED4" stroke-width="3"/>
<circle cx="954.531" cy="1792.06" r="7.05885" fill="#5BAED4"/>
<circle cx="954.531" cy="1957.94" r="7.05885" fill="#5BAED4"/>
<circle cx="883.06" cy="1833.53" r="7.05885" fill="#5BAED4"/>
<circle cx="883.06" cy="1916.47" r="7.05885" fill="#5BAED4"/>
<circle cx="1026" cy="1833.53" r="7.05885" fill="#5BAED4"/>
<circle cx="1026" cy="1916.47" r="7.05885" fill="#5BAED4"/>
<circle cx="20.9744" cy="20.9744" r="20.9744" transform="matrix(-4.37114e-08 -1 -1 4.37114e-08 919.596 1195.15)" fill="#07318B"/>
<circle cx="19.9989" cy="19.9989" r="19.9989" transform="matrix(-4.37114e-08 -1 -1 4.37114e-08 985.934 1578.54)" fill="#07318B"/>
<circle cx="20.9744" cy="20.9744" r="20.9744" transform="matrix(-4.37114e-08 -1 -1 4.37114e-08 526.447 1143.45)" fill="#07318B"/>
<circle cx="20.9744" cy="20.9744" r="20.9744" transform="matrix(-4.37114e-08 -1 -1 4.37114e-08 678.633 1449.77)" fill="#07318B"/>
<circle cx="13.6578" cy="13.6578" r="13.6578" transform="matrix(-4.37114e-08 -1 -1 4.37114e-08 985.934 1069.3)" fill="#07318B"/>
<circle cx="13.6578" cy="13.6578" r="13.6578" transform="matrix(-4.37114e-08 -1 -1 4.37114e-08 757.653 1116.13)" fill="#07318B"/>
<circle cx="13.6578" cy="13.6578" r="13.6578" transform="matrix(-4.37114e-08 -1 -1 4.37114e-08 532.299 1237.1)" fill="#07318B"/>
<circle cx="13.6578" cy="13.6578" r="13.6578" transform="matrix(-4.37114e-08 -1 -1 4.37114e-08 359.627 1172.71)" fill="#07318B"/>
<circle cx="13.6578" cy="13.6578" r="13.6578" transform="matrix(-4.37114e-08 -1 -1 4.37114e-08 359.627 1407.82)" fill="#07318B"/>
<circle cx="13.6578" cy="13.6578" r="13.6578" transform="matrix(-4.37114e-08 -1 -1 4.37114e-08 585.958 1485.87)" fill="#07318B"/>
<circle cx="13.6578" cy="13.6578" r="13.6578" transform="matrix(-4.37114e-08 -1 -1 4.37114e-08 540.105 1011.75)" fill="#07318B"/>
<circle cx="13.6578" cy="13.6578" r="13.6578" transform="matrix(-4.37114e-08 -1 -1 4.37114e-08 1119.58 1277.1)" fill="#07318B"/>
<circle cx="13.6578" cy="13.6578" r="13.6578" transform="matrix(-4.37114e-08 -1 -1 4.37114e-08 1207.38 1437.09)" fill="#07318B"/>
<circle cx="13.6578" cy="13.6578" r="13.6578" transform="matrix(-4.37114e-08 -1 -1 4.37114e-08 1143.32 1643.32)" fill="#07318B"/>
<circle cx="13.6578" cy="13.6578" r="13.6578" transform="matrix(-4.37114e-08 -1 -1 4.37114e-08 957.317 1674.32)" fill="#07318B"/>
<circle cx="13.6578" cy="13.6578" r="13.6578" transform="matrix(-4.37114e-08 -1 -1 4.37114e-08 1058.12 1505.38)" fill="#07318B"/>
<circle cx="13.6578" cy="13.6578" r="13.6578" transform="matrix(-4.37114e-08 -1 -1 4.37114e-08 943.985 1294.66)" fill="#07318B"/>
<circle cx="15.6089" cy="15.6089" r="15.6089" transform="matrix(-4.37114e-08 -1 -1 4.37114e-08 933.253 913.216)" fill="#07318B"/>
<circle cx="15.6089" cy="15.6089" r="15.6089" transform="matrix(-4.37114e-08 -1 -1 4.37114e-08 617.173 873.218)" fill="#07318B"/>
<circle cx="13.6578" cy="13.6578" r="13.6578" transform="matrix(-4.37114e-08 -1 -1 4.37114e-08 773.263 944.434)" fill="#07318B"/>
<circle cx="19.0233" cy="19.0233" r="19.0233" transform="matrix(-4.37114e-08 -1 -1 4.37114e-08 763.507 915.167)" fill="#07318B"/>
<circle cx="19.0233" cy="19.0233" r="19.0233" transform="matrix(-4.37114e-08 -1 -1 4.37114e-08 462.06 955.164)" fill="#07318B"/>
<circle cx="15.1211" cy="15.1211" r="15.1211" transform="matrix(-4.37114e-08 -1 -1 4.37114e-08 347.921 1025.4)" fill="#07318B"/>
<circle cx="15.6089" cy="15.6089" r="15.6089" transform="matrix(-4.37114e-08 -1 -1 4.37114e-08 1158.61 1132.71)" fill="#07318B"/>
<circle cx="18.0478" cy="18.0478" r="18.0478" transform="matrix(-4.37114e-08 -1 -1 4.37114e-08 1054.22 1033.21)" fill="#07318B"/>
<circle cx="18.0478" cy="18.0478" r="18.0478" transform="matrix(-4.37114e-08 -1 -1 4.37114e-08 1185.92 1321)" fill="#07318B"/>
<path d="M1194.21 1424.41L1047.39 1490.74L816.187 1503.91" stroke="#07318B" stroke-width="2"/>
<path d="M348.403 1392.21L349.816 1390.8M349.816 1390.8L518.638 1221.98L572.781 1472.7L349.816 1390.8Z" stroke="#07318B" stroke-width="2"/>
<path d="M917.153 895.168L602.049 856.146" stroke="#07318B" stroke-width="2"/>
<path d="M744.968 894.681L505.469 1122.47" stroke="#07318B" stroke-width="3"/>
<path d="M1035.2 1014.67L1166.9 1303.44L1194.21 1424.41L1105.93 1262.95L1044.47 1489.28L931.79 1280.51M931.79 1280.51L971.788 1056.62L744.484 1100.03L931.79 1280.51Z" stroke="#07318B" stroke-width="2"/>
<path d="M1169.83 1302.46L1142.51 1115.16L1036.17 1014.19L914.718 896.143" stroke="#07318B" stroke-width="3"/>
<path d="M963.983 1557.08L1171.29 1301.49L892.768 1172.71" stroke="#07318B" stroke-width="3"/>
<path d="M505.469 1120.03L898.618 1173.69M898.618 1173.69L660.095 1428.8L968.858 1558.54L898.618 1173.69Z" stroke="#07318B" stroke-width="3"/>
<path d="M1141.05 1115.16L970.811 1054.67L916.668 895.655M916.668 895.655L761.067 929.312L744.483 895.655L916.668 895.655Z" stroke="#07318B" stroke-width="2"/>
<path d="M1038.12 1010.28L898.618 1171.74L743.018 894.681L1038.12 1010.28Z" stroke="#07318B" stroke-width="3"/>
<path d="M601.078 852.732L451.33 942.971L328.41 1011.26L345.97 1158.08L518.643 1222.47L721.559 1311.73L743.021 1102.47L761.068 928.338L972.276 1053.7L1105.44 1261.49L1144.46 1113.69" stroke="#07318B" stroke-width="2"/>
<path d="M505.469 1120.52L344.99 1471.72L658.143 1427.82L505.469 1120.52Z" stroke="#07318B" stroke-width="3"/>
<path d="M1168.36 1301.97L1130.32 1625.86L1193.24 1421.97" stroke="#07318B" stroke-width="2"/>
<path d="M443.521 936.142L236.216 1176.62M236.216 1176.62L346.454 1157.59L527.907 997.114L334.259 1010.28L236.216 1176.62Z" stroke="#07318B" stroke-width="2"/>
<path d="M658.631 1424.41L635.217 1649.76L571.806 1471.72L461.081 1587.32L346.453 1471.72" stroke="#07318B" stroke-width="2"/>
<path d="M409.377 1537.57L656.193 1571.23L559.125 1378.07L409.377 1537.57Z" stroke="#07318B" stroke-width="2"/>
<path d="M768.382 1344.41L654.73 1571.23L709.361 1679.03L805.453 1623.42L947.396 1660.49L1033.24 1489.28" stroke="#07318B" stroke-width="2"/>
<path d="M359.135 1289.29L584.976 1167.84L365.476 1064.43L359.135 1289.29Z" stroke="#07318B" stroke-width="2"/>
<path d="M600.097 995.65L441.082 922.484L366.94 1064.43L600.097 995.65Z" stroke="#07318B" stroke-width="2"/>
<path d="M185 1225.39L344.991 1188.81L279.629 1002.48M279.629 1002.48L443.522 921.021L583.514 961.994L279.629 1002.48Z" stroke="#07318B" stroke-width="2"/>
<g filter="url(#filter0_f_12_13661)">
<ellipse cx="1396.5" cy="1337.5" rx="508.5" ry="537.5" fill="#262841" fill-opacity="0.5"/>
</g>
<g filter="url(#filter1_f_12_13661)">
<ellipse cx="1371.5" cy="2251" rx="589.5" ry="563" fill="#262841" fill-opacity="0.8"/>
</g>
<g filter="url(#filter2_f_12_13661)">
<ellipse cx="1712.5" cy="1624" rx="524.5" ry="447" fill="#262841" fill-opacity="0.9"/>
</g>
<g filter="url(#filter3_f_12_13661)">
<ellipse cx="1206.5" cy="2345" rx="406.5" ry="431" fill="#262841" fill-opacity="0.6"/>
</g>
<defs>
<filter id="filter0_f_12_13661" x="88.0016" y="0" width="2617" height="2675" filterUnits="userSpaceOnUse" color-interpolation-filters="sRGB">
<feFlood flood-opacity="0" result="BackgroundImageFix"/>
<feBlend mode="normal" in="SourceGraphic" in2="BackgroundImageFix" result="shape"/>
<feGaussianBlur stdDeviation="400" result="effect1_foregroundBlur_12_13661"/>
</filter>
<filter id="filter1_f_12_13661" x="182.002" y="1088" width="2379" height="2326" filterUnits="userSpaceOnUse" color-interpolation-filters="sRGB">
<feFlood flood-opacity="0" result="BackgroundImageFix"/>
<feBlend mode="normal" in="SourceGraphic" in2="BackgroundImageFix" result="shape"/>
<feGaussianBlur stdDeviation="300" result="effect1_foregroundBlur_12_13661"/>
</filter>
<filter id="filter2_f_12_13661" x="588.001" y="577" width="2249" height="2094" filterUnits="userSpaceOnUse" color-interpolation-filters="sRGB">
<feFlood flood-opacity="0" result="BackgroundImageFix"/>
<feBlend mode="normal" in="SourceGraphic" in2="BackgroundImageFix" result="shape"/>
<feGaussianBlur stdDeviation="300" result="effect1_foregroundBlur_12_13661"/>
</filter>
<filter id="filter3_f_12_13661" x="0.00146484" y="1114" width="2413" height="2462" filterUnits="userSpaceOnUse" color-interpolation-filters="sRGB">
<feFlood flood-opacity="0" result="BackgroundImageFix"/>
<feBlend mode="normal" in="SourceGraphic" in2="BackgroundImageFix" result="shape"/>
<feGaussianBlur stdDeviation="400" result="effect1_foregroundBlur_12_13661"/>
</filter>
</defs>
</svg>
