<svg width="444" height="219" fill="none" xmlns="http://www.w3.org/2000/svg"><mask id="a" style="mask-type:alpha" maskUnits="userSpaceOnUse" x="21" y="20" width="416" height="187"><path d="M89.156 206.072H21.421V56.707l35.894-35.895h202.049l12.737 12.737h87.998l13.316-13.316h63.104v19.105l-6.368 6.369v19.105l6.368 4.631v24.895l-4.631 4.052v57.894l4.631 4.631v12.737l-32.42 32.42H283.68l-15.053-15.052H104.209l-15.053 15.052z" fill="#D9D9D9"/></mask><g mask="url(#a)"><path d="M88.578 206.072H20.841V56.707l35.894-35.895h202.049l12.737 12.737h87.999l13.315-13.316h63.104v19.105l-6.368 6.369v19.105l6.368 4.631v24.895l-4.631 4.052v57.894l4.631 4.631v12.737l-32.42 32.42H283.101l-15.053-15.052H103.63l-15.052 15.052z" fill="#fff"/></g><path d="M148.165 17.612l14.586-15.961h-14.035L134.13 17.612h14.035zm-20.915 0l14.586-15.961h-14.035l-14.585 15.961h14.034zM11.118 102.098L1.76 115.582v9.357l9.357 9.357v-32.198zm7.43-3.028h-3.302v10.458h3.302V99.071zm0 11.559h-3.302v10.458h3.302v-10.458zm0 11.559h-3.302v10.457h3.302v-10.457zm400.96 92.465h24.493V189.61l-24.493 25.043z" fill="#fff"/><path d="M443.726 162.365l-.826.881v-62.524l-4.403-4.403-.716.605-1.321-1.321.661-.605V69.184l-6.054-4.678V46.013l6.054-6.055v-5.503l4.293-4.293V8.366l-5.944-5.944V0H170.071l-18.163 19.814H57.021L20.475 56.36v150.587h69.404l3.853-3.853h35.72l3.578-3.577h143.046l7.155 7.155h121.472l32.418-32.693v-13.595l-4.403-4.403V98.905l1.486-1.32 1.321 1.32-.881.716 3.853 3.853v9.907h2.752v51.626l-1.651 1.762v10.732L406.849 210.8h-31.372l-1.651-1.651h-4.678l3.357 3.742h-24.107l-2.477-2.201h-8.311l2.092-1.266H281.36l-6.329-6.33h-7.651l-1.816-1.816h-19.869l-5.614 4.293H94.502l2.642 4.568h-7.21l-4.678 4.679h-4.073l5.118-5.119H17.723v-39.628l-4.128 4.128V77.88l1.926-1.926V58.066l41.004-41.004h14.86l2.367-2.477h21.3l-2.751 3.027h14.035l14.585-15.96h-14.035L96.594 12.933h-21.19l3.467-3.577H53.553l-2.367 2.366H41.5L3.302 49.92v11.89l6.22 6.22v13.98l2.476-2.477V97.31L0 114.371v65.772l7.87 7.871v30.216h69.9l2.642-2.642h5.284l4.678-4.678h7.376l1.54 2.642h137.764l11.558-7.981h-7.155l4.513-3.467h19.209l.99.99h-.77l13.209 13.21h24.493l1.376-1.651h26.418l5.339-3.193h9.357l2.477 2.202h25.152l.881.991h34.675l34.95-34.95v-17.338zM435.47 21.19v2.972l-5.394 5.394h-21.961l-6.054-6.054h-30.492l2.367-2.367h61.534v.055zm5.118-12.494v21.135l-3.467 3.468v-13.76h-1.651V3.633l5.118 5.063zm-278.112 2.037h187.408v4.678h24.217V4.954h-24.217V9.08H164.017l6.825-7.43h262.977v17.89H373.22l-13.209 13.21h-87.677L259.4 19.813H154.165l8.311-9.081zM57.681 21.465h201.058l4.403 4.403H61.699L22.126 65.442V57.02L57.68 21.465zm83.054 170.346h127.636l3.302 3.303h-134.24l3.302-3.303zm35.225 6.055h-41.279l1.101-1.101h137.432v-.11l1.211 1.211H175.96zm255.107-99.731v58.506l4.403 4.404v12.273l-31.428 31.703h-120.15l-6.935-6.935v-.22h-.22l-7.706-7.706H104.354l-15.135 15.136h-63.24v-11.283l5.228-5.504v-45.132l-9.081-9.357V67.753L62.359 27.52h202.434l6.88 6.88h88.999l10.072-10.073h30.987l6.054 6.055h22.621l5.064-5.064v13.925l-6.055 6.054v20.035l6.055 4.678v24.272l-4.403 3.853zm3.797-1.101l.991-.88 1.321 1.32-.991.881-1.321-1.321zM4.128 61.479V50.25l37.757-37.757h8.476L9.467 53.388v13.43l-5.34-5.34zM.826 179.813v-65.221L11.943 98.74v77.11l-4.127 4.128v6.825l-6.99-6.99z" fill="#fff"/><path d="M358.965 29.997l9.907-9.907H263.197l9.632 9.907h86.136zm43.206-25.043h-24.217V15.41h24.217V4.954zm28.07 0h-24.217V15.41h24.217V4.954zm6.88 61.919V42.38l-4.678 4.403v16.512l4.678 3.578zm3.027 48.709h-6.054v3.853h6.054v-3.853zm0 6.054h-6.054v3.853h6.054v-3.853zm-6.054 17.063v3.852h6.054v-3.852h-.826v-7.155h.826v-3.853h-6.054v3.853h.825v7.155h-.825zm2.477-7.155h1.1v7.155h-1.1v-7.155zm3.577 13.209h-6.054v3.852h6.054v-3.852zm0 6.055h-6.054v3.852h6.054v-3.852zM46.343 195.939a5.229 5.229 0 100-10.458 5.229 5.229 0 000 10.458z" fill="#fff"/><path d="M46.343 183.831a6.882 6.882 0 00-6.88 6.88 6.883 6.883 0 006.88 6.88 6.883 6.883 0 006.88-6.88 6.882 6.882 0 00-6.88-6.88zm0 13.209c-3.468 0-6.33-2.862-6.33-6.329 0-3.468 2.862-6.33 6.33-6.33 3.467 0 6.33 2.862 6.33 6.33 0 3.467-2.863 6.329-6.33 6.329z" fill="#fff"/><path d="M46.343 198.966a8.244 8.244 0 01-8.256-8.256c0-2.201.88-4.293 2.422-5.834l-1.927-1.926c-2.091 2.091-3.247 4.843-3.247 7.76 0 6.055 4.954 11.008 11.008 11.008.715 0 1.431-.055 2.146-.22l-.55-2.697a7.478 7.478 0 01-1.596.165zm9.742-13.374c-1.927-3.633-5.67-5.889-9.742-5.889-1.266 0-2.532.22-3.743.66l.936 2.587a8.157 8.157 0 012.807-.495 8.285 8.285 0 017.32 4.403l.99-.496a9.74 9.74 0 011.047 4.348c0 1.707-.44 3.358-1.321 4.789l.495.275a9.838 9.838 0 001.431-5.119 9.823 9.823 0 00-1.1-4.568l.88-.495z" fill="#fff"/></svg>