<svg width="3049" height="3331" fill="none" xmlns="http://www.w3.org/2000/svg"><path d="M1061.25 1987.03l106.64 61.94v124.15l-106.64 62.18-106.889-62.19v-124.14l106.889-61.94z" stroke="#345575" stroke-width="3"/><circle cx="1061.12" cy="1987.9" r="10.435" fill="#345575"/><circle cx="1061.12" cy="2233.12" r="10.435" fill="#345575"/><circle cx="955.47" cy="2049.21" r="10.435" fill="#345575"/><circle cx="955.47" cy="2171.82" r="10.435" fill="#345575"/><circle cx="1166.78" cy="2049.21" r="10.435" fill="#345575"/><circle cx="1166.78" cy="2171.82" r="10.435" fill="#345575"/><path d="M1704.32 637.034l58.29 33.801v67.749l-58.29 33.934-58.43-33.935v-67.747l58.43-33.802z" stroke="#28324E" stroke-width="3"/><path d="M1698.91 626.148v-69.476l-59.79-34.67-59.93 34.67v69.476l59.93 34.806 59.79-34.806zm-64.14 113.298v-69.475l-59.78-34.67-59.93 34.67v69.475l59.93 34.807 59.78-34.807z" fill="#28324E"/><circle cx="1766.78" cy="732.033" r="8.016" fill="#28324E"/><path d="M1820.01 1584.27v-69.84l-60.09-34.85-60.24 34.85v69.84l60.24 34.98 60.09-34.98z" fill="#28324E"/><path d="M1692.23 1367.44l58.6 33.97v68.11l-58.6 34.12-58.73-34.12v-68.1l58.73-33.98zm193.39-112.81l58.59 33.98v68.1l-58.59 34.12-58.73-34.12v-68.1l58.73-33.98z" stroke="#28324E" stroke-width="3"/><path d="M1837.29 1589.17l79.42 46.11v92.39l-79.42 46.29-79.59-46.29v-92.39" stroke="#28324E" stroke-width="3" stroke-dasharray="7 7"/><path d="M1880.18 1243.69v-69.83l-60.1-34.85-60.23 34.85v69.83l60.23 34.99 60.1-34.99zm-64.46 113.89v-69.84l-60.1-34.85-60.23 34.85v69.84l60.23 34.98 60.1-34.98zm193.38 112.8v-69.83l-60.09-34.85-60.24 34.85v69.83l60.24 34.99 60.09-34.99z" fill="#28324E"/><path d="M1881.25 1480.66l67.15 37.6 71.98-41.9 1.61-82.19-73.59-43.51" stroke="#28324E" stroke-width="3" stroke-dasharray="7 7"/><circle cx="1948.4" cy="1350.12" r="8.058" fill="#28324E"/><circle cx="1835.59" cy="1588.63" r="8.058" fill="#28324E"/><circle cx="1885.01" cy="1482.27" r="8.058" fill="#28324E"/><circle cx="1757.16" cy="1633.76" r="8.058" fill="#28324E"/><path d="M2141.96 1951.95v-69.47l-59.79-34.67-59.92 34.67v69.47l59.92 34.81 59.79-34.81z" fill="#364F6C"/><path d="M2014.83 1736.24l58.29 33.8v67.75l-58.29 33.94-58.42-33.94v-67.75l58.42-33.8z" stroke="#28324E" stroke-width="3"/><path d="M2207.23 1624.01l58.29 33.8v67.75l-58.29 33.93-58.43-33.93v-67.75l58.43-33.8z" stroke="#477699" stroke-width="3"/><path d="M2201.82 1838.65v-69.47l-59.79-34.67-59.93 34.67v69.47l59.93 34.81 59.79-34.81z" fill="#31445F"/><path d="M2201.82 2066.16v-69.48l-59.79-34.67-59.93 34.67v69.48l59.93 34.8 59.79-34.8zm0-453.04v-69.47l-59.79-34.67-59.93 34.67v69.47l59.93 34.81 59.79-34.81z" fill="#324662"/><path d="M2137.68 1726.42v-69.47l-59.78-34.67-59.93 34.67v69.47l59.93 34.81 59.78-34.81z" fill="#375270"/><path d="M2330.08 1838.65v-69.47l-59.79-34.67-59.92 34.67v69.47l59.92 34.81 59.79-34.81z" fill="#31445F"/><path d="M2202.88 1848.88l66.81 37.41 71.61-41.69 1.61-81.77-73.22-43.29" stroke="#28324E" stroke-width="3" stroke-dasharray="7 7"/><circle cx="2269.69" cy="1719.01" r="8.016" fill="#324662"/><circle cx="2206.63" cy="1850.48" r="8.016" fill="#324662"/><path d="M1632.05 2504.7v69.48l-59.79 34.67-59.92-34.67v-69.48l59.92-34.8 59.79 34.8z" fill="#2C3852"/><path d="M1504.92 2720.41l58.29-33.8v-67.75l-58.29-33.93-58.42 33.94v67.74l58.42 33.8z" stroke="#28324E" stroke-width="3"/><path d="M1649.24 2499.82l79.01-45.87v-91.92l-79.01-46.05-79.18 46.05v91.92" stroke="#28324E" stroke-width="3" stroke-dasharray="7 7"/><path d="M1691.91 2618v69.48l-59.79 34.67-59.93-34.67V2618l59.93-34.8 59.79 34.8z" fill="#2C3852"/><path d="M1691.91 2843.53v69.48l-59.79 34.67-59.93-34.67v-69.48l59.93-34.8 59.79 34.8zM1820.17 2618v69.48l-59.79 34.67-59.92-34.67V2618l59.92-34.8 59.79 34.8z" fill="#28324E"/><path d="M1692.97 2607.78l66.81-37.41 71.61 41.68 1.6 81.77-73.21 43.29" stroke="#28324E" stroke-width="3" stroke-dasharray="7 7"/><circle cx="8.016" cy="8.016" r="8.016" transform="matrix(1 0 0 -1 1751.76 2745.66)" fill="#28324E"/><circle cx="8.016" cy="8.016" r="8.016" transform="matrix(1 0 0 -1 1639.53 2508.38)" fill="#28324E"/><circle cx="8.016" cy="8.016" r="8.016" transform="matrix(1 0 0 -1 1688.7 2614.19)" fill="#28324E"/><circle cx="8.016" cy="8.016" r="8.016" transform="matrix(1 0 0 -1 1561.5 2463.48)" fill="#28324E"/><path d="M1970.88 2382.85v69.48l-59.79 34.67-59.92-34.67v-69.48l59.92-34.8 59.79 34.8zm-127.13 215.71l58.29-33.8v-67.75l-58.29-33.93-58.42 33.93v67.75l58.42 33.8zm192.4 112.23l58.29-33.8v-67.75l-58.29-33.93-58.43 33.93v67.75l58.43 33.8z" stroke="#28324E" stroke-width="3"/><path d="M1988.07 2377.97l79.01-45.87v-91.92l-79.01-46.05-79.18 46.05v91.92" stroke="#28324E" stroke-width="3" stroke-dasharray="7 7"/><path d="M2030.74 2496.15v69.48l-59.79 34.67-59.93-34.67v-69.48l59.93-34.81 59.79 34.81zm128.26 0v69.48l-59.79 34.67-59.92-34.67v-69.48l59.92-34.81 59.79 34.81z" fill="#28324E"/><path d="M2031.8 2485.93l66.81-37.41 71.61 41.68 1.61 81.77-73.22 43.29" stroke="#28324E" stroke-width="3" stroke-dasharray="7 7"/><circle cx="8.016" cy="8.016" r="8.016" transform="matrix(1 0 0 -1 2090.59 2623.81)" fill="#28324E"/><circle cx="8.016" cy="8.016" r="8.016" transform="matrix(1 0 0 -1 1978.36 2386.52)" fill="#28324E"/><circle cx="8.016" cy="8.016" r="8.016" transform="matrix(1 0 0 -1 2027.53 2492.34)" fill="#28324E"/><circle cx="8.016" cy="8.016" r="8.016" transform="matrix(1 0 0 -1 1900.33 2341.63)" fill="#28324E"/><path d="M2271.29 1202.82v69.48l-59.79 34.66-59.92-34.66v-69.48l59.92-34.81 59.79 34.81z" fill="#28324E"/><path d="M2144.16 1418.53l58.29-33.8v-67.75l-58.29-33.93-58.42 33.93v67.75l58.42 33.8zm192.4 112.23l58.29-33.8v-67.75l-58.29-33.93-58.42 33.93v67.75l58.42 33.8z" stroke="#28324E" stroke-width="3"/><path d="M2288.48 1197.94l79.01-45.87v-91.92l-79.01-46.05-79.18 46.05v91.92" stroke="#28324E" stroke-width="3" stroke-dasharray="7 7"/><path d="M2331.15 1316.12v69.47l-59.79 34.67-59.92-34.67v-69.47l59.92-34.81 59.79 34.81zm0 225.53v69.47l-59.79 34.67-59.92-34.67v-69.47l59.92-34.81 59.79 34.81zm-64.13-113.3v69.47l-59.79 34.67-59.93-34.67v-69.47l59.93-34.81 59.79 34.81zm192.39-112.23v69.47l-59.79 34.67-59.92-34.67v-69.47l59.92-34.81 59.79 34.81z" fill="#28324E"/><path d="M2332.22 1305.9l66.8-37.41 71.61 41.68 1.61 81.77-73.22 43.29" stroke="#28324E" stroke-width="3" stroke-dasharray="7 7"/><circle cx="8.016" cy="8.016" r="8.016" transform="matrix(1 0 0 -1 2391 1443.78)" fill="#28324E"/><circle cx="8.016" cy="8.016" r="8.016" transform="matrix(1 0 0 -1 2278.77 1206.49)" fill="#28324E"/><circle cx="8.016" cy="8.016" r="8.016" transform="matrix(1 0 0 -1 2327.94 1312.31)" fill="#28324E"/><circle cx="8.016" cy="8.016" r="8.016" transform="matrix(1 0 0 -1 2200.75 1161.6)" fill="#28324E"/><path d="M1823.92 1050.97l58.29-33.8v-67.745l-58.29-33.934-58.42 33.935v67.744l58.42 33.8z" stroke="#28324E" stroke-width="3"/><path d="M2016.32 1163.21l58.29-33.81v-67.74l-58.29-33.94-58.43 33.94v67.74l58.43 33.81z" stroke="#2C3752" stroke-width="3"/><path d="M2010.91 948.562v69.478l-59.79 34.67-59.93-34.67v-69.478l59.93-34.806 59.79 34.806zm0 225.528v69.48l-59.79 34.67-59.93-34.67v-69.48l59.93-34.8 59.79 34.8zm-64.14-113.3v69.48l-59.78 34.67-59.93-34.67v-69.48l59.93-34.8 59.78 34.8zm192.4-112.228v69.478l-59.79 34.67-59.92-34.67v-69.478l59.92-34.806 59.79 34.806z" fill="#2D3A55"/><path d="M2011.97 938.34l66.81-37.41 71.61 41.685 1.61 81.765-73.22 43.29" stroke="#28324E" stroke-width="3" stroke-dasharray="7 7"/><circle cx="8.016" cy="8.016" r="8.016" transform="matrix(1 0 0 -1 2070.76 1076.22)" fill="#2D3A55"/><circle cx="8.016" cy="8.016" r="8.016" transform="matrix(1 0 0 -1 2007.7 944.752)" fill="#2D3A55"/><circle cx="8.016" cy="8.016" r="8.016" transform="matrix(1 0 0 -1 1880.5 794.043)" fill="#2D3A55"/><path d="M2140.19 1173.91v69.5l-59.93 34.69-60.07-34.69v-69.5l60.07-34.81 59.93 34.81z" fill="#2D3A55"/><path d="M1177.25 1715.17l106.64 61.94v124.15l-106.64 62.18-106.88-62.18v-124.15l106.88-61.94z" stroke="#345575" stroke-width="3"/><circle cx="1177.13" cy="1716.04" r="10.435" fill="#345575"/><circle cx="1177.13" cy="1961.26" r="10.435" fill="#345575"/><circle cx="1071.48" cy="1777.35" r="10.435" fill="#345575"/><circle cx="1071.48" cy="1899.96" r="10.435" fill="#345575"/><circle cx="1282.79" cy="1777.35" r="10.435" fill="#345575"/><circle cx="1282.79" cy="1899.96" r="10.435" fill="#345575"/><path d="M1773.04 1875.06l-166.29-96.43v-193.25l166.29-96.81 166.67 96.81v193.25l-166.67 96.43z" stroke="#487D9E" stroke-opacity=".3" stroke-width="3"/><circle cx="1940.17" cy="1585.89" r="15.638" transform="rotate(180 1940.17 1585.89)" fill="#487D9E" fill-opacity=".3"/><circle cx="1773.36" cy="1491.65" r="15.638" transform="rotate(180 1773.36 1491.65)" fill="#487D9E" fill-opacity=".3"/><circle cx="1773.36" cy="1871.66" r="15.638" transform="rotate(180 1773.36 1871.66)" fill="#487D9E" fill-opacity=".3"/><circle cx="1608.64" cy="1585.89" r="15.638" transform="rotate(180 1608.64 1585.89)" fill="#487D9E" fill-opacity=".3"/><circle cx="1940.17" cy="1776.62" r="15.638" transform="rotate(180 1940.17 1776.62)" fill="#487D9E" fill-opacity=".3"/><circle cx="1608.64" cy="1776.62" r="15.638" transform="rotate(180 1608.64 1776.62)" fill="#487D9E" fill-opacity=".3"/><path d="M1387.66 1753.97v-69.47l59.79-34.67 59.92 34.67v69.47l-59.92 34.81-59.79-34.81z" fill="#28324E"/><path d="M1514.79 1538.26l-58.29 33.8v67.75l58.29 33.94 58.42-33.94v-67.75l-58.42-33.8zm-192.4-112.23l-58.29 33.8v67.75l58.29 33.94 58.43-33.94v-67.75l-58.43-33.8z" stroke="#28324E" stroke-width="3"/><path d="M1327.81 1640.67v-69.47l59.78-34.67 59.93 34.67v69.47l-59.93 34.81-59.78-34.81zM1311 1886.15v-69.48l59.79-34.67 59.92 34.67v69.48l-59.92 34.8-59.79-34.8zm16.81-471v-69.48l59.78-34.67 59.93 34.67v69.48l-59.93 34.8-59.78-34.8zm64.13 113.29v-69.47l59.79-34.67 59.92 34.67v69.47l-59.92 34.81-59.79-34.81zm-192.4 112.23v-69.47l59.79-34.67 59.92 34.67v69.47l-59.92 34.81-59.79-34.81z" fill="#28324E"/><path d="M1370.47 1758.85l-79.01 45.87v91.92l79.01 46.06 79.19-46.06v-91.92" stroke="#28324E" stroke-width="3" stroke-dasharray="7 7"/><circle cx="8.016" cy="8.016" r="8.016" transform="matrix(-1 0 0 1 1380.18 1750.3)" fill="#28324E"/><circle cx="8.016" cy="8.016" r="8.016" transform="matrix(-1 0 0 1 1458.21 1795.19)" fill="#28324E"/><path d="M1458.66 1190.97v-69.47l59.79-34.67 59.92 34.67v69.47l-59.92 34.81-59.79-34.81z" fill="#28324E"/><path d="M1588.79 975.733l-58.29 33.797v67.75l58.29 33.94 58.42-33.94v-67.75l-58.42-33.797zm-195.4-112.701l-58.29 33.801v67.749l58.29 33.934 58.43-33.935v-67.747l-58.43-33.802z" stroke="#28324E" stroke-width="3"/><path d="M1398.81 1077.67v-69.47l59.78-34.671 59.93 34.671v69.47l-59.93 34.81-59.78-34.81zm64.13-112.226v-69.475l59.79-34.67 59.92 34.67v69.475l-59.92 34.806-59.79-34.806zm-192.4 112.226v-69.47l59.79-34.671 59.92 34.671v69.47l-59.92 34.81-59.79-34.81z" fill="#28324E"/><path d="M1590.17 1118v81.2l-71.91 41.18-71.61-39.5V1118" stroke="#28324E" stroke-width="3" stroke-dasharray="7 7"/><circle cx="8.016" cy="8.016" r="8.016" transform="scale(-1 1) rotate(60 -1685.072 -692.63)" fill="#28324E"/><circle cx="8.016" cy="8.016" r="8.016" transform="scale(-1 1) rotate(60 -1757.767 -818.541)" fill="#28324E"/><g opacity=".2"><path d="M1335 444.806v69.476l59.79 34.67 59.92-34.67v-69.476L1394.79 410 1335 444.806z" fill="#497FA1"/><path d="M1399.21 557.022v69.476l59.79 34.67 59.92-34.67v-69.476L1459 522.216l-59.79 34.806z" fill="#497FA1" fill-opacity=".6"/><path d="M1265.79 771.665l-58.29-33.8v-67.75l58.29-33.933 58.42 33.934v67.748l-58.42 33.801zm0 451.555l-58.29-33.8v-67.75l58.29-33.93 58.42 33.93v67.75l-58.42 33.8zm64-563.953l-58.29-33.801v-67.749l58.29-33.934 58.42 33.935v67.747l-58.42 33.802z" stroke="#4980A3" stroke-width="3"/><path d="M1206 444.806v69.476l59.79 34.67 59.92-34.67v-69.476L1265.79 410 1206 444.806z" fill="#5EB1D9"/><path d="M1464 668.854v69.476l59.79 34.67 59.92-34.67v-69.476l-59.92-34.806-59.79 34.806z" fill="#497FA1" fill-opacity=".3"/><path d="M1270.81 1008.81v69.47l59.78 34.67 59.93-34.67v-69.47L1330.59 974l-59.78 34.81z" fill="#30567A" fill-opacity=".6"/><path d="M1270.81 332.806v69.476l59.78 34.67 59.93-34.67v-69.476L1330.59 298l-59.78 34.806z" fill="#497FA1"/><path d="M1335 668.854v69.476l59.79 34.67 59.92-34.67v-69.476l-59.92-34.806-59.79 34.806z" fill="#5EB1D9" fill-opacity=".3"/><path d="M1076 668.806v69.476l59.79 34.67 59.92-34.67v-69.476L1135.79 634 1076 668.806z" fill="#497FA1"/><path d="M1141 556.854v69.476l59.79 34.67 59.92-34.67v-69.476l-59.92-34.806-59.79 34.806z" fill="#497FA1" fill-opacity=".6"/><path d="M1141 1233.81v69.47l59.79 34.67 59.92-34.67v-69.47l-59.92-34.81-59.79 34.81z" fill="#5EB1D9" fill-opacity=".4"/></g><g opacity=".7"><path d="M1140 1007.81v69.47l59.79 34.67 59.92-34.67v-69.47l-59.92-34.809-59.79 34.809z" fill="#497FA1"/><path d="M1070.79 1334.67l-58.29-33.8v-67.75l58.29-33.94 58.42 33.94v67.74l-58.42 33.81zm0 451.55l-58.29-33.8v-67.75l58.29-33.93 58.42 33.93v67.75l-58.42 33.8zm64-563.95l-58.29-33.8v-67.75l58.29-33.94 58.42 33.94v67.75l-58.42 33.8z" stroke="#4980A3" stroke-width="3"/><path d="M1011 1007.81v69.47l59.79 34.67 59.92-34.67v-69.47l-59.92-34.809-59.79 34.809z" fill="#5EB1D9"/><path d="M1075.81 1345.86v69.47l59.78 34.67 59.93-34.67v-69.47l-59.93-34.81-59.78 34.81z" fill="#5EB1D9" fill-opacity=".5"/><path d="M1269 1231.86v69.47l59.79 34.67 59.92-34.67v-69.47l-59.92-34.81-59.79 34.81z" fill="#497FA1" fill-opacity=".3"/><path d="M1075.81 1571.81v69.47l59.78 34.67 59.93-34.67v-69.47l-59.93-34.81-59.78 34.81z" fill="#30567A" fill-opacity=".6"/><path d="M1075.81 895.807v69.476l59.78 34.67 59.93-34.67v-69.476l-59.93-34.806-59.78 34.806z" fill="#497FA1"/><path d="M1140 1231.86v69.47l59.79 34.67 59.92-34.67v-69.47l-59.92-34.81-59.79 34.81z" fill="#5EB1D9" fill-opacity=".3"/><path d="M1140 1458.81v69.47l59.79 34.67 59.92-34.67v-69.47l-59.92-34.81-59.79 34.81z" fill="#497FA1" fill-opacity=".6"/><path d="M881 1231.81v69.47l59.788 34.67 59.922-34.67v-69.47L940.788 1197 881 1231.81z" fill="#497FA1"/><path d="M946 1119.86v69.47l59.79 34.67 59.92-34.67v-69.47l-59.92-34.81-59.79 34.81z" fill="#497FA1" fill-opacity=".6"/><path d="M946 1345.81v69.47l59.79 34.67 59.92-34.67v-69.47l-59.92-34.81-59.79 34.81z" fill="#5EB1D9"/><path d="M946 1796.81v69.47l59.79 34.67 59.92-34.67v-69.47l-59.92-34.81-59.79 34.81z" fill="#5EB1D9" fill-opacity=".4"/></g><path d="M1288.64 1137.79v-51l43.89-25.45 43.99 25.45v51l-43.99 25.55-43.89-25.55z" fill="#497FA1"/><path d="M1335.78 1055.41v-51l43.89-25.447 43.99 25.447v51l-43.99 25.55-43.89-25.55z" fill="#497FA1" fill-opacity=".6"/><path d="M1237.84 898.312l-42.39 24.58v49.274l42.39 24.677 42.48-24.678v-49.272l-42.48-24.581zm0-331.473l-42.39 24.581v49.273l42.39 24.678 42.48-24.679v-49.271l-42.48-24.582zm46.98 413.98l-42.39 24.581v49.27l42.39 24.68 42.48-24.68v-49.27l-42.48-24.581z" stroke="#4980A3" stroke-width="3"/><path d="M1193.95 1137.79v-51l43.89-25.45 43.98 25.45v51l-43.98 25.55-43.89-25.55z" fill="#5EB1D9"/><path d="M1383.34 973.32v-51l43.89-25.45 43.98 25.45v51l-43.98 25.551-43.89-25.551z" fill="#497FA1" fill-opacity=".3"/><path d="M1241.52 723.772v-51.001l43.89-25.45 43.99 25.45v51.001l-43.99 25.55-43.89-25.55z" fill="#30567A" fill-opacity=".6"/><path d="M1241.52 1220v-51l43.89-25.45 43.99 25.45v51l-43.99 25.55-43.89-25.55z" fill="#497FA1"/><path d="M1288.64 973.32v-51l43.89-25.45 43.99 25.45v51l-43.99 25.551-43.89-25.551z" fill="#5EB1D9"/><path d="M1288.64 806.721v-51l43.89-25.45 43.99 25.45v51l-43.99 25.55-43.89-25.55z" fill="#497FA1" fill-opacity=".6"/><path d="M1098.52 973.356v-51.001l43.89-25.45 43.98 25.45v51.001l-43.98 25.55-43.89-25.55z" fill="#497FA1"/><path d="M1146.23 1055.54v-51l43.89-25.454 43.99 25.454v51l-43.99 25.55-43.89-25.55z" fill="#497FA1" fill-opacity=".6"/><path d="M1146.23 558.606v-51.001l43.89-25.45 43.99 25.45v51.001l-43.99 25.55-43.89-25.55z" fill="#5EB1D9" fill-opacity=".4"/><path d="M1333 1073.64v146.5l126.36 73.11 126.64-73.11v-146.5l-126.64-73.39-126.36 73.39z" fill="#5EB1D9" fill-opacity=".25"/><path d="M1541.77 935.577l71.65 41.619v83.424l-71.65 41.78-71.82-41.78v-83.423l71.82-41.62z" stroke="#437090" stroke-width="3"/><circle cx="1541.68" cy="935.608" r="7.059" fill="#437090"/><circle cx="1541.68" cy="1101.49" r="7.059" fill="#437090"/><circle cx="1470.21" cy="977.078" r="7.059" fill="#437090"/><circle cx="1470.21" cy="1060.02" r="7.059" fill="#437090"/><circle cx="1613.16" cy="977.078" r="7.059" fill="#437090"/><circle cx="1613.16" cy="1060.02" r="7.059" fill="#437090"/><path d="M1250.42 910.899l95.68 55.571v111.38l-95.68 55.79-95.89-55.79V966.471l95.89-55.572z" stroke="#5397BC" stroke-width="3"/><circle cx="1250.31" cy="911.509" r="9.377" fill="#5397BC"/><circle cx="1250.31" cy="1131.86" r="9.377" fill="#5397BC"/><circle cx="1155.38" cy="966.596" r="9.377" fill="#5397BC"/><circle cx="1155.38" cy="1076.77" r="9.377" fill="#5397BC"/><circle cx="1345.25" cy="966.596" r="9.377" fill="#5397BC"/><circle cx="1345.25" cy="1076.77" r="9.377" fill="#5397BC"/><path d="M1061.27 1115.18l127.14 73.84v148l-127.14 74.14-127.425-74.14v-148l127.425-73.84z" stroke="#5397BC" stroke-width="3"/><circle cx="1061.13" cy="1116.54" r="12.412" fill="#5397BC"/><circle cx="1061.13" cy="1408.24" r="12.412" fill="#5397BC"/><circle cx="935.448" cy="1189.47" r="12.412" fill="#5397BC"/><circle cx="935.448" cy="1335.31" r="12.412" fill="#5397BC"/><circle cx="1186.8" cy="1189.47" r="12.412" fill="#5397BC"/><circle cx="1186.8" cy="1335.31" r="12.412" fill="#5397BC"/><path d="M1242.97 2260.31v46.94l40.4 23.42 40.48-23.42v-46.94l-40.48-23.51-40.4 23.51z" fill="#497FA1"/><path d="M1286.36 2336.12v46.94l40.39 23.42 40.48-23.42v-46.94l-40.48-23.51-40.39 23.51z" fill="#497FA1" fill-opacity=".6"/><path d="M1196.22 2480.57l-38.89-22.56v-45.21l38.89-22.64 38.98 22.65v45.2l-38.98 22.56zm43.23-75.94l-38.89-22.55v-45.21l38.89-22.64 38.99 22.64v45.21l-38.99 22.55z" stroke="#4980A3" stroke-width="3"/><path d="M1155.83 2260.31v46.94l40.39 23.42 40.48-23.42v-46.94l-40.48-23.51-40.39 23.51zm43.78 228.38v46.94l40.39 23.42 40.48-23.42v-46.94l-40.48-23.51-40.39 23.51z" fill="#5EB1D9"/><path d="M1330.12 2411.67v46.94l40.4 23.42 40.48-23.42v-46.94l-40.48-23.51-40.4 23.51z" fill="#497FA1" fill-opacity=".3"/><path d="M1199.61 2641.34v46.93l40.39 23.43 40.48-23.43v-46.93l-40.48-23.52-40.39 23.52z" fill="#30567A" fill-opacity=".6"/><path d="M1199.61 2184.65v46.93L1240 2255l40.48-23.42v-46.93l-40.48-23.52-40.39 23.52z" fill="#497FA1"/><path d="M1242.97 2411.67v46.94l40.4 23.42 40.48-23.42v-46.94l-40.48-23.51-40.4 23.51z" fill="#5EB1D9"/><path d="M1242.97 2565v46.93l40.4 23.43 40.48-23.43V2565l-40.48-23.52-40.4 23.52z" fill="#497FA1" fill-opacity=".6"/><path d="M1068 2411.64v46.94l40.39 23.42 40.49-23.42v-46.94l-40.49-23.51-40.39 23.51z" fill="#497FA1"/><path d="M1111.91 2336.01v46.94l40.39 23.42 40.49-23.42v-46.94l-40.49-23.52-40.39 23.52z" fill="#497FA1" fill-opacity=".6"/><path d="M1111.91 2488.66v46.93l40.39 23.43 40.49-23.43v-46.93l-40.49-23.52-40.39 23.52z" fill="#5EB1D9"/><path d="M1972.03 1623.31v46.94l-40.4 23.42-40.48-23.42v-46.94l40.48-23.51 40.4 23.51z" fill="#497FA1"/><path d="M1928.64 1699.12v46.94l-40.39 23.42-40.48-23.42v-46.94l40.48-23.51 40.39 23.51z" fill="#497FA1" fill-opacity=".6"/><path d="M2018.78 1843.57l38.89-22.56v-45.21l-38.89-22.64-38.98 22.65v45.2l38.98 22.56zm0 305.06l38.89-22.55v-45.21l-38.89-22.65-38.98 22.65v45.2l38.98 22.56zm-43.24-381l38.9-22.55v-45.21l-38.9-22.64-38.98 22.64v45.21l38.98 22.55z" stroke="#4980A3" stroke-width="3"/><path d="M2059.17 1623.31v46.94l-40.39 23.42-40.48-23.42v-46.94l40.48-23.51 40.39 23.51zm-43.78 228.38v46.94l-40.39 23.42-40.48-23.42v-46.94l40.48-23.51 40.39 23.51z" fill="#5EB1D9"/><path d="M1884.88 1774.67v46.94l-40.4 23.42-40.48-23.42v-46.94l40.48-23.51 40.4 23.51z" fill="#497FA1" fill-opacity=".3"/><path d="M2015.39 2004.34v46.93L1975 2074.7l-40.48-23.43v-46.93l40.48-23.52 40.39 23.52zm88.49-457.69v46.93l-40.4 23.42-40.48-23.42v-46.93l40.48-23.52 40.4 23.52z" fill="#30567A" fill-opacity=".6"/><path d="M2147.88 1622.65v46.93l-40.4 23.42-40.48-23.42v-46.93l40.48-23.52 40.4 23.52zm44 76v46.93l-40.4 23.42-40.48-23.42v-46.93l40.48-23.52 40.4 23.52z" fill="#497FA1"/><path d="M1972.03 1774.67v46.94l-40.4 23.42-40.48-23.42v-46.94l40.48-23.51 40.4 23.51z" fill="#5EB1D9"/><path d="M1972.03 1928v46.93l-40.4 23.43-40.48-23.43V1928l40.48-23.52 40.4 23.52z" fill="#497FA1" fill-opacity=".6"/><path d="M2147 1774.64v46.94l-40.39 23.42-40.49-23.42v-46.94l40.49-23.51 40.39 23.51z" fill="#497FA1"/><path d="M2103.09 1699.01v46.94l-40.39 23.42-40.49-23.42v-46.94l40.49-23.52 40.39 23.52z" fill="#497FA1" fill-opacity=".6"/><path d="M2103.09 1851.66v46.93l-40.39 23.43-40.49-23.43v-46.93l40.49-23.52 40.39 23.52z" fill="#5EB1D9"/><path d="M2103.09 2156.34v46.94l-40.39 23.42-40.49-23.42v-46.94l40.49-23.51 40.39 23.51z" fill="#5EB1D9" fill-opacity=".4"/><path d="M1111.85 2231.52v-46.93l40.39-23.43 40.49 23.43v46.93l-40.49 23.52-40.39-23.52z" fill="#497FA1"/><path d="M1155.23 2155.71v-46.94l40.39-23.42 40.49 23.42v46.94l-40.49 23.52-40.39-23.52z" fill="#497FA1" fill-opacity=".6"/><path d="M1065.09 2011.27l-38.89 22.55v45.21l38.89 22.64 38.99-22.64v-45.21l-38.99-22.55zm0-305.06l-38.89 22.55v45.21l38.89 22.64 38.99-22.64v-45.21l-38.99-22.55zm43.24 380.99l-38.89 22.55v45.21l38.89 22.64 38.98-22.64v-45.21l-38.98-22.55z" stroke="#4980A3" stroke-width="3"/><path d="M1024.7 2231.52v-46.93l40.39-23.43 40.49 23.43v46.93l-40.49 23.52-40.39-23.52zm43.78-228.38v-46.93l40.39-23.43 40.49 23.43v46.93l-40.49 23.52-40.39-23.52z" fill="#5EB1D9"/><path d="M1199 2080.16v-46.94l40.39-23.42 40.49 23.42v46.94l-40.49 23.51-40.39-23.51z" fill="#497FA1" fill-opacity=".3"/><path d="M1068.48 1850.5v-46.94l40.39-23.42 40.49 23.42v46.94l-40.49 23.51-40.39-23.51zM980 2308.19v-46.94l40.39-23.42 40.49 23.42v46.94l-40.49 23.51-40.39-23.51z" fill="#30567A" fill-opacity=".6"/><path d="M936 2232.19v-46.94l40.392-23.42 40.488 23.42v46.94l-40.488 23.51L936 2232.19zm-44-76v-46.94l40.392-23.42 40.483 23.42v46.94l-40.483 23.51L892 2156.19z" fill="#497FA1"/><path d="M1111.85 2080.16v-46.94l40.39-23.42 40.49 23.42v46.94l-40.49 23.51-40.39-23.51z" fill="#5EB1D9"/><path d="M1111.85 1926.84v-46.94l40.39-23.42 40.49 23.42v46.94l-40.49 23.51-40.39-23.51z" fill="#497FA1" fill-opacity=".6"/><path d="M936.875 2080.19v-46.93l40.392-23.43 40.483 23.43v46.93l-40.483 23.52-40.392-23.52z" fill="#497FA1"/><path d="M980.788 2155.82v-46.93l40.392-23.42 40.48 23.42v46.93l-40.48 23.52-40.392-23.52z" fill="#497FA1" fill-opacity=".6"/><path d="M980.788 2003.18v-46.94l40.392-23.42 40.48 23.42v46.94l-40.48 23.51-40.392-23.51z" fill="#5EB1D9"/><path d="M980.788 1698.49v-46.94l40.392-23.42 40.48 23.42v46.94l-40.48 23.51-40.392-23.51z" fill="#5EB1D9" fill-opacity=".4"/><path d="M2046.61 1469.15l71.66 41.62v83.43l-71.66 41.78-71.82-41.79v-83.42l71.82-41.62z" stroke="#437090" stroke-width="3"/><circle cx="2046.53" cy="1469.18" r="7.059" fill="#437090"/><circle cx="2046.53" cy="1635.07" r="7.059" fill="#437090"/><circle cx="1975.06" cy="1510.66" r="7.059" fill="#437090"/><circle cx="1975.06" cy="1593.6" r="7.059" fill="#437090"/><circle cx="2118" cy="1510.66" r="7.059" fill="#437090"/><circle cx="2118" cy="1593.6" r="7.059" fill="#437090"/><path d="M1308.61 2270.16l71.66 41.62v83.42l-71.66 41.78-71.82-41.78v-83.42l71.82-41.62z" stroke="#5BAED4" stroke-width="3"/><circle cx="1308.53" cy="2270.19" r="7.059" fill="#5BAED4"/><circle cx="1308.53" cy="2436.07" r="7.059" fill="#5BAED4"/><circle cx="1237.06" cy="2311.66" r="7.059" fill="#5BAED4"/><circle cx="1237.06" cy="2394.6" r="7.059" fill="#5BAED4"/><circle cx="1380" cy="2311.66" r="7.059" fill="#5BAED4"/><circle cx="1380" cy="2394.6" r="7.059" fill="#5BAED4"/><path d="M1121.61 2405.16l71.66 41.62v83.42l-71.66 41.78-71.82-41.78v-83.42l71.82-41.62z" stroke="#5BAED4" stroke-width="3"/><circle cx="1121.53" cy="2405.19" r="7.059" fill="#5BAED4"/><circle cx="1121.53" cy="2571.07" r="7.059" fill="#5BAED4"/><circle cx="1050.06" cy="2446.66" r="7.059" fill="#5BAED4"/><circle cx="1050.06" cy="2529.6" r="7.059" fill="#5BAED4"/><circle cx="1193" cy="2446.66" r="7.059" fill="#5BAED4"/><circle cx="1193" cy="2529.6" r="7.059" fill="#5BAED4"/><g filter="url(#filter0_f_12_12664)"><ellipse cx="1192.5" cy="2229.13" rx="524.5" ry="501" fill="#262841" fill-opacity=".8"/></g><g filter="url(#filter1_f_12_12664)"><ellipse cx="1924.5" cy="1767.13" rx="524.5" ry="447" fill="#262841" fill-opacity=".9"/></g><g filter="url(#filter2_f_12_12664)"><ellipse cx="1380.5" cy="1294.63" rx="580.5" ry="494.5" fill="#262841" fill-opacity=".6"/></g><defs><filter id="filter0_f_12_12664" x="68" y="1128.13" width="2249" height="2202" filterUnits="userSpaceOnUse" color-interpolation-filters="sRGB"><feFlood flood-opacity="0" result="BackgroundImageFix"/><feBlend in="SourceGraphic" in2="BackgroundImageFix" result="shape"/><feGaussianBlur stdDeviation="300" result="effect1_foregroundBlur_12_12664"/></filter><filter id="filter1_f_12_12664" x="800" y="720.132" width="2249" height="2094" filterUnits="userSpaceOnUse" color-interpolation-filters="sRGB"><feFlood flood-opacity="0" result="BackgroundImageFix"/><feBlend in="SourceGraphic" in2="BackgroundImageFix" result="shape"/><feGaussianBlur stdDeviation="300" result="effect1_foregroundBlur_12_12664"/></filter><filter id="filter2_f_12_12664" x="0" y=".133" width="2761" height="2589" filterUnits="userSpaceOnUse" color-interpolation-filters="sRGB"><feFlood flood-opacity="0" result="BackgroundImageFix"/><feBlend in="SourceGraphic" in2="BackgroundImageFix" result="shape"/><feGaussianBlur stdDeviation="400" result="effect1_foregroundBlur_12_12664"/></filter></defs></svg>