<svg width="2838" height="3576" fill="none" xmlns="http://www.w3.org/2000/svg"><path d="M731.001 995.394v146.496L857.358 1215l126.643-73.11V995.394L857.358 922l-126.357 73.394z" fill="#5EB1D9" fill-opacity=".25"/><path d="M849.248 1966.89l106.641 61.94v124.15l-106.641 62.19-106.885-62.19v-124.14l106.885-61.95z" stroke="#345575" stroke-width="3"/><circle cx="849.126" cy="1967.77" r="10.435" fill="#345575"/><circle cx="849.126" cy="2212.99" r="10.435" fill="#345575"/><circle cx="743.471" cy="2029.07" r="10.435" fill="#345575"/><circle cx="743.471" cy="2151.69" r="10.435" fill="#345575"/><circle cx="954.781" cy="2029.07" r="10.435" fill="#345575"/><circle cx="954.781" cy="2151.69" r="10.435" fill="#345575"/><path d="M942.016 2430.26v-69.84l-60.096-34.85-60.233 34.85v69.84l60.233 34.98 60.096-34.98z" fill="#28324E"/><path d="M814.234 2213.42l58.597 33.98v68.11l-58.597 34.11-58.732-34.11v-68.11l58.732-33.98zm193.386-112.8l58.6 33.98v68.1l-58.6 34.12-58.732-34.12v-68.1l58.732-33.98z" stroke="#28324E" stroke-width="3"/><path d="M959.296 2435.16l79.414 46.11v92.4l-79.414 46.28-79.593-46.28v-92.4" stroke="#28324E" stroke-width="3" stroke-dasharray="7 7"/><path d="M1002.18 2089.68v-69.83L942.085 1985l-60.233 34.85v69.83l60.233 34.99 60.095-34.99zm-64.461 113.89v-69.84l-60.097-34.85-60.233 34.85v69.84l60.233 34.98 60.097-34.98zm193.391 112.8v-69.83l-60.1-34.85-60.23 34.85v69.83l60.23 34.99 60.1-34.99z" fill="#28324E"/><path d="M1003.26 2326.65l67.14 37.6 71.99-41.9 1.61-82.19-73.6-43.51" stroke="#28324E" stroke-width="3" stroke-dasharray="7 7"/><circle cx="1070.4" cy="2196.11" r="8.058" fill="#28324E"/><circle cx="957.595" cy="2434.62" r="8.058" fill="#28324E"/><circle cx="1007.02" cy="2328.26" r="8.058" fill="#28324E"/><circle cx="879.166" cy="2479.75" r="8.058" fill="#28324E"/><path d="M1551.02 2119.26v-69.84l-60.1-34.85-60.23 34.85v69.84l60.23 34.98 60.1-34.98z" fill="#28324E"/><path d="M1423.23 1902.42l58.6 33.98v68.11l-58.6 34.11-58.73-34.11v-68.11l58.73-33.98zm193.39-112.8l58.6 33.98v68.1l-58.6 34.12-58.73-34.12v-68.1l58.73-33.98z" stroke="#28324E" stroke-width="3"/><path d="M1568.3 2124.16l79.41 46.11v92.4l-79.41 46.28-79.6-46.28v-92.4" stroke="#28324E" stroke-width="3" stroke-dasharray="7 7"/><path d="M1611.18 1778.68v-69.83l-60.1-34.85-60.23 34.85v69.83l60.23 34.99 60.1-34.99zm-64.46 113.89v-69.84l-60.1-34.85-60.23 34.85v69.84l60.23 34.98 60.1-34.98zm193.39 112.8v-69.83l-60.1-34.85-60.23 34.85v69.83l60.23 34.99 60.1-34.99z" fill="#28324E"/><path d="M1612.26 2015.65l67.14 37.6 71.99-41.9 1.61-82.19-73.6-43.51" stroke="#28324E" stroke-width="3" stroke-dasharray="7 7"/><circle cx="1679.4" cy="1885.11" r="8.058" fill="#28324E"/><circle cx="1566.59" cy="2123.62" r="8.058" fill="#28324E"/><circle cx="1616.02" cy="2017.26" r="8.058" fill="#28324E"/><circle cx="1488.17" cy="2168.75" r="8.058" fill="#28324E"/><path d="M1929.96 1931.82v-69.47l-59.79-34.67-59.92 34.67v69.47l59.92 34.81 59.79-34.81z" fill="#364F6C"/><path d="M1802.83 1716.11l58.29 33.8v67.75l-58.29 33.93-58.42-33.93v-67.75l58.42-33.8z" stroke="#28324E" stroke-width="3"/><path d="M1995.23 1603.88l58.29 33.8v67.75l-58.29 33.93-58.42-33.93v-67.75l58.42-33.8z" stroke="#477699" stroke-width="3"/><path d="M1989.82 1818.52v-69.48l-59.79-34.66-59.93 34.66v69.48l59.93 34.81 59.79-34.81z" fill="#31445F"/><path d="M1989.82 2046.02v-69.47l-59.79-34.67-59.93 34.67v69.47l59.93 34.81 59.79-34.81zm0-453.03v-69.47l-59.79-34.67-59.93 34.67v69.47l59.93 34.81 59.79-34.81z" fill="#324662"/><path d="M1925.69 1706.29v-69.47l-59.79-34.67-59.93 34.67v69.47l59.93 34.81 59.79-34.81z" fill="#375270"/><path d="M2118.08 1818.52v-69.47l-59.79-34.67-59.92 34.67v69.47l59.92 34.81 59.79-34.81z" fill="#31445F"/><path d="M1990.89 1828.74l66.8 37.41 71.61-41.68 1.61-81.77-73.22-43.29" stroke="#28324E" stroke-width="3" stroke-dasharray="7 7"/><circle cx="2057.69" cy="1698.88" r="8.016" fill="#324662"/><circle cx="1994.63" cy="1830.35" r="8.016" fill="#324662"/><path d="M889.925 2573.26l58.289 33.8v67.75l-58.289 33.94-58.423-33.94v-67.75l58.423-33.8z" stroke="#28324E" stroke-width="3"/><path d="M1082.32 2461.03l58.29 33.8v67.75l-58.29 33.94-58.42-33.94v-67.75l58.42-33.8z" stroke="#477699" stroke-width="3"/><path d="M1076.91 2903.18v-69.48l-59.79-34.67-59.924 34.67v69.48l59.924 34.8 59.79-34.8zm0-453.03v-69.48l-59.79-34.67-59.924 34.67v69.48l59.924 34.8 59.79-34.8z" fill="#324662"/><path d="M1012.78 2563.44v-69.47l-59.792-34.67-59.924 34.67v69.47l59.924 34.81 59.792-34.81z" fill="#375270"/><path d="M1205.17 2675.67v-69.47l-59.79-34.67-59.92 34.67v69.47l59.92 34.81 59.79-34.81z" fill="#31445F"/><path d="M1077.98 2685.9l66.8 37.41 71.61-41.69 1.61-81.76-73.22-43.29" stroke="#28324E" stroke-width="3" stroke-dasharray="7 7"/><circle cx="1144.78" cy="2556.03" r="8.016" fill="#324662"/><circle cx="1081.72" cy="2687.5" r="8.016" fill="#324662"/><path d="M1420.05 2484.57v69.48l-59.79 34.67-59.92-34.67v-69.48l59.92-34.8 59.79 34.8z" fill="#2C3852"/><path d="M1292.92 2700.28l58.29-33.8v-67.75l-58.29-33.93-58.42 33.93v67.75l58.42 33.8z" stroke="#28324E" stroke-width="3"/><path d="M1437.24 2479.69l79.01-45.87v-91.92l-79.01-46.05-79.18 46.05v91.92" stroke="#28324E" stroke-width="3" stroke-dasharray="7 7"/><path d="M1479.91 2823.4v69.48l-59.79 34.67-59.93-34.67v-69.48l59.93-34.81 59.79 34.81zm128.26-225.53v69.48l-59.79 34.67-59.92-34.67v-69.48l59.92-34.81 59.79 34.81z" fill="#28324E"/><path d="M1480.98 2587.65l66.8-37.41 71.61 41.68 1.61 81.77-73.22 43.29" stroke="#28324E" stroke-width="3" stroke-dasharray="7 7"/><circle cx="8.016" cy="8.016" r="8.016" transform="matrix(1 0 0 -1 1539.76 2725.53)" fill="#28324E"/><circle cx="8.016" cy="8.016" r="8.016" transform="matrix(1 0 0 -1 1427.53 2488.25)" fill="#28324E"/><circle cx="8.016" cy="8.016" r="8.016" transform="matrix(1 0 0 -1 1476.7 2594.06)" fill="#28324E"/><circle cx="8.016" cy="8.016" r="8.016" transform="matrix(1 0 0 -1 1349.51 2443.35)" fill="#28324E"/><path d="M1758.88 2362.72v69.48l-59.79 34.67-59.92-34.67v-69.48l59.92-34.8 59.79 34.8zm-127.13 215.71l58.29-33.8v-67.75l-58.29-33.93-58.42 33.93v67.75l58.42 33.8zm192.4 112.23l58.29-33.8v-67.75l-58.29-33.93-58.43 33.93v67.75l58.43 33.8z" stroke="#28324E" stroke-width="3"/><path d="M1776.07 2357.84l79.01-45.87v-91.92l-79.01-46.05-79.18 46.05v91.92" stroke="#28324E" stroke-width="3" stroke-dasharray="7 7"/><path d="M1818.74 2476.02v69.48l-59.79 34.67-59.93-34.67v-69.48l59.93-34.81 59.79 34.81zm-64.13 112.23v69.48l-59.79 34.67-59.93-34.67v-69.48l59.93-34.81 59.79 34.81zM1947 2476.02v69.48l-59.79 34.67-59.92-34.67v-69.48l59.92-34.81 59.79 34.81z" fill="#28324E"/><path d="M1819.81 2465.8l66.8-37.41 71.61 41.68 1.61 81.77-73.22 43.29" stroke="#28324E" stroke-width="3" stroke-dasharray="7 7"/><circle cx="8.016" cy="8.016" r="8.016" transform="matrix(1 0 0 -1 1878.59 2603.68)" fill="#28324E"/><circle cx="8.016" cy="8.016" r="8.016" transform="matrix(1 0 0 -1 1766.36 2366.39)" fill="#28324E"/><circle cx="8.016" cy="8.016" r="8.016" transform="matrix(1 0 0 -1 1815.53 2472.21)" fill="#28324E"/><circle cx="8.016" cy="8.016" r="8.016" transform="matrix(1 0 0 -1 1688.34 2321.5)" fill="#28324E"/><path d="M2059.29 1182.69v69.47l-59.79 34.67-59.92-34.67v-69.47l59.92-34.81 59.79 34.81z" fill="#28324E"/><path d="M1932.17 1398.4l58.28-33.8v-67.75l-58.28-33.93-58.43 33.93v67.75l58.43 33.8zm192.39 112.23l58.29-33.8v-67.75l-58.29-33.93-58.42 33.93v67.75l58.42 33.8z" stroke="#28324E" stroke-width="3"/><path d="M2076.48 1177.81l79.01-45.87v-91.92l-79.01-46.055-79.18 46.055v91.92" stroke="#28324E" stroke-width="3" stroke-dasharray="7 7"/><path d="M2119.15 1295.99v69.47l-59.79 34.67-59.92-34.67v-69.47l59.92-34.81 59.79 34.81zm0 225.53v69.47l-59.79 34.67-59.92-34.67v-69.47l59.92-34.81 59.79 34.81zm-64.13-113.3v69.47l-59.79 34.67-59.93-34.67v-69.47l59.93-34.81 59.79 34.81zm192.39-112.23v69.47l-59.79 34.67-59.92-34.67v-69.47l59.92-34.81 59.79 34.81z" fill="#28324E"/><path d="M2120.22 1285.76l66.8-37.41 71.62 41.69 1.6 81.77-73.22 43.29" stroke="#28324E" stroke-width="3" stroke-dasharray="7 7"/><circle cx="8.016" cy="8.016" r="8.016" transform="matrix(1 0 0 -1 2179.01 1423.65)" fill="#28324E"/><circle cx="8.016" cy="8.016" r="8.016" transform="matrix(1 0 0 -1 2066.77 1186.36)" fill="#28324E"/><circle cx="8.016" cy="8.016" r="8.016" transform="matrix(1 0 0 -1 2115.94 1292.18)" fill="#28324E"/><circle cx="8.016" cy="8.016" r="8.016" transform="matrix(1 0 0 -1 1988.75 1141.47)" fill="#28324E"/><path d="M1611.92 1030.84l58.29-33.799v-67.75l-58.29-33.933-58.42 33.934v67.748l58.42 33.8z" stroke="#28324E" stroke-width="3"/><path d="M1804.32 1143.07l58.29-33.8v-67.75l-58.29-33.93-58.42 33.93v67.75l58.42 33.8z" stroke="#2C3752" stroke-width="3"/><path d="M1798.91 1153.96v69.47l-59.79 34.67-59.93-34.67v-69.47l59.93-34.81 59.79 34.81zm-64.13-113.3v69.48l-59.79 34.67-59.93-34.67v-69.48l59.93-34.81 59.79 34.81zm192.39-112.231v69.476l-59.79 34.665-59.92-34.665v-69.476l59.92-34.806 59.79 34.806z" fill="#2D3A55"/><path d="M1799.98 918.206l66.8-37.41 71.61 41.686 1.61 81.768-73.22 43.29" stroke="#28324E" stroke-width="3" stroke-dasharray="7 7"/><circle cx="8.016" cy="8.016" r="8.016" transform="matrix(1 0 0 -1 1858.76 1056.09)" fill="#2D3A55"/><circle cx="8.016" cy="8.016" r="8.016" transform="matrix(1 0 0 -1 1795.7 924.619)" fill="#2D3A55"/><circle cx="8.016" cy="8.016" r="8.016" transform="matrix(1 0 0 -1 1668.51 773.91)" fill="#2D3A55"/><path d="M1928.19 1153.78v69.5l-59.93 34.68-60.07-34.68v-69.5l60.07-34.82 59.93 34.82z" fill="#2D3A55"/><path d="M1026.21 2215.56l106.64 61.94v124.15l-106.64 62.18-106.882-62.18V2277.5l106.882-61.94z" stroke="#345575" stroke-width="3"/><circle cx="1026.09" cy="2216.43" r="10.435" fill="#345575"/><circle cx="1026.09" cy="2461.65" r="10.435" fill="#345575"/><circle cx="920.437" cy="2277.74" r="10.435" fill="#345575"/><circle cx="920.437" cy="2400.35" r="10.435" fill="#345575"/><circle cx="1131.75" cy="2277.74" r="10.435" fill="#345575"/><circle cx="1131.75" cy="2400.35" r="10.435" fill="#345575"/><path d="M1561.04 1854.92l-166.29-96.42v-193.25l166.29-96.81 166.67 96.81v193.25l-166.67 96.42z" stroke="#487D9E" stroke-opacity=".3" stroke-width="3"/><circle cx="1728.17" cy="1565.76" r="15.638" transform="rotate(180 1728.17 1565.76)" fill="#487D9E" fill-opacity=".3"/><circle cx="1561.36" cy="1471.52" r="15.638" transform="rotate(180 1561.36 1471.52)" fill="#487D9E" fill-opacity=".3"/><circle cx="1561.36" cy="1851.52" r="15.638" transform="rotate(180 1561.36 1851.52)" fill="#487D9E" fill-opacity=".3"/><circle cx="1396.64" cy="1565.76" r="15.638" transform="rotate(180 1396.64 1565.76)" fill="#487D9E" fill-opacity=".3"/><circle cx="1728.17" cy="1756.48" r="15.638" transform="rotate(180 1728.17 1756.48)" fill="#487D9E" fill-opacity=".3"/><circle cx="1396.64" cy="1756.48" r="15.638" transform="rotate(180 1396.64 1756.48)" fill="#487D9E" fill-opacity=".3"/><path d="M1175.66 1733.84v-69.48l59.79-34.67 59.92 34.67v69.48l-59.92 34.81-59.79-34.81z" fill="#28324E"/><path d="M1302.79 1518.13l-58.29 33.8v67.75l58.29 33.93 58.42-33.93v-67.75l-58.42-33.8zm-192.4-112.23l-58.29 33.8v67.75l58.29 33.93 58.43-33.93v-67.75l-58.43-33.8z" stroke="#28324E" stroke-width="3"/><path d="M1115.81 1620.54v-69.47l59.78-34.67 59.93 34.67v69.47l-59.93 34.81-59.78-34.81zM1099 1866.01v-69.47l59.79-34.67 59.92 34.67v69.47l-59.92 34.81-59.79-34.81zm16.81-471v-69.47l59.78-34.67 59.93 34.67v69.47l-59.93 34.81-59.78-34.81zm64.13 113.3v-69.48l59.79-34.66 59.92 34.66v69.48l-59.92 34.81-59.79-34.81zm-192.398 112.23v-69.47l59.788-34.67 59.92 34.67v69.47l-59.92 34.81-59.788-34.81z" fill="#28324E"/><path d="M1158.47 1738.72l-79.01 45.87v91.92l79.01 46.05 79.19-46.05v-91.92" stroke="#28324E" stroke-width="3" stroke-dasharray="7 7"/><circle cx="8.016" cy="8.016" r="8.016" transform="matrix(-1 0 0 1 1168.18 1730.17)" fill="#28324E"/><circle cx="8.016" cy="8.016" r="8.016" transform="matrix(-1 0 0 1 1246.21 1775.06)" fill="#28324E"/><path d="M1246.66 1170.84v-69.48l59.79-34.67 59.92 34.67v69.48l-59.92 34.81-59.79-34.81z" fill="#28324E"/><path d="M1376.79 955.6l-58.29 33.8v67.75l58.29 33.93 58.42-33.93v-67.749l-58.42-33.801zm-195.4-112.702l-58.29 33.801v67.749l58.29 33.934 58.43-33.935V876.7l-58.43-33.802z" stroke="#28324E" stroke-width="3"/><path d="M1186.81 1057.54v-69.475l59.78-34.669 59.93 34.669v69.475l-59.93 34.81-59.78-34.81zm-128.27 0v-69.475l59.79-34.669 59.92 34.669v69.475l-59.92 34.81-59.79-34.81z" fill="#28324E"/><path d="M1378.17 1097.87v81.2l-71.91 41.18-71.61-39.5v-82.88" stroke="#28324E" stroke-width="3" stroke-dasharray="7 7"/><circle cx="8.016" cy="8.016" r="8.016" transform="scale(-1 1) rotate(60 -1561.639 -519.097)" fill="#28324E"/><circle cx="8.016" cy="8.016" r="8.016" transform="scale(-1 1) rotate(60 -1634.334 -645.009)" fill="#28324E"/><g opacity=".2"><path d="M1123 424.673v69.476l59.79 34.669 59.92-34.669v-69.476l-59.92-34.807-59.79 34.807z" fill="#497FA1"/><path d="M1187.21 536.889v69.475l59.79 34.67 59.92-34.67v-69.475L1247 502.082l-59.79 34.807z" fill="#497FA1" fill-opacity=".6"/><path d="M1053.79 751.531l-58.29-33.8v-67.75l58.29-33.933 58.42 33.934v67.748l-58.42 33.801zm0 451.549l-58.29-33.8v-67.74l58.29-33.94 58.42 33.94v67.74l-58.42 33.8zm64-563.947l-58.29-33.801v-67.749l58.29-33.934 58.42 33.935v67.747l-58.42 33.802z" stroke="#4980A3" stroke-width="3"/><path d="M994 424.673v69.476l59.79 34.669 59.92-34.669v-69.476l-59.92-34.807L994 424.673z" fill="#5EB1D9"/><path d="M1252 648.721v69.475l59.79 34.67 59.92-34.67v-69.475l-59.92-34.807-59.79 34.807z" fill="#497FA1" fill-opacity=".3"/><path d="M1058.81 988.673v69.477l59.78 34.67 59.93-34.67v-69.477l-59.93-34.807-59.78 34.807z" fill="#30567A" fill-opacity=".6"/><path d="M1058.81 312.673v69.476l59.78 34.669 59.93-34.669v-69.476l-59.93-34.807-59.78 34.807z" fill="#497FA1"/><path d="M1123 648.721v69.475l59.79 34.67 59.92-34.67v-69.475l-59.92-34.807-59.79 34.807z" fill="#5EB1D9" fill-opacity=".3"/><path d="M864 648.673v69.476l59.788 34.669 59.924-34.669v-69.476l-59.924-34.807L864 648.673z" fill="#497FA1"/><path d="M929 536.721v69.475l59.788 34.67 59.922-34.67v-69.475l-59.922-34.807L929 536.721z" fill="#497FA1" fill-opacity=".6"/><path d="M929 1213.67v69.48l59.788 34.67 59.922-34.67v-69.48l-59.922-34.8-59.788 34.8z" fill="#5EB1D9" fill-opacity=".4"/></g><g opacity=".7"><path d="M1240 2117.81v69.47l59.79 34.67 59.92-34.67v-69.47l-59.92-34.81-59.79 34.81z" fill="#497FA1"/><path d="M1170.79 2444.66l-58.29-33.8v-67.74l58.29-33.94 58.42 33.94v67.74l-58.42 33.8zm0 451.56l-58.29-33.8v-67.75l58.29-33.94 58.42 33.94v67.75l-58.42 33.8zm64-563.95l-58.29-33.8v-67.75l58.29-33.94 58.42 33.94v67.75l-58.42 33.8z" stroke="#4980A3" stroke-width="3"/><path d="M1111 2117.81v69.47l59.79 34.67 59.92-34.67v-69.47l-59.92-34.81-59.79 34.81z" fill="#5EB1D9"/><path d="M1175.81 2455.85v69.48l59.78 34.67 59.93-34.67v-69.48l-59.93-34.8-59.78 34.8z" fill="#5EB1D9" fill-opacity=".5"/><path d="M1369 2341.85v69.48l59.79 34.67 59.92-34.67v-69.48l-59.92-34.8-59.79 34.8z" fill="#497FA1" fill-opacity=".3"/><path d="M1175.81 2005.81v69.47l59.78 34.67 59.93-34.67v-69.47l-59.93-34.81-59.78 34.81z" fill="#497FA1"/><path d="M1240 2341.85v69.48l59.79 34.67 59.92-34.67v-69.48l-59.92-34.8-59.79 34.8z" fill="#5EB1D9" fill-opacity=".3"/><path d="M1240 2568.81v69.47l59.79 34.67 59.92-34.67v-69.47l-59.92-34.81-59.79 34.81z" fill="#497FA1" fill-opacity=".6"/><path d="M981 2341.81v69.47l59.79 34.67 59.92-34.67v-69.47l-59.92-34.81-59.79 34.81z" fill="#497FA1"/><path d="M1046 2229.85v69.48l59.79 34.67 59.92-34.67v-69.48l-59.92-34.8-59.79 34.8z" fill="#497FA1" fill-opacity=".6"/><path d="M1046 2455.81v69.47l59.79 34.67 59.92-34.67v-69.47l-59.92-34.81-59.79 34.81z" fill="#5EB1D9"/><path d="M1046 2906.81v69.47l59.79 34.67 59.92-34.67v-69.47l-59.92-34.81-59.79 34.81z" fill="#5EB1D9" fill-opacity=".4"/></g><path d="M1960.12 1511.63v-51l43.89-25.45 43.99 25.45v51l-43.99 25.55-43.89-25.55z" fill="#497FA1"/><path d="M2007.26 1429.26v-51l43.89-25.45 43.99 25.45v51l-43.99 25.55-43.89-25.55z" fill="#497FA1" fill-opacity=".6"/><path d="M1909.32 1272.16l-42.39 24.58v49.27l42.39 24.68 42.49-24.68v-49.27l-42.49-24.58zm0-331.477l-42.39 24.58v49.277l42.39 24.67 42.49-24.67v-49.276l-42.49-24.581zm46.98 413.977l-42.39 24.58v49.28l42.39 24.68 42.49-24.68v-49.28l-42.49-24.58z" stroke="#4980A3" stroke-width="3"/><path d="M1865.43 1511.63v-51l43.89-25.45 43.99 25.45v51l-43.99 25.55-43.89-25.55zm47.57-248.15v-51l43.89-25.45 43.99 25.45v51l-43.99 25.55-43.89-25.55z" fill="#5EB1D9"/><path d="M2054.82 1347.16v-51l43.89-25.45 43.99 25.45v51l-43.99 25.55-43.89-25.55z" fill="#497FA1" fill-opacity=".3"/><path d="M1913 1097.62v-51l43.89-25.45 43.99 25.45v51l-43.99 25.55-43.89-25.55z" fill="#30567A" fill-opacity=".6"/><path d="M1913 1593.85v-51l43.89-25.45 43.99 25.45v51l-43.99 25.55-43.89-25.55z" fill="#497FA1"/><path d="M1960.12 1347.16v-51l43.89-25.45 43.99 25.45v51l-43.99 25.55-43.89-25.55z" fill="#5EB1D9"/><path d="M1960.12 1180.56v-51l43.89-25.45 43.99 25.45v51l-43.99 25.55-43.89-25.55z" fill="#497FA1" fill-opacity=".6"/><path d="M1770 1347.2v-51l43.89-25.45 43.99 25.45v51l-43.99 25.55-43.89-25.55z" fill="#497FA1"/><path d="M1817.71 1429.38v-51l43.89-25.45 43.99 25.45v51l-43.99 25.55-43.89-25.55z" fill="#497FA1" fill-opacity=".6"/><path d="M1817.71 1263.51v-51l43.89-25.45 43.99 25.45v51l-43.99 25.55-43.89-25.55z" fill="#5EB1D9"/><path d="M1817.71 932.449v-51l43.89-25.45 43.99 25.45v51L1861.6 958l-43.89-25.551z" fill="#5EB1D9" fill-opacity=".4"/><path d="M1887.42 1280.77l95.68 55.57v111.38l-95.68 55.79-95.89-55.79v-111.38l95.89-55.57z" stroke="#5397BC" stroke-width="3"/><circle cx="1887.31" cy="1281.38" r="9.377" fill="#5397BC"/><circle cx="1887.31" cy="1501.72" r="9.377" fill="#5397BC"/><circle cx="1792.38" cy="1336.46" r="9.377" fill="#5397BC"/><circle cx="1792.38" cy="1446.64" r="9.377" fill="#5397BC"/><circle cx="1982.25" cy="1336.46" r="9.377" fill="#5397BC"/><circle cx="1982.25" cy="1446.64" r="9.377" fill="#5397BC"/><path d="M849.272 1095.04l127.135 73.85v148l-127.135 74.14-127.425-74.14v-148l127.425-73.85z" stroke="#5397BC" stroke-width="3"/><circle cx="849.127" cy="1096.41" r="12.412" fill="#5397BC"/><circle cx="849.127" cy="1388.11" r="12.412" fill="#5397BC"/><circle cx="723.45" cy="1169.34" r="12.412" fill="#5397BC"/><circle cx="723.45" cy="1315.18" r="12.412" fill="#5397BC"/><circle cx="974.804" cy="1169.34" r="12.412" fill="#5397BC"/><circle cx="974.804" cy="1315.18" r="12.412" fill="#5397BC"/><path d="M1611.97 2571.18v46.94l40.39 23.42 40.49-23.42v-46.94l-40.49-23.51-40.39 23.51z" fill="#497FA1"/><path d="M1565.22 3096.5l-38.9-22.56v-45.21l38.9-22.64 38.98 22.65v45.2l-38.98 22.56zm43.23-381l-38.89-22.55v-45.21l38.89-22.64 38.99 22.64v45.21l-38.99 22.55z" stroke="#4980A3" stroke-width="3"/><path d="M1524.82 2571.18v46.94l40.39 23.42 40.49-23.42v-46.94l-40.49-23.51-40.39 23.51zm43.78 228.38v46.94l40.4 23.42 40.48-23.42v-46.94l-40.48-23.52-40.4 23.52z" fill="#5EB1D9"/><path d="M1787 2572.51v46.94l40.39 23.42 40.49-23.42v-46.94l-40.49-23.51-40.39 23.51z" fill="#497FA1" fill-opacity=".3"/><path d="M1568.6 2952.21v46.93l40.4 23.42 40.48-23.42v-46.93l-40.48-23.52-40.4 23.52z" fill="#30567A" fill-opacity=".6"/><path d="M1743 2647.51v46.94l40.39 23.42 40.48-23.42v-46.94l-40.48-23.51-40.39 23.51z" fill="#497FA1"/><path d="M1611.97 2875.87v46.93l40.39 23.42 40.49-23.42v-46.93l-40.49-23.52-40.39 23.52z" fill="#497FA1" fill-opacity=".6"/><path d="M1480.91 2799.53v46.93l40.39 23.42 40.49-23.42v-46.93l-40.49-23.52-40.39 23.52z" fill="#5EB1D9"/><path d="M1480.91 3104.21v46.94l40.39 23.42 40.49-23.42v-46.94l-40.49-23.51-40.39 23.51z" fill="#5EB1D9" fill-opacity=".4"/><path d="M1109.15 976.47v-58.145l-50.04-29.014-50.15 29.014v58.145l50.15 29.13 50.04-29.13z" fill="#497FA1"/><path d="M1167.07 703.206l48.54 28.146v56.417l-48.54 28.257-48.65-28.258v-56.415l48.65-28.147zm0-377.903l48.54 28.145v56.418l-48.54 28.256-48.65-28.257v-56.416l48.65-28.146z" stroke="#4980A3" stroke-width="3"/><path d="M1217.11 976.47v-58.145l-50.04-29.014-50.15 29.014v58.145l50.15 29.13 50.04-29.13zm-54.24-282.912v-58.144l-50.03-29.015-50.16 29.015v58.144l50.16 29.13 50.03-29.13z" fill="#5EB1D9"/><path d="M1001.19 788.965v-58.144l-50.038-29.015-50.151 29.015v58.144l50.151 29.129 50.038-29.129z" fill="#497FA1" fill-opacity=".3"/><path d="M1162.87 504.46v-58.144l-50.03-29.015-50.16 29.015v58.144l50.16 29.129 50.03-29.129zm109.61 566.98v-58.14l-50.04-29.018-50.15 29.018v58.14l50.15 29.13 50.04-29.13z" fill="#30567A" fill-opacity=".6"/><path d="M1326.99 977.294V919.15l-50.04-29.015-50.15 29.015v58.144l50.15 29.126 50.04-29.126z" fill="#497FA1"/><path d="M1109.15 788.965v-58.144l-50.04-29.015-50.15 29.015v58.144l50.15 29.129 50.04-29.129z" fill="#5EB1D9"/><path d="M1109.15 599.029v-58.144l-50.04-29.015-50.15 29.015v58.144l50.15 29.129 50.04-29.129z" fill="#497FA1" fill-opacity=".6"/><path d="M1325.9 789.005v-58.144l-50.03-29.015-50.15 29.015v58.144l50.15 29.129 50.03-29.129z" fill="#497FA1"/><path d="M1271.51 693.599v-58.145l-50.04-29.015-50.15 29.015v58.145l50.15 29.129 50.04-29.129z" fill="#5EB1D9"/><path d="M1271.51 316.159v-58.144L1221.47 229l-50.15 29.015v58.144l50.15 29.129 50.04-29.129z" fill="#5EB1D9" fill-opacity=".4"/><path d="M1898.85 2418.39v-46.94l40.39-23.42 40.49 23.42v46.94l-40.49 23.51-40.39-23.51z" fill="#497FA1"/><path d="M1942.23 2342.58v-46.94l40.39-23.42 40.49 23.42v46.94l-40.49 23.51-40.39-23.51z" fill="#497FA1" fill-opacity=".6"/><path d="M1852.09 2198.13l-38.89 22.55v45.21l38.89 22.65 38.99-22.65v-45.2l-38.99-22.56zm0-305.06l-38.89 22.55v45.21l38.89 22.65 38.99-22.65v-45.2l-38.99-22.56zm43.24 381l-38.89 22.55v45.21l38.89 22.64 38.98-22.64v-45.21l-38.98-22.55z" stroke="#4980A3" stroke-width="3"/><path d="M1811.7 2418.39v-46.94l40.39-23.42 40.49 23.42v46.94l-40.49 23.51-40.39-23.51zm43.78-228.38v-46.94l40.39-23.42 40.49 23.42v46.94l-40.49 23.51-40.39-23.51z" fill="#5EB1D9"/><path d="M1986 2267.03v-46.94l40.39-23.42 40.49 23.42v46.94l-40.49 23.51-40.39-23.51z" fill="#497FA1" fill-opacity=".3"/><path d="M1855.48 2037.36v-46.93l40.39-23.43 40.49 23.43v46.93l-40.49 23.52-40.39-23.52zM1767 2495.05v-46.93l40.39-23.42 40.49 23.42v46.93l-40.49 23.52-40.39-23.52z" fill="#30567A" fill-opacity=".6"/><path d="M1723 2419.05v-46.93l40.39-23.42 40.49 23.42v46.93l-40.49 23.52-40.39-23.52zm-44-76v-46.93l40.39-23.42 40.49 23.42v46.93l-40.49 23.52-40.39-23.52z" fill="#497FA1"/><path d="M1898.85 2267.03v-46.94l40.39-23.42 40.49 23.42v46.94l-40.49 23.51-40.39-23.51z" fill="#5EB1D9"/><path d="M1898.85 2113.7v-46.93l40.39-23.43 40.49 23.43v46.93l-40.49 23.52-40.39-23.52z" fill="#497FA1" fill-opacity=".6"/><path d="M1723.88 2267.06v-46.94l40.39-23.42 40.48 23.42v46.94l-40.48 23.51-40.39-23.51z" fill="#497FA1"/><path d="M1767.79 2342.69v-46.94l40.39-23.42 40.48 23.42v46.94l-40.48 23.52-40.39-23.52z" fill="#497FA1" fill-opacity=".6"/><path d="M1767.79 2190.04v-46.93l40.39-23.43 40.48 23.43v46.93l-40.48 23.52-40.39-23.52z" fill="#5EB1D9"/><path d="M1767.79 1885.36v-46.94l40.39-23.42 40.48 23.42v46.94l-40.48 23.51-40.39-23.51z" fill="#5EB1D9" fill-opacity=".4"/><path d="M891.027 1802.39v-46.94l-40.392-23.42-40.484 23.42v46.94l40.484 23.51 40.392-23.51z" fill="#497FA1"/><path d="M847.646 1726.58v-46.94l-40.392-23.42-40.483 23.42v46.94l40.483 23.51 40.392-23.51z" fill="#497FA1" fill-opacity=".6"/><path d="M937.783 1582.13l38.893 22.56v45.21l-38.893 22.64-38.982-22.64v-45.21l38.982-22.56zm0-305.06l38.893 22.56v45.21l-38.893 22.64-38.982-22.64v-45.21l38.982-22.56zm-43.236 381l38.892 22.55v45.21l-38.892 22.64-38.983-22.64v-45.21l38.983-22.55z" stroke="#4980A3" stroke-width="3"/><path d="M978.176 1802.39v-46.94l-40.392-23.42-40.483 23.42v46.94l40.483 23.51 40.392-23.51zm-43.781-228.38v-46.93l-40.392-23.43-40.483 23.43v46.93l40.483 23.52 40.392-23.52z" fill="#5EB1D9"/><path d="M803.877 1651.03v-46.94l-40.392-23.42-40.484 23.42v46.94l40.484 23.51 40.392-23.51z" fill="#497FA1" fill-opacity=".3"/><path d="M934.395 1421.36v-46.93L894.003 1351l-40.483 23.43v46.93l40.483 23.52 40.392-23.52zm88.485 457.7v-46.94l-40.395-23.42-40.484 23.42v46.94l40.484 23.51 40.395-23.51z" fill="#30567A" fill-opacity=".6"/><path d="M1035.88 1466.36v-46.94L995.485 1396l-40.484 23.42v46.94l40.484 23.51 40.395-23.51zm-92.003 511v-46.94L903.485 1907l-40.484 23.42v46.94l40.484 23.51 40.392-23.51z" fill="#497FA1"/><path d="M891.027 1651.03v-46.94l-40.392-23.42-40.484 23.42v46.94l40.484 23.51 40.392-23.51z" fill="#5EB1D9"/><path d="M891.027 1497.7v-46.93l-40.392-23.42-40.484 23.42v46.93l40.484 23.52 40.392-23.52z" fill="#497FA1" fill-opacity=".6"/><path d="M1066 1651.06v-46.94l-40.39-23.42-40.484 23.42v46.94l40.484 23.52 40.39-23.52z" fill="#497FA1"/><path d="M1022.09 1726.69v-46.93l-40.393-23.43-40.483 23.43v46.93l40.483 23.52 40.393-23.52z" fill="#497FA1" fill-opacity=".6"/><path d="M1022.09 1574.04v-46.93l-40.393-23.42-40.483 23.42v46.93l40.483 23.52 40.393-23.52z" fill="#5EB1D9"/><path d="M1022.09 1269.36v-46.94L981.697 1199l-40.483 23.42v46.94l40.483 23.51 40.393-23.51z" fill="#5EB1D9" fill-opacity=".4"/><path d="M1142.61 1053.03l71.66 41.62v83.42l-71.66 41.78-71.81-41.78v-83.42l71.81-41.62z" stroke="#437090" stroke-width="3"/><circle cx="1142.53" cy="1053.06" r="7.059" fill="#437090"/><circle cx="1142.53" cy="1218.94" r="7.059" fill="#437090"/><circle cx="1071.06" cy="1094.53" r="7.059" fill="#437090"/><circle cx="1071.06" cy="1177.47" r="7.059" fill="#437090"/><circle cx="1214" cy="1094.53" r="7.059" fill="#437090"/><circle cx="1214" cy="1177.47" r="7.059" fill="#437090"/><path d="M1834.61 1449.02l71.66 41.62v83.42l-71.66 41.79-71.82-41.79v-83.42l71.82-41.62z" stroke="#437090" stroke-width="3"/><circle cx="1834.53" cy="1449.05" r="7.059" fill="#437090"/><circle cx="1834.53" cy="1614.93" r="7.059" fill="#437090"/><circle cx="1763.06" cy="1490.52" r="7.059" fill="#437090"/><circle cx="1763.06" cy="1573.46" r="7.059" fill="#437090"/><circle cx="1906" cy="1490.52" r="7.059" fill="#437090"/><circle cx="1906" cy="1573.46" r="7.059" fill="#437090"/><path d="M1002.61 849.028l71.66 41.619v83.423l-71.66 41.78-71.814-41.781v-83.421l71.814-41.62z" stroke="#437090" stroke-width="3"/><circle cx="1002.53" cy="849.059" r="7.059" fill="#437090"/><circle cx="1002.53" cy="1014.94" r="7.059" fill="#437090"/><circle cx="931.06" cy="890.53" r="7.059" fill="#437090"/><circle cx="931.06" cy="973.471" r="7.059" fill="#437090"/><circle cx="1074" cy="890.53" r="7.059" fill="#437090"/><circle cx="1074" cy="973.471" r="7.059" fill="#437090"/><path d="M1860.61 1948.03l71.66 41.62v83.42l-71.66 41.78-71.82-41.78v-83.42l71.82-41.62z" stroke="#5BAED4" stroke-width="3"/><circle cx="1860.53" cy="1948.06" r="7.059" fill="#5BAED4"/><circle cx="1860.53" cy="2113.94" r="7.059" fill="#5BAED4"/><circle cx="1789.06" cy="1989.53" r="7.059" fill="#5BAED4"/><circle cx="1789.06" cy="2072.47" r="7.059" fill="#5BAED4"/><circle cx="1932" cy="1989.53" r="7.059" fill="#5BAED4"/><circle cx="1932" cy="2072.47" r="7.059" fill="#5BAED4"/><path d="M954.614 1792.03l71.656 41.62v83.42l-71.656 41.78-71.818-41.78v-83.42l71.818-41.62z" stroke="#5BAED4" stroke-width="3"/><circle cx="954.531" cy="1792.06" r="7.059" fill="#5BAED4"/><circle cx="954.531" cy="1957.94" r="7.059" fill="#5BAED4"/><circle cx="883.06" cy="1833.53" r="7.059" fill="#5BAED4"/><circle cx="883.06" cy="1916.47" r="7.059" fill="#5BAED4"/><circle cx="1026" cy="1833.53" r="7.059" fill="#5BAED4"/><circle cx="1026" cy="1916.47" r="7.059" fill="#5BAED4"/><circle cx="20.974" cy="20.974" r="20.974" transform="matrix(0 -1 -1 0 919.596 1195.15)" fill="#07318B"/><circle cx="19.999" cy="19.999" r="19.999" transform="matrix(0 -1 -1 0 985.934 1578.54)" fill="#07318B"/><circle cx="20.974" cy="20.974" r="20.974" transform="matrix(0 -1 -1 0 526.447 1143.45)" fill="#07318B"/><circle cx="20.974" cy="20.974" r="20.974" transform="matrix(0 -1 -1 0 678.633 1449.77)" fill="#07318B"/><circle cx="13.658" cy="13.658" r="13.658" transform="matrix(0 -1 -1 0 985.934 1069.3)" fill="#07318B"/><circle cx="13.658" cy="13.658" r="13.658" transform="matrix(0 -1 -1 0 757.653 1116.13)" fill="#07318B"/><circle cx="13.658" cy="13.658" r="13.658" transform="matrix(0 -1 -1 0 532.299 1237.1)" fill="#07318B"/><circle cx="13.658" cy="13.658" r="13.658" transform="matrix(0 -1 -1 0 359.627 1172.71)" fill="#07318B"/><circle cx="13.658" cy="13.658" r="13.658" transform="matrix(0 -1 -1 0 359.627 1407.82)" fill="#07318B"/><circle cx="13.658" cy="13.658" r="13.658" transform="matrix(0 -1 -1 0 585.958 1485.87)" fill="#07318B"/><circle cx="13.658" cy="13.658" r="13.658" transform="matrix(0 -1 -1 0 540.105 1011.75)" fill="#07318B"/><circle cx="13.658" cy="13.658" r="13.658" transform="matrix(0 -1 -1 0 1119.58 1277.1)" fill="#07318B"/><circle cx="13.658" cy="13.658" r="13.658" transform="matrix(0 -1 -1 0 1207.38 1437.09)" fill="#07318B"/><circle cx="13.658" cy="13.658" r="13.658" transform="matrix(0 -1 -1 0 1143.32 1643.32)" fill="#07318B"/><circle cx="13.658" cy="13.658" r="13.658" transform="matrix(0 -1 -1 0 957.317 1674.32)" fill="#07318B"/><circle cx="13.658" cy="13.658" r="13.658" transform="matrix(0 -1 -1 0 1058.12 1505.38)" fill="#07318B"/><circle cx="13.658" cy="13.658" r="13.658" transform="matrix(0 -1 -1 0 943.985 1294.66)" fill="#07318B"/><circle cx="15.609" cy="15.609" r="15.609" transform="matrix(0 -1 -1 0 933.253 913.216)" fill="#07318B"/><circle cx="15.609" cy="15.609" r="15.609" transform="matrix(0 -1 -1 0 617.173 873.218)" fill="#07318B"/><circle cx="13.658" cy="13.658" r="13.658" transform="matrix(0 -1 -1 0 773.263 944.434)" fill="#07318B"/><circle cx="19.023" cy="19.023" r="19.023" transform="matrix(0 -1 -1 0 763.507 915.167)" fill="#07318B"/><circle cx="19.023" cy="19.023" r="19.023" transform="matrix(0 -1 -1 0 462.06 955.164)" fill="#07318B"/><circle cx="15.121" cy="15.121" r="15.121" transform="matrix(0 -1 -1 0 347.921 1025.4)" fill="#07318B"/><circle cx="15.609" cy="15.609" r="15.609" transform="matrix(0 -1 -1 0 1158.61 1132.71)" fill="#07318B"/><circle cx="18.048" cy="18.048" r="18.048" transform="matrix(0 -1 -1 0 1054.22 1033.21)" fill="#07318B"/><circle cx="18.048" cy="18.048" r="18.048" transform="matrix(0 -1 -1 0 1185.92 1321)" fill="#07318B"/><path d="M1194.21 1424.41l-146.82 66.33-231.203 13.17m-467.784-111.7l1.413-1.41m0 0l168.822-168.82 54.143 250.72-222.965-81.9zm567.337-495.632l-315.104-39.022" stroke="#07318B" stroke-width="2"/><path d="M744.968 894.681L505.469 1122.47" stroke="#07318B" stroke-width="3"/><path d="M1035.2 1014.67l131.7 288.77 27.31 120.97-88.28-161.46-61.46 226.33-112.68-208.77m0 0l39.998-223.89-227.304 43.41 187.306 180.48z" stroke="#07318B" stroke-width="2"/><path d="M1169.83 1302.46l-27.32-187.3-106.34-100.97-121.452-118.047" stroke="#07318B" stroke-width="3"/><path d="M963.983 1557.08l207.307-255.59-278.522-128.78" stroke="#07318B" stroke-width="3"/><path d="M505.469 1120.03l393.149 53.66m0 0L660.095 1428.8l308.763 129.74-70.24-384.85z" stroke="#07318B" stroke-width="3"/><path d="M1141.05 1115.16l-170.239-60.49-54.143-159.015m0 0l-155.601 33.657-16.584-33.657h172.185z" stroke="#07318B" stroke-width="2"/><path d="M1038.12 1010.28l-139.502 161.46-155.6-277.059 295.102 115.599z" stroke="#07318B" stroke-width="3"/><path d="M601.078 852.732L451.33 942.971l-122.92 68.289 17.56 146.82 172.673 64.39 202.916 89.26 21.462-209.26 18.047-174.132L972.276 1053.7l133.164 207.79 39.02-147.8" stroke="#07318B" stroke-width="2"/><path d="M505.469 1120.52l-160.479 351.2 313.153-43.9-152.674-307.3z" stroke="#07318B" stroke-width="3"/><path d="M1168.36 1301.97l-38.04 323.89 62.92-203.89M443.521 936.142L236.216 1176.62m0 0l110.238-19.03 181.453-160.476-193.648 13.166-98.043 166.34zm422.415 247.79l-23.414 225.35-63.411-178.04-110.725 115.6-114.628-115.6" stroke="#07318B" stroke-width="2"/><path d="M409.377 1537.57l246.816 33.66-97.068-193.16-149.748 159.5z" stroke="#07318B" stroke-width="2"/><path d="M768.382 1344.41L654.73 1571.23l54.631 107.8 96.092-55.61 141.943 37.07 85.844-171.21m-674.105-199.99l225.841-121.45-219.5-103.41-6.341 224.86zm240.962-293.64l-159.015-73.166-74.142 141.946 233.157-68.78z" stroke="#07318B" stroke-width="2"/><path d="M185 1225.39l159.991-36.58-65.362-186.33m0 0l163.893-81.459 139.992 40.973-303.885 40.486z" stroke="#07318B" stroke-width="2"/><g filter="url(#filter0_f_12_13661)"><ellipse cx="1396.5" cy="1337.5" rx="508.5" ry="537.5" fill="#262841" fill-opacity=".5"/></g><g filter="url(#filter1_f_12_13661)"><ellipse cx="1371.5" cy="2251" rx="589.5" ry="563" fill="#262841" fill-opacity=".8"/></g><g filter="url(#filter2_f_12_13661)"><ellipse cx="1712.5" cy="1624" rx="524.5" ry="447" fill="#262841" fill-opacity=".9"/></g><g filter="url(#filter3_f_12_13661)"><ellipse cx="1206.5" cy="2345" rx="406.5" ry="431" fill="#262841" fill-opacity=".6"/></g><defs><filter id="filter0_f_12_13661" x="88.002" y="0" width="2617" height="2675" filterUnits="userSpaceOnUse" color-interpolation-filters="sRGB"><feFlood flood-opacity="0" result="BackgroundImageFix"/><feBlend in="SourceGraphic" in2="BackgroundImageFix" result="shape"/><feGaussianBlur stdDeviation="400" result="effect1_foregroundBlur_12_13661"/></filter><filter id="filter1_f_12_13661" x="182.002" y="1088" width="2379" height="2326" filterUnits="userSpaceOnUse" color-interpolation-filters="sRGB"><feFlood flood-opacity="0" result="BackgroundImageFix"/><feBlend in="SourceGraphic" in2="BackgroundImageFix" result="shape"/><feGaussianBlur stdDeviation="300" result="effect1_foregroundBlur_12_13661"/></filter><filter id="filter2_f_12_13661" x="588.001" y="577" width="2249" height="2094" filterUnits="userSpaceOnUse" color-interpolation-filters="sRGB"><feFlood flood-opacity="0" result="BackgroundImageFix"/><feBlend in="SourceGraphic" in2="BackgroundImageFix" result="shape"/><feGaussianBlur stdDeviation="300" result="effect1_foregroundBlur_12_13661"/></filter><filter id="filter3_f_12_13661" x=".001" y="1114" width="2413" height="2462" filterUnits="userSpaceOnUse" color-interpolation-filters="sRGB"><feFlood flood-opacity="0" result="BackgroundImageFix"/><feBlend in="SourceGraphic" in2="BackgroundImageFix" result="shape"/><feGaussianBlur stdDeviation="400" result="effect1_foregroundBlur_12_13661"/></filter></defs></svg>